%TF.GenerationSoftware,KiCad,Pcbnew,7.0.11+dfsg-1build4*%
%TF.CreationDate,2026-07-06T08:18:28-05:00*%
%TF.ProjectId,Boomslang,426f6f6d-736c-4616-9e67-2e6b69636164,rev?*%
%TF.SameCoordinates,Original*%
%TF.FileFunction,Copper,L2,Bot*%
%TF.FilePolarity,Positive*%
%FSLAX46Y46*%
G04 Gerber Fmt 4.6, Leading zero omitted, Abs format (unit mm)*
G04 Created by KiCad (PCBNEW 7.0.11+dfsg-1build4) date 2026-07-06 08:18:28*
%MOMM*%
%LPD*%
G01*
G04 APERTURE LIST*
%TA.AperFunction,ComponentPad*%
%ADD10C,2.400000*%
%TD*%
%TA.AperFunction,ComponentPad*%
%ADD11O,2.400000X2.400000*%
%TD*%
%TA.AperFunction,ComponentPad*%
%ADD12C,1.600000*%
%TD*%
%TA.AperFunction,ComponentPad*%
%ADD13O,1.600000X1.600000*%
%TD*%
%TA.AperFunction,ComponentPad*%
%ADD14R,1.500000X1.500000*%
%TD*%
%TA.AperFunction,ComponentPad*%
%ADD15C,1.500000*%
%TD*%
%TA.AperFunction,ComponentPad*%
%ADD16R,3.000000X3.000000*%
%TD*%
%TA.AperFunction,ComponentPad*%
%ADD17C,3.000000*%
%TD*%
%TA.AperFunction,ComponentPad*%
%ADD18R,2.200000X2.200000*%
%TD*%
%TA.AperFunction,ComponentPad*%
%ADD19O,2.200000X2.200000*%
%TD*%
%TA.AperFunction,ComponentPad*%
%ADD20R,1.800000X1.800000*%
%TD*%
%TA.AperFunction,ComponentPad*%
%ADD21C,1.800000*%
%TD*%
%TA.AperFunction,ComponentPad*%
%ADD22R,1.600000X1.600000*%
%TD*%
%TA.AperFunction,ComponentPad*%
%ADD23R,1.905000X2.000000*%
%TD*%
%TA.AperFunction,ComponentPad*%
%ADD24O,1.905000X2.000000*%
%TD*%
%TA.AperFunction,ComponentPad*%
%ADD25R,2.000000X1.905000*%
%TD*%
%TA.AperFunction,ComponentPad*%
%ADD26O,2.000000X1.905000*%
%TD*%
%TA.AperFunction,Conductor*%
%ADD27C,0.500000*%
%TD*%
%TA.AperFunction,Conductor*%
%ADD28C,5.000000*%
%TD*%
%TA.AperFunction,Conductor*%
%ADD29C,2.000000*%
%TD*%
G04 APERTURE END LIST*
D10*
%TO.P,R44,1*%
%TO.N,Net-(D11-K)*%
X111260000Y-52200000D03*
D11*
%TO.P,R44,2*%
%TO.N,12VRECT*%
X111260000Y-64900000D03*
%TD*%
D12*
%TO.P,R43,1*%
%TO.N,Net-(Q19-B)*%
X125222000Y-72644000D03*
D13*
%TO.P,R43,2*%
%TO.N,VISIBLE*%
X125222000Y-80264000D03*
%TD*%
D12*
%TO.P,R42,1*%
%TO.N,12VRECT*%
X126492000Y-68834000D03*
D13*
%TO.P,R42,2*%
%TO.N,Net-(D10-A)*%
X134112000Y-68834000D03*
%TD*%
%TO.P,R41,2*%
%TO.N,AUDIBLE*%
X121920000Y-80264000D03*
D12*
%TO.P,R41,1*%
%TO.N,Net-(Q20-B)*%
X121920000Y-72644000D03*
%TD*%
D14*
%TO.P,Q20,1,E*%
%TO.N,GND*%
X115062000Y-72644000D03*
D15*
%TO.P,Q20,2,B*%
%TO.N,Net-(Q20-B)*%
X115062000Y-70104000D03*
%TO.P,Q20,3,C*%
%TO.N,Net-(D11-A)*%
X115062000Y-67564000D03*
%TD*%
D14*
%TO.P,Q19,1,E*%
%TO.N,GND*%
X118364000Y-69088000D03*
D15*
%TO.P,Q19,2,B*%
%TO.N,Net-(Q19-B)*%
X120904000Y-69088000D03*
%TO.P,Q19,3,C*%
%TO.N,Net-(D8-K)*%
X123444000Y-69088000D03*
%TD*%
D16*
%TO.P,J6,1,Pin_1*%
%TO.N,Net-(D11-K)*%
X118510000Y-56380000D03*
D17*
%TO.P,J6,2,Pin_2*%
%TO.N,Net-(D11-A)*%
X123590000Y-56380000D03*
%TD*%
D18*
%TO.P,D11,1,K*%
%TO.N,Net-(D11-K)*%
X117220000Y-62340000D03*
D19*
%TO.P,D11,2,A*%
%TO.N,Net-(D11-A)*%
X124840000Y-62340000D03*
%TD*%
D20*
%TO.P,D10,1,K*%
%TO.N,Net-(D10-K)*%
X135360000Y-55050000D03*
D21*
%TO.P,D10,2,A*%
%TO.N,Net-(D10-A)*%
X137900000Y-55050000D03*
%TD*%
D20*
%TO.P,D9,1,K*%
%TO.N,Net-(D8-A)*%
X128660000Y-55010000D03*
D21*
%TO.P,D9,2,A*%
%TO.N,Net-(D10-K)*%
X131200000Y-55010000D03*
%TD*%
%TO.P,D8,2,A*%
%TO.N,Net-(D8-A)*%
X136870000Y-61980000D03*
D20*
%TO.P,D8,1,K*%
%TO.N,Net-(D8-K)*%
X134330000Y-61980000D03*
%TD*%
D13*
%TO.P,R32,2*%
%TO.N,SENSE3*%
X176784000Y-139192000D03*
D12*
%TO.P,R32,1*%
%TO.N,Net-(Q18-B)*%
X176784000Y-131572000D03*
%TD*%
D16*
%TO.P,J5,1,Pin_1*%
%TO.N,12VRECT*%
X143040000Y-56570000D03*
D17*
%TO.P,J5,2,Pin_2*%
%TO.N,FAILSAFE*%
X148120000Y-56570000D03*
%TD*%
D12*
%TO.P,R40,1*%
%TO.N,Net-(DB1-3V3-Pad1)*%
X141732000Y-146050000D03*
D13*
%TO.P,R40,2*%
%TO.N,FAULT*%
X149352000Y-146050000D03*
%TD*%
D12*
%TO.P,R39,1*%
%TO.N,CONTINUITY3*%
X156972000Y-127508000D03*
D13*
%TO.P,R39,2*%
%TO.N,Net-(C9-Pad1)*%
X149352000Y-127508000D03*
%TD*%
%TO.P,R38,2*%
%TO.N,Net-(C8-Pad1)*%
X149098000Y-88011000D03*
D12*
%TO.P,R38,1*%
%TO.N,CONTINUITY2*%
X156718000Y-88011000D03*
%TD*%
%TO.P,R37,1*%
%TO.N,CONTINUITY1*%
X132715000Y-71882000D03*
D13*
%TO.P,R37,2*%
%TO.N,Net-(C7-Pad1)*%
X132715000Y-79502000D03*
%TD*%
D12*
%TO.P,R36,1*%
%TO.N,SENSEFAILSAFE*%
X129413000Y-83439000D03*
D13*
%TO.P,R36,2*%
%TO.N,Net-(D7-A)*%
X129413000Y-75819000D03*
%TD*%
D12*
%TO.P,R35,1*%
%TO.N,FAILSAFE*%
X154432000Y-72644000D03*
D13*
%TO.P,R35,2*%
%TO.N,Net-(D7-A)*%
X146812000Y-72644000D03*
%TD*%
D20*
%TO.P,D7,1,K*%
%TO.N,GND*%
X140716000Y-72644000D03*
D21*
%TO.P,D7,2,A*%
%TO.N,Net-(D7-A)*%
X143256000Y-72644000D03*
%TD*%
D12*
%TO.P,C12,1*%
%TO.N,Net-(DB1-10)*%
X142280000Y-107696000D03*
%TO.P,C12,2*%
%TO.N,GND*%
X147280000Y-107696000D03*
%TD*%
%TO.P,C11,1*%
%TO.N,Net-(DB1-9)*%
X142320000Y-110998000D03*
%TO.P,C11,2*%
%TO.N,GND*%
X147320000Y-110998000D03*
%TD*%
%TO.P,C10,1*%
%TO.N,Net-(DB1-8)*%
X142240000Y-115062000D03*
%TO.P,C10,2*%
%TO.N,GND*%
X147240000Y-115062000D03*
%TD*%
%TO.P,C9,1*%
%TO.N,Net-(C9-Pad1)*%
X141732000Y-131572000D03*
%TO.P,C9,2*%
%TO.N,GND*%
X146732000Y-131572000D03*
%TD*%
%TO.P,C8,1*%
%TO.N,Net-(C8-Pad1)*%
X141732000Y-134874000D03*
%TO.P,C8,2*%
%TO.N,GND*%
X146732000Y-134874000D03*
%TD*%
%TO.P,C7,1*%
%TO.N,Net-(C7-Pad1)*%
X141732000Y-138176000D03*
%TO.P,C7,2*%
%TO.N,GND*%
X146732000Y-138176000D03*
%TD*%
%TO.P,C6,1*%
%TO.N,SENSEFAILSAFE*%
X141732000Y-141478000D03*
%TO.P,C6,2*%
%TO.N,GND*%
X146732000Y-141478000D03*
%TD*%
D22*
%TO.P,C2,1*%
%TO.N,+5V*%
X142367000Y-85852000D03*
D12*
%TO.P,C2,2*%
%TO.N,GND*%
X142367000Y-83352000D03*
%TD*%
D22*
%TO.P,C1,1*%
%TO.N,12VRECT*%
X116840000Y-85344000D03*
D12*
%TO.P,C1,2*%
%TO.N,GND*%
X116840000Y-82844000D03*
%TD*%
D16*
%TO.P,J4,1,Pin_1*%
%TO.N,GND*%
X173228000Y-144526000D03*
D17*
%TO.P,J4,2,Pin_2*%
%TO.N,unconnected-(J4-Pin_2-Pad2)*%
X178308000Y-144526000D03*
%TO.P,J4,3,Pin_3*%
%TO.N,unconnected-(J4-Pin_3-Pad3)*%
X183388000Y-144526000D03*
%TO.P,J4,4,Pin_4*%
%TO.N,+12V*%
X188468000Y-144526000D03*
%TD*%
D12*
%TO.P,C5,1*%
%TO.N,FAILSAFE*%
X160020000Y-127762000D03*
%TO.P,C5,2*%
%TO.N,GND*%
X160020000Y-122762000D03*
%TD*%
%TO.P,R34,1*%
%TO.N,Net-(J3-Pin_1)*%
X174244000Y-113538000D03*
D13*
%TO.P,R34,2*%
%TO.N,CONTINUITY3*%
X166624000Y-113538000D03*
%TD*%
D12*
%TO.P,R33,1*%
%TO.N,Net-(DB1-8)*%
X149606000Y-115062000D03*
D13*
%TO.P,R33,2*%
%TO.N,SENSE3*%
X157226000Y-115062000D03*
%TD*%
D11*
%TO.P,R31,2*%
%TO.N,GND*%
X184404000Y-136906000D03*
D10*
%TO.P,R31,1*%
%TO.N,SENSE3*%
X184404000Y-121666000D03*
%TD*%
D12*
%TO.P,R30,1*%
%TO.N,SENSE3*%
X180086000Y-139192000D03*
D13*
%TO.P,R30,2*%
%TO.N,Net-(Q16-B)*%
X180086000Y-131572000D03*
%TD*%
D12*
%TO.P,R29,1*%
%TO.N,Net-(Q16-C)*%
X174244000Y-116840000D03*
D13*
%TO.P,R29,2*%
%TO.N,GND*%
X166624000Y-116840000D03*
%TD*%
D12*
%TO.P,R28,1*%
%TO.N,Net-(Q16-C)*%
X174244000Y-120142000D03*
D13*
%TO.P,R28,2*%
%TO.N,Net-(Q14-E)*%
X166624000Y-120142000D03*
%TD*%
D12*
%TO.P,R27,1*%
%TO.N,Net-(Q14-B)*%
X163322000Y-123444000D03*
D13*
%TO.P,R27,2*%
%TO.N,Net-(Q13-C)*%
X163322000Y-131064000D03*
%TD*%
D12*
%TO.P,R26,1*%
%TO.N,FAILSAFE*%
X170180000Y-131572000D03*
D13*
%TO.P,R26,2*%
%TO.N,Net-(Q13-C)*%
X170180000Y-139192000D03*
%TD*%
D12*
%TO.P,R25,1*%
%TO.N,FAILSAFE*%
X166878000Y-131572000D03*
D13*
%TO.P,R25,2*%
%TO.N,Net-(Q13-B)*%
X166878000Y-139192000D03*
%TD*%
D12*
%TO.P,R24,1*%
%TO.N,Net-(Q13-B)*%
X156972000Y-131318000D03*
D13*
%TO.P,R24,2*%
%TO.N,TRIGGER3*%
X149352000Y-131318000D03*
%TD*%
D15*
%TO.P,Q18,3,C*%
%TO.N,FAULT*%
X154940000Y-135890000D03*
%TO.P,Q18,2,B*%
%TO.N,Net-(Q18-B)*%
X154940000Y-138430000D03*
D14*
%TO.P,Q18,1,E*%
%TO.N,GND*%
X154940000Y-140970000D03*
%TD*%
D23*
%TO.P,Q17,1,G*%
%TO.N,Net-(Q16-C)*%
X178308000Y-118364000D03*
D24*
%TO.P,Q17,2,D*%
%TO.N,Net-(J3-Pin_1)*%
X180848000Y-118364000D03*
%TO.P,Q17,3,S*%
%TO.N,SENSE3*%
X183388000Y-118364000D03*
%TD*%
D14*
%TO.P,Q16,1,E*%
%TO.N,GND*%
X179324000Y-129286000D03*
D15*
%TO.P,Q16,2,B*%
%TO.N,Net-(Q16-B)*%
X179324000Y-126746000D03*
%TO.P,Q16,3,C*%
%TO.N,Net-(Q16-C)*%
X179324000Y-124206000D03*
%TD*%
D14*
%TO.P,Q15,1,E*%
%TO.N,Net-(Q14-E)*%
X168656000Y-124206000D03*
D15*
%TO.P,Q15,2,B*%
%TO.N,Net-(Q14-B)*%
X168656000Y-126746000D03*
%TO.P,Q15,3,C*%
%TO.N,GND*%
X168656000Y-129286000D03*
%TD*%
%TO.P,Q14,3,C*%
%TO.N,FAILSAFE*%
X173736000Y-129286000D03*
%TO.P,Q14,2,B*%
%TO.N,Net-(Q14-B)*%
X173736000Y-126746000D03*
D14*
%TO.P,Q14,1,E*%
%TO.N,Net-(Q14-E)*%
X173736000Y-124206000D03*
%TD*%
%TO.P,Q13,1,E*%
%TO.N,GND*%
X163068000Y-138684000D03*
D15*
%TO.P,Q13,2,B*%
%TO.N,Net-(Q13-B)*%
X163068000Y-136144000D03*
%TO.P,Q13,3,C*%
%TO.N,Net-(Q13-C)*%
X163068000Y-133604000D03*
%TD*%
D17*
%TO.P,J3,4,Pin_4*%
%TO.N,+12V*%
X191262000Y-135636000D03*
%TO.P,J3,3,Pin_3*%
%TO.N,unconnected-(J3-Pin_3-Pad3)*%
X191262000Y-130556000D03*
%TO.P,J3,2,Pin_2*%
%TO.N,unconnected-(J3-Pin_2-Pad2)*%
X191262000Y-125476000D03*
D16*
%TO.P,J3,1,Pin_1*%
%TO.N,Net-(J3-Pin_1)*%
X191262000Y-120396000D03*
%TD*%
D20*
%TO.P,D6,1,K*%
%TO.N,GND*%
X160528000Y-118110000D03*
D21*
%TO.P,D6,2,A*%
%TO.N,CONTINUITY3*%
X163068000Y-118110000D03*
%TD*%
D12*
%TO.P,R23,1*%
%TO.N,Net-(J1-Pin_1)*%
X173609000Y-52197000D03*
D13*
%TO.P,R23,2*%
%TO.N,CONTINUITY1*%
X165989000Y-52197000D03*
%TD*%
D12*
%TO.P,R22,1*%
%TO.N,Net-(J2-Pin_1)*%
X175387000Y-83312000D03*
D13*
%TO.P,R22,2*%
%TO.N,CONTINUITY2*%
X167767000Y-83312000D03*
%TD*%
D20*
%TO.P,D5,1,K*%
%TO.N,GND*%
X160782000Y-87884000D03*
D21*
%TO.P,D5,2,A*%
%TO.N,CONTINUITY2*%
X163322000Y-87884000D03*
%TD*%
D20*
%TO.P,D4,1,K*%
%TO.N,GND*%
X159512000Y-54864000D03*
D21*
%TO.P,D4,2,A*%
%TO.N,CONTINUITY1*%
X162052000Y-54864000D03*
%TD*%
D12*
%TO.P,C4,2*%
%TO.N,GND*%
X160274000Y-92536000D03*
%TO.P,C4,1*%
%TO.N,FAILSAFE*%
X160274000Y-97536000D03*
%TD*%
%TO.P,C3,1*%
%TO.N,FAILSAFE*%
X158115000Y-64770000D03*
%TO.P,C3,2*%
%TO.N,GND*%
X158115000Y-59770000D03*
%TD*%
D13*
%TO.P,R21,2*%
%TO.N,GND*%
X166878000Y-86487000D03*
D12*
%TO.P,R21,1*%
%TO.N,Net-(Q10-C)*%
X174498000Y-86487000D03*
%TD*%
%TO.P,R20,1*%
%TO.N,Net-(Q1-G)*%
X173736000Y-55626000D03*
D13*
%TO.P,R20,2*%
%TO.N,GND*%
X166116000Y-55626000D03*
%TD*%
%TO.P,R19,2*%
%TO.N,SENSE2*%
X157480000Y-110998000D03*
D12*
%TO.P,R19,1*%
%TO.N,Net-(DB1-9)*%
X149860000Y-110998000D03*
%TD*%
D13*
%TO.P,R18,2*%
%TO.N,SENSE2*%
X175387000Y-109982000D03*
D12*
%TO.P,R18,1*%
%TO.N,Net-(Q12-B)*%
X175387000Y-102362000D03*
%TD*%
D11*
%TO.P,R17,2*%
%TO.N,GND*%
X184277000Y-109347000D03*
D10*
%TO.P,R17,1*%
%TO.N,SENSE2*%
X184277000Y-94107000D03*
%TD*%
D13*
%TO.P,R16,2*%
%TO.N,Net-(Q10-B)*%
X178816000Y-102362000D03*
D12*
%TO.P,R16,1*%
%TO.N,SENSE2*%
X178816000Y-109982000D03*
%TD*%
D13*
%TO.P,R15,2*%
%TO.N,Net-(Q8-E)*%
X166878000Y-89662000D03*
D12*
%TO.P,R15,1*%
%TO.N,Net-(Q10-C)*%
X174498000Y-89662000D03*
%TD*%
D13*
%TO.P,R14,2*%
%TO.N,Net-(Q7-C)*%
X163576000Y-100330000D03*
D12*
%TO.P,R14,1*%
%TO.N,Net-(Q8-B)*%
X163576000Y-92710000D03*
%TD*%
%TO.P,R13,1*%
%TO.N,FAILSAFE*%
X172212000Y-101346000D03*
D13*
%TO.P,R13,2*%
%TO.N,Net-(Q7-C)*%
X172212000Y-108966000D03*
%TD*%
%TO.P,R12,2*%
%TO.N,Net-(Q7-B)*%
X168910000Y-108966000D03*
D12*
%TO.P,R12,1*%
%TO.N,FAILSAFE*%
X168910000Y-101346000D03*
%TD*%
%TO.P,R11,1*%
%TO.N,Net-(Q7-B)*%
X156464000Y-123952000D03*
D13*
%TO.P,R11,2*%
%TO.N,TRIGGER2*%
X148844000Y-123952000D03*
%TD*%
D14*
%TO.P,Q12,1,E*%
%TO.N,GND*%
X158840000Y-100810000D03*
D15*
%TO.P,Q12,2,B*%
%TO.N,Net-(Q12-B)*%
X156300000Y-100810000D03*
%TO.P,Q12,3,C*%
%TO.N,FAULT*%
X153760000Y-100810000D03*
%TD*%
D23*
%TO.P,Q11,1,G*%
%TO.N,Net-(Q10-C)*%
X178816000Y-90932000D03*
D24*
%TO.P,Q11,2,D*%
%TO.N,Net-(J2-Pin_1)*%
X181356000Y-90932000D03*
%TO.P,Q11,3,S*%
%TO.N,SENSE2*%
X183896000Y-90932000D03*
%TD*%
D14*
%TO.P,Q10,1,E*%
%TO.N,GND*%
X179324000Y-100076000D03*
D15*
%TO.P,Q10,2,B*%
%TO.N,Net-(Q10-B)*%
X179324000Y-97536000D03*
%TO.P,Q10,3,C*%
%TO.N,Net-(Q10-C)*%
X179324000Y-94996000D03*
%TD*%
%TO.P,Q9,3,C*%
%TO.N,GND*%
X168656000Y-99060000D03*
%TO.P,Q9,2,B*%
%TO.N,Net-(Q8-B)*%
X168656000Y-96520000D03*
D14*
%TO.P,Q9,1,E*%
%TO.N,Net-(Q8-E)*%
X168656000Y-93980000D03*
%TD*%
%TO.P,Q8,1,E*%
%TO.N,Net-(Q8-E)*%
X173609000Y-93980000D03*
D15*
%TO.P,Q8,2,B*%
%TO.N,Net-(Q8-B)*%
X173609000Y-96520000D03*
%TO.P,Q8,3,C*%
%TO.N,FAILSAFE*%
X173609000Y-99060000D03*
%TD*%
D14*
%TO.P,Q7,1,E*%
%TO.N,GND*%
X162814000Y-107696000D03*
D15*
%TO.P,Q7,2,B*%
%TO.N,Net-(Q7-B)*%
X162814000Y-105156000D03*
%TO.P,Q7,3,C*%
%TO.N,Net-(Q7-C)*%
X162814000Y-102616000D03*
%TD*%
D16*
%TO.P,J2,1,Pin_1*%
%TO.N,Net-(J2-Pin_1)*%
X191516000Y-93218000D03*
D17*
%TO.P,J2,2,Pin_2*%
%TO.N,unconnected-(J2-Pin_2-Pad2)*%
X191516000Y-98298000D03*
%TO.P,J2,3,Pin_3*%
%TO.N,unconnected-(J2-Pin_3-Pad3)*%
X191516000Y-103378000D03*
%TO.P,J2,4,Pin_4*%
%TO.N,+12V*%
X191516000Y-108458000D03*
%TD*%
D25*
%TO.P,U1,1,IN*%
%TO.N,12VRECT*%
X105410000Y-84582000D03*
D26*
%TO.P,U1,2,GND*%
%TO.N,GND*%
X105410000Y-82042000D03*
%TO.P,U1,3,OUT*%
%TO.N,+5V*%
X105410000Y-79502000D03*
%TD*%
D12*
%TO.P,R10,1*%
%TO.N,SENSE1*%
X176403000Y-80137000D03*
D13*
%TO.P,R10,2*%
%TO.N,Net-(Q5-B)*%
X176403000Y-72517000D03*
%TD*%
%TO.P,R9,2*%
%TO.N,SENSE1*%
X172974000Y-80137000D03*
D12*
%TO.P,R9,1*%
%TO.N,Net-(Q6-B)*%
X172974000Y-72517000D03*
%TD*%
D13*
%TO.P,R8,2*%
%TO.N,SENSE1*%
X156845000Y-91821000D03*
D12*
%TO.P,R8,1*%
%TO.N,Net-(DB1-10)*%
X149225000Y-91821000D03*
%TD*%
%TO.P,R7,1*%
%TO.N,FAILSAFE*%
X166370000Y-70993000D03*
D13*
%TO.P,R7,2*%
%TO.N,Net-(Q2-B)*%
X166370000Y-78613000D03*
%TD*%
D12*
%TO.P,R6,1*%
%TO.N,Net-(Q1-G)*%
X173736000Y-59182000D03*
D13*
%TO.P,R6,2*%
%TO.N,Net-(Q3-E)*%
X166116000Y-59182000D03*
%TD*%
D12*
%TO.P,R5,1*%
%TO.N,Net-(Q3-B)*%
X161544000Y-59690000D03*
D13*
%TO.P,R5,2*%
%TO.N,Net-(Q2-C)*%
X161544000Y-67310000D03*
%TD*%
D12*
%TO.P,R4,1*%
%TO.N,FAILSAFE*%
X169672000Y-70993000D03*
D13*
%TO.P,R4,2*%
%TO.N,Net-(Q2-C)*%
X169672000Y-78613000D03*
%TD*%
%TO.P,R3,2*%
%TO.N,TRIGGER1*%
X147828000Y-119380000D03*
D12*
%TO.P,R3,1*%
%TO.N,Net-(Q2-B)*%
X155448000Y-119380000D03*
%TD*%
%TO.P,R2,1*%
%TO.N,Net-(D1-A)*%
X102870000Y-73660000D03*
D13*
%TO.P,R2,2*%
%TO.N,+5V*%
X110490000Y-73660000D03*
%TD*%
D10*
%TO.P,R1,1*%
%TO.N,SENSE1*%
X183896000Y-65278000D03*
D11*
%TO.P,R1,2*%
%TO.N,GND*%
X183896000Y-80518000D03*
%TD*%
D15*
%TO.P,Q6,3,C*%
%TO.N,FAULT*%
X154140000Y-56980000D03*
%TO.P,Q6,2,B*%
%TO.N,Net-(Q6-B)*%
X154140000Y-59520000D03*
D14*
%TO.P,Q6,1,E*%
%TO.N,GND*%
X154140000Y-62060000D03*
%TD*%
%TO.P,Q5,1,E*%
%TO.N,GND*%
X178054000Y-69832000D03*
D15*
%TO.P,Q5,2,B*%
%TO.N,Net-(Q5-B)*%
X178054000Y-67292000D03*
%TO.P,Q5,3,C*%
%TO.N,Net-(Q1-G)*%
X178054000Y-64752000D03*
%TD*%
%TO.P,Q4,3,C*%
%TO.N,FAILSAFE*%
X172085000Y-68580000D03*
%TO.P,Q4,2,B*%
%TO.N,Net-(Q3-B)*%
X172085000Y-66040000D03*
D14*
%TO.P,Q4,1,E*%
%TO.N,Net-(Q3-E)*%
X172085000Y-63500000D03*
%TD*%
%TO.P,Q3,1,E*%
%TO.N,Net-(Q3-E)*%
X167132000Y-63500000D03*
D15*
%TO.P,Q3,2,B*%
%TO.N,Net-(Q3-B)*%
X167132000Y-66040000D03*
%TO.P,Q3,3,C*%
%TO.N,GND*%
X167132000Y-68580000D03*
%TD*%
D14*
%TO.P,Q2,1,E*%
%TO.N,GND*%
X162560000Y-74930000D03*
D15*
%TO.P,Q2,2,B*%
%TO.N,Net-(Q2-B)*%
X162560000Y-72390000D03*
%TO.P,Q2,3,C*%
%TO.N,Net-(Q2-C)*%
X162560000Y-69850000D03*
%TD*%
D24*
%TO.P,Q1,3,S*%
%TO.N,SENSE1*%
X183642000Y-57658000D03*
%TO.P,Q1,2,D*%
%TO.N,Net-(J1-Pin_1)*%
X181102000Y-57658000D03*
D23*
%TO.P,Q1,1,G*%
%TO.N,Net-(Q1-G)*%
X178562000Y-57658000D03*
%TD*%
D16*
%TO.P,J1,1,Pin_1*%
%TO.N,Net-(J1-Pin_1)*%
X191008000Y-64262000D03*
D17*
%TO.P,J1,2,Pin_2*%
%TO.N,unconnected-(J1-Pin_2-Pad2)*%
X191008000Y-69342000D03*
%TO.P,J1,3,Pin_3*%
%TO.N,unconnected-(J1-Pin_3-Pad3)*%
X191008000Y-74422000D03*
%TO.P,J1,4,Pin_4*%
%TO.N,+12V*%
X191008000Y-79502000D03*
%TD*%
D18*
%TO.P,D3,1,K*%
%TO.N,12VRECT*%
X110236000Y-86106000D03*
D19*
%TO.P,D3,2,A*%
%TO.N,+5V*%
X110236000Y-78486000D03*
%TD*%
D18*
%TO.P,D2,1,K*%
%TO.N,12VRECT*%
X104902000Y-90424000D03*
D19*
%TO.P,D2,2,A*%
%TO.N,+12V*%
X104902000Y-98044000D03*
%TD*%
D20*
%TO.P,D1,1,K*%
%TO.N,GND*%
X104902000Y-68072000D03*
D21*
%TO.P,D1,2,A*%
%TO.N,Net-(D1-A)*%
X102362000Y-68072000D03*
%TD*%
D12*
%TO.P,DB1,1,3V3*%
%TO.N,Net-(DB1-3V3-Pad1)*%
X137668000Y-145796000D03*
%TO.P,DB1,2,3V3*%
%TO.N,unconnected-(DB1-3V3-Pad2)*%
X137668000Y-143256000D03*
%TO.P,DB1,3,RST*%
%TO.N,unconnected-(DB1-RST-Pad3)*%
X137668000Y-140716000D03*
%TO.P,DB1,4,4*%
%TO.N,SENSEFAILSAFE*%
X137668000Y-138176000D03*
%TO.P,DB1,5,5*%
%TO.N,Net-(C7-Pad1)*%
X137668000Y-135636000D03*
%TO.P,DB1,6,6*%
%TO.N,Net-(C8-Pad1)*%
X137668000Y-133096000D03*
%TO.P,DB1,7,7*%
%TO.N,Net-(C9-Pad1)*%
X137668000Y-130556000D03*
%TO.P,DB1,8,15*%
%TO.N,unconnected-(DB1-15-Pad8)*%
X137668000Y-128016000D03*
%TO.P,DB1,9,16*%
%TO.N,TRIGGER3*%
X137668000Y-125476000D03*
%TO.P,DB1,10,17*%
%TO.N,TRIGGER2*%
X137668000Y-122936000D03*
%TO.P,DB1,11,18*%
%TO.N,TRIGGER1*%
X137668000Y-120396000D03*
%TO.P,DB1,12,8*%
%TO.N,Net-(DB1-8)*%
X137668000Y-117856000D03*
%TO.P,DB1,13,3*%
%TO.N,unconnected-(DB1-3-Pad13)*%
X137668000Y-115316000D03*
%TO.P,DB1,14,46*%
%TO.N,unconnected-(DB1-46-Pad14)*%
X137668000Y-112776000D03*
%TO.P,DB1,15,9*%
%TO.N,Net-(DB1-9)*%
X137668000Y-110236000D03*
%TO.P,DB1,16,10*%
%TO.N,Net-(DB1-10)*%
X137668000Y-107696000D03*
%TO.P,DB1,17,11*%
%TO.N,unconnected-(DB1-11-Pad17)*%
X137668000Y-105156000D03*
%TO.P,DB1,18,12*%
%TO.N,unconnected-(DB1-12-Pad18)*%
X137668000Y-102616000D03*
%TO.P,DB1,19,13*%
%TO.N,unconnected-(DB1-13-Pad19)*%
X137668000Y-100076000D03*
%TO.P,DB1,20,14*%
%TO.N,unconnected-(DB1-14-Pad20)*%
X137668000Y-97536000D03*
%TO.P,DB1,21,5V5*%
%TO.N,+5V*%
X137668000Y-94996000D03*
%TO.P,DB1,22,GND*%
%TO.N,GND*%
X137668000Y-92456000D03*
%TO.P,DB1,23,GND*%
X112268000Y-92456000D03*
%TO.P,DB1,24,GND*%
X112268000Y-94996000D03*
%TO.P,DB1,25,19*%
%TO.N,unconnected-(DB1-19-Pad25)*%
X112268000Y-97536000D03*
%TO.P,DB1,26,20*%
%TO.N,unconnected-(DB1-20-Pad26)*%
X112268000Y-100076000D03*
%TO.P,DB1,27,21*%
%TO.N,unconnected-(DB1-21-Pad27)*%
X112268000Y-102616000D03*
%TO.P,DB1,28,47*%
%TO.N,unconnected-(DB1-47-Pad28)*%
X112268000Y-105156000D03*
%TO.P,DB1,29,48*%
%TO.N,unconnected-(DB1-48-Pad29)*%
X112268000Y-107696000D03*
%TO.P,DB1,30,45*%
%TO.N,unconnected-(DB1-45-Pad30)*%
X112268000Y-110236000D03*
%TO.P,DB1,31,0*%
%TO.N,unconnected-(DB1-0-Pad31)*%
X112268000Y-112776000D03*
%TO.P,DB1,32,35*%
%TO.N,unconnected-(DB1-35-Pad32)*%
X112268000Y-115316000D03*
%TO.P,DB1,33,36*%
%TO.N,unconnected-(DB1-36-Pad33)*%
X112268000Y-117856000D03*
%TO.P,DB1,34,37*%
%TO.N,unconnected-(DB1-37-Pad34)*%
X112268000Y-120396000D03*
%TO.P,DB1,35,38*%
%TO.N,unconnected-(DB1-38-Pad35)*%
X112268000Y-122936000D03*
%TO.P,DB1,36,39*%
%TO.N,unconnected-(DB1-39-Pad36)*%
X112268000Y-125476000D03*
%TO.P,DB1,37,40*%
%TO.N,unconnected-(DB1-40-Pad37)*%
X112268000Y-128016000D03*
%TO.P,DB1,38,41*%
%TO.N,AUDIBLE*%
X112268000Y-130556000D03*
%TO.P,DB1,39,42*%
%TO.N,VISIBLE*%
X112268000Y-133096000D03*
%TO.P,DB1,40,2*%
%TO.N,unconnected-(DB1-2-Pad40)*%
X112268000Y-135636000D03*
%TO.P,DB1,41,1*%
%TO.N,FAULT*%
X112268000Y-138176000D03*
%TO.P,DB1,42,RX*%
%TO.N,unconnected-(DB1-RX-Pad42)*%
X112268000Y-140716000D03*
%TO.P,DB1,43,TX*%
%TO.N,unconnected-(DB1-TX-Pad43)*%
X112268000Y-143256000D03*
%TO.P,DB1,44,GND*%
%TO.N,GND*%
X112268000Y-145796000D03*
%TD*%
D27*
%TO.N,CONTINUITY1*%
X162052000Y-54864000D02*
X158242000Y-51054000D01*
X158242000Y-51054000D02*
X143226000Y-51054000D01*
X143226000Y-51054000D02*
X140670000Y-53610000D01*
X140670000Y-53610000D02*
X140670000Y-67060000D01*
X140670000Y-67060000D02*
X135848000Y-71882000D01*
X135848000Y-71882000D02*
X132715000Y-71882000D01*
%TO.N,Net-(D11-A)*%
X115062000Y-67564000D02*
X116326000Y-66300000D01*
X116326000Y-66300000D02*
X123280000Y-66300000D01*
X123280000Y-66300000D02*
X125100000Y-64480000D01*
X125100000Y-64480000D02*
X125100000Y-62600000D01*
X125100000Y-62600000D02*
X124840000Y-62340000D01*
%TO.N,12VRECT*%
X111420000Y-70444000D02*
X111420000Y-65060000D01*
X111420000Y-65060000D02*
X111260000Y-64900000D01*
%TO.N,Net-(D11-K)*%
X111260000Y-52200000D02*
X111500000Y-52440000D01*
X111500000Y-52440000D02*
X114570000Y-52440000D01*
X114570000Y-52440000D02*
X118510000Y-56380000D01*
%TO.N,12VRECT*%
X110744000Y-71120000D02*
X111420000Y-70444000D01*
X110744000Y-71120000D02*
X109310000Y-71120000D01*
X109310000Y-71120000D02*
X102108000Y-78322000D01*
X103886000Y-84582000D02*
X105410000Y-84582000D01*
X102108000Y-78322000D02*
X102108000Y-82804000D01*
X102108000Y-82804000D02*
X103886000Y-84582000D01*
%TO.N,Net-(D11-K)*%
X118510000Y-56380000D02*
X118860000Y-56730000D01*
X118860000Y-56730000D02*
X118860000Y-60700000D01*
X118860000Y-60700000D02*
X117220000Y-62340000D01*
%TO.N,Net-(D11-A)*%
X123590000Y-56380000D02*
X124790000Y-57580000D01*
X124790000Y-57580000D02*
X124790000Y-62290000D01*
X124790000Y-62290000D02*
X124840000Y-62340000D01*
%TO.N,Net-(D8-K)*%
X134330000Y-61980000D02*
X134330000Y-65310000D01*
X134330000Y-65310000D02*
X132840000Y-66800000D01*
X125732000Y-66800000D02*
X123444000Y-69088000D01*
X132840000Y-66800000D02*
X125732000Y-66800000D01*
%TO.N,Net-(D8-A)*%
X136870000Y-61980000D02*
X136870000Y-58520000D01*
X136870000Y-58520000D02*
X136000000Y-57650000D01*
X136000000Y-57650000D02*
X129750000Y-57650000D01*
X129750000Y-57650000D02*
X128660000Y-56560000D01*
X128660000Y-56560000D02*
X128660000Y-55010000D01*
%TO.N,Net-(D10-A)*%
X137900000Y-55050000D02*
X139330000Y-56480000D01*
X139330000Y-56480000D02*
X139330000Y-66800000D01*
X139330000Y-66800000D02*
X137296000Y-68834000D01*
X137296000Y-68834000D02*
X134112000Y-68834000D01*
%TO.N,Net-(D10-K)*%
X135300000Y-55110000D02*
X135360000Y-55050000D01*
X131200000Y-55010000D02*
X131300000Y-55110000D01*
X131300000Y-55110000D02*
X135300000Y-55110000D01*
%TO.N,12VRECT*%
X143040000Y-56570000D02*
X143390000Y-56920000D01*
X143390000Y-56920000D02*
X143390000Y-66030000D01*
X143390000Y-66030000D02*
X135252000Y-74168000D01*
X135252000Y-74168000D02*
X128778000Y-74168000D01*
%TO.N,FAULT*%
X146548000Y-52832000D02*
X145700000Y-53680000D01*
X145700000Y-66198000D02*
X145786000Y-66284000D01*
X149860000Y-52832000D02*
X146548000Y-52832000D01*
X151892000Y-72390000D02*
X145786000Y-66284000D01*
X145700000Y-53680000D02*
X145700000Y-66198000D01*
%TO.N,FAILSAFE*%
X148120000Y-56570000D02*
X148170000Y-56620000D01*
X148170000Y-56620000D02*
X148170000Y-66636000D01*
X148170000Y-66636000D02*
X154178000Y-72644000D01*
X154178000Y-72644000D02*
X154432000Y-72644000D01*
%TO.N,FAULT*%
X149860000Y-52832000D02*
X154008000Y-56980000D01*
X154008000Y-56980000D02*
X154140000Y-56980000D01*
X151892000Y-100710000D02*
X151892000Y-72390000D01*
%TO.N,Net-(Q6-B)*%
X172974000Y-72517000D02*
X172974000Y-70086000D01*
X169799000Y-57531000D02*
X156449000Y-57531000D01*
X172974000Y-70086000D02*
X173990000Y-69070000D01*
X173990000Y-69070000D02*
X173990000Y-61722000D01*
X173990000Y-61722000D02*
X169799000Y-57531000D01*
X156449000Y-57531000D02*
X154460000Y-59520000D01*
X154460000Y-59520000D02*
X154140000Y-59520000D01*
%TO.N,Net-(Q2-B)*%
X155448000Y-119380000D02*
X154350000Y-118282000D01*
X154350000Y-118282000D02*
X154350000Y-107330000D01*
X154350000Y-107330000D02*
X155000000Y-106680000D01*
X155000000Y-106680000D02*
X155000000Y-96520000D01*
X155000000Y-96520000D02*
X153400000Y-94920000D01*
X153400000Y-94920000D02*
X153400000Y-82530000D01*
X157317000Y-78613000D02*
X166370000Y-78613000D01*
X153400000Y-82530000D02*
X157317000Y-78613000D01*
%TO.N,VISIBLE*%
X125222000Y-80264000D02*
X126238000Y-81280000D01*
X126238000Y-81280000D02*
X126238000Y-119126000D01*
X126238000Y-119126000D02*
X112268000Y-133096000D01*
%TO.N,AUDIBLE*%
X121920000Y-80264000D02*
X121920000Y-120904000D01*
X121920000Y-120904000D02*
X112268000Y-130556000D01*
%TO.N,Net-(Q12-B)*%
X175387000Y-102362000D02*
X173355000Y-104394000D01*
X173355000Y-104394000D02*
X165608000Y-104394000D01*
X165608000Y-104394000D02*
X164592000Y-103378000D01*
X164592000Y-103378000D02*
X164592000Y-102108000D01*
X164338000Y-98552000D02*
X162814000Y-98552000D01*
X164592000Y-102108000D02*
X165354000Y-101346000D01*
X165354000Y-101346000D02*
X165354000Y-99568000D01*
X165354000Y-99568000D02*
X164338000Y-98552000D01*
X162814000Y-98552000D02*
X162156000Y-99210000D01*
X162156000Y-99210000D02*
X157900000Y-99210000D01*
X157900000Y-99210000D02*
X156300000Y-100810000D01*
%TO.N,FAULT*%
X151892000Y-104162000D02*
X151892000Y-100710000D01*
X151992000Y-100810000D02*
X151892000Y-100710000D01*
X153760000Y-100810000D02*
X151992000Y-100810000D01*
X154940000Y-135890000D02*
X153162000Y-134112000D01*
X153162000Y-134112000D02*
X153162000Y-105432000D01*
X153162000Y-105432000D02*
X151892000Y-104162000D01*
%TO.N,Net-(DB1-8)*%
X149606000Y-115062000D02*
X149606000Y-115316000D01*
X149606000Y-115316000D02*
X148082000Y-116840000D01*
X142494000Y-115062000D02*
X142240000Y-115062000D01*
X148082000Y-116840000D02*
X144272000Y-116840000D01*
X144272000Y-116840000D02*
X142494000Y-115062000D01*
%TO.N,TRIGGER1*%
X147828000Y-119380000D02*
X147066000Y-120142000D01*
X147066000Y-120142000D02*
X137922000Y-120142000D01*
X137922000Y-120142000D02*
X137668000Y-120396000D01*
%TO.N,TRIGGER2*%
X148844000Y-123952000D02*
X147828000Y-122936000D01*
X147828000Y-122936000D02*
X137668000Y-122936000D01*
%TO.N,SENSE3*%
X178308000Y-139192000D02*
X178308000Y-130937000D01*
X178308000Y-130937000D02*
X177693000Y-130322000D01*
X177693000Y-130322000D02*
X175875000Y-130322000D01*
X175875000Y-130322000D02*
X172847000Y-133350000D01*
X164084000Y-129286000D02*
X155194000Y-129286000D01*
X172847000Y-133350000D02*
X165989000Y-133350000D01*
X165989000Y-133350000D02*
X165100000Y-132461000D01*
X165100000Y-132461000D02*
X165100000Y-130302000D01*
X165100000Y-130302000D02*
X164084000Y-129286000D01*
X155194000Y-129286000D02*
X154432000Y-128524000D01*
X154432000Y-128524000D02*
X154432000Y-123444000D01*
X154432000Y-123444000D02*
X157226000Y-120650000D01*
X157226000Y-120650000D02*
X157226000Y-115062000D01*
%TO.N,Net-(DB1-8)*%
X137922000Y-117856000D02*
X137668000Y-117856000D01*
X142240000Y-115062000D02*
X140716000Y-115062000D01*
X140716000Y-115062000D02*
X137922000Y-117856000D01*
%TO.N,Net-(Q7-B)*%
X167386000Y-108966000D02*
X156464000Y-108966000D01*
X156464000Y-108966000D02*
X155448000Y-109982000D01*
X155448000Y-111760000D02*
X156718000Y-113030000D01*
X155448000Y-109982000D02*
X155448000Y-111760000D01*
X156718000Y-113030000D02*
X158242000Y-113030000D01*
X158242000Y-113030000D02*
X158750000Y-113538000D01*
X156464000Y-122682000D02*
X156464000Y-123952000D01*
X158750000Y-113538000D02*
X158750000Y-120396000D01*
X158750000Y-120396000D02*
X156464000Y-122682000D01*
%TO.N,Net-(DB1-9)*%
X149860000Y-110998000D02*
X148082000Y-112776000D01*
X148082000Y-112776000D02*
X144098000Y-112776000D01*
X144098000Y-112776000D02*
X142320000Y-110998000D01*
%TO.N,SENSE2*%
X157480000Y-110998000D02*
X159893000Y-110998000D01*
X159893000Y-110998000D02*
X160274000Y-110617000D01*
X174752000Y-110617000D02*
X175387000Y-109982000D01*
X160274000Y-110617000D02*
X174752000Y-110617000D01*
%TO.N,CONTINUITY3*%
X165608000Y-113538000D02*
X163068000Y-116078000D01*
X163068000Y-116078000D02*
X163068000Y-118110000D01*
X156972000Y-127508000D02*
X158242000Y-126238000D01*
X158242000Y-126238000D02*
X158242000Y-122174000D01*
X159258000Y-121158000D02*
X161544000Y-121158000D01*
X158242000Y-122174000D02*
X159258000Y-121158000D01*
X163068000Y-119634000D02*
X163068000Y-118110000D01*
X161544000Y-121158000D02*
X163068000Y-119634000D01*
X166624000Y-113538000D02*
X165608000Y-113538000D01*
%TO.N,Net-(Q7-B)*%
X166624000Y-108966000D02*
X167386000Y-108966000D01*
X167386000Y-108966000D02*
X168910000Y-108966000D01*
%TO.N,Net-(C9-Pad1)*%
X149352000Y-127508000D02*
X150876000Y-129032000D01*
X141732000Y-131826000D02*
X141732000Y-131572000D01*
X150876000Y-129032000D02*
X150876000Y-132842000D01*
X150368000Y-133350000D02*
X143256000Y-133350000D01*
X150876000Y-132842000D02*
X150368000Y-133350000D01*
X143256000Y-133350000D02*
X141732000Y-131826000D01*
%TO.N,Net-(C8-Pad1)*%
X149098000Y-88011000D02*
X150622000Y-89535000D01*
X150622000Y-89535000D02*
X150622000Y-104648000D01*
X150622000Y-104648000D02*
X151892000Y-105918000D01*
X143510000Y-136652000D02*
X141732000Y-134874000D01*
X151892000Y-105918000D02*
X151892000Y-135636000D01*
X150876000Y-136652000D02*
X143510000Y-136652000D01*
X151892000Y-135636000D02*
X150876000Y-136652000D01*
%TO.N,FAILSAFE*%
X160020000Y-127762000D02*
X160274000Y-127762000D01*
X160274000Y-127762000D02*
X160528000Y-128016000D01*
X160528000Y-128016000D02*
X165354000Y-128016000D01*
X165354000Y-128016000D02*
X166878000Y-129540000D01*
X166878000Y-129540000D02*
X166878000Y-131572000D01*
%TO.N,TRIGGER3*%
X137668000Y-125476000D02*
X143510000Y-125476000D01*
X143510000Y-125476000D02*
X149352000Y-131318000D01*
%TO.N,Net-(Q13-B)*%
X163068000Y-136144000D02*
X161798000Y-136144000D01*
X161798000Y-136144000D02*
X156972000Y-131318000D01*
%TO.N,FAULT*%
X151130000Y-146050000D02*
X149352000Y-146050000D01*
%TO.N,Net-(Q18-B)*%
X158242000Y-141732000D02*
X154940000Y-138430000D01*
%TO.N,FAULT*%
X152908000Y-144272000D02*
X151130000Y-146050000D01*
X152908000Y-137922000D02*
X152908000Y-144272000D01*
X154940000Y-135890000D02*
X152908000Y-137922000D01*
%TO.N,Net-(Q18-B)*%
X176784000Y-131572000D02*
X174879000Y-133477000D01*
X174879000Y-133477000D02*
X174879000Y-139827000D01*
X174879000Y-139827000D02*
X172974000Y-141732000D01*
X172974000Y-141732000D02*
X158242000Y-141732000D01*
%TO.N,Net-(C9-Pad1)*%
X137668000Y-130556000D02*
X137922000Y-130302000D01*
X137922000Y-130302000D02*
X140462000Y-130302000D01*
X140462000Y-130302000D02*
X141732000Y-131572000D01*
%TO.N,Net-(C8-Pad1)*%
X137668000Y-133096000D02*
X138049000Y-133096000D01*
X139700000Y-132842000D02*
X141732000Y-134874000D01*
X138049000Y-133096000D02*
X138303000Y-132842000D01*
X138303000Y-132842000D02*
X139700000Y-132842000D01*
%TO.N,Net-(C7-Pad1)*%
X141732000Y-138176000D02*
X139192000Y-135636000D01*
X139192000Y-135636000D02*
X137668000Y-135636000D01*
%TO.N,SENSEFAILSAFE*%
X141732000Y-141478000D02*
X138430000Y-138176000D01*
X138430000Y-138176000D02*
X137668000Y-138176000D01*
%TO.N,Net-(DB1-3V3-Pad1)*%
X141732000Y-146050000D02*
X137922000Y-146050000D01*
X137922000Y-146050000D02*
X137668000Y-145796000D01*
%TO.N,FAULT*%
X112268000Y-138176000D02*
X126238000Y-138176000D01*
X126238000Y-138176000D02*
X135890000Y-147828000D01*
X135890000Y-147828000D02*
X147574000Y-147828000D01*
X147574000Y-147828000D02*
X149352000Y-146050000D01*
%TO.N,Net-(Q13-C)*%
X163322000Y-131064000D02*
X163068000Y-131318000D01*
X163068000Y-131318000D02*
X163068000Y-133604000D01*
%TO.N,Net-(Q14-B)*%
X163322000Y-123444000D02*
X164846000Y-123444000D01*
X168148000Y-126746000D02*
X168656000Y-126746000D01*
X164846000Y-123444000D02*
X168148000Y-126746000D01*
%TO.N,+12V*%
X111506000Y-149098000D02*
X184404000Y-149098000D01*
X109220000Y-146812000D02*
X111506000Y-149098000D01*
X109220000Y-143002000D02*
X109220000Y-146812000D01*
X188468000Y-145034000D02*
X188468000Y-144526000D01*
X104902000Y-98044000D02*
X104902000Y-138684000D01*
X104902000Y-138684000D02*
X109220000Y-143002000D01*
X184404000Y-149098000D02*
X188468000Y-145034000D01*
D28*
X188468000Y-144526000D02*
X188976000Y-144526000D01*
X188976000Y-144526000D02*
X191262000Y-142240000D01*
X191262000Y-142240000D02*
X191262000Y-135636000D01*
D27*
%TO.N,12VRECT*%
X128778000Y-74168000D02*
X128778000Y-70866000D01*
X128778000Y-70866000D02*
X126746000Y-68834000D01*
X126746000Y-68834000D02*
X126492000Y-68834000D01*
X128778000Y-74168000D02*
X113792000Y-74168000D01*
%TO.N,Net-(Q19-B)*%
X120904000Y-69088000D02*
X121158000Y-69088000D01*
X121158000Y-69088000D02*
X124714000Y-72644000D01*
X124714000Y-72644000D02*
X125222000Y-72644000D01*
%TO.N,Net-(Q20-B)*%
X115062000Y-70104000D02*
X115316000Y-70358000D01*
X115316000Y-70358000D02*
X115824000Y-70358000D01*
X115824000Y-70358000D02*
X118110000Y-72644000D01*
X118110000Y-72644000D02*
X121920000Y-72644000D01*
%TO.N,12VRECT*%
X113792000Y-74168000D02*
X110744000Y-71120000D01*
%TO.N,Net-(D1-A)*%
X102362000Y-68072000D02*
X102108000Y-68326000D01*
X102108000Y-68326000D02*
X102108000Y-72898000D01*
X102108000Y-72898000D02*
X102870000Y-73660000D01*
%TO.N,SENSEFAILSAFE*%
X129413000Y-83439000D02*
X129540000Y-83566000D01*
X129540000Y-83566000D02*
X129540000Y-130683000D01*
X129540000Y-130683000D02*
X137033000Y-138176000D01*
X137033000Y-138176000D02*
X137668000Y-138176000D01*
%TO.N,Net-(D7-A)*%
X143256000Y-72644000D02*
X143256000Y-74422000D01*
X143256000Y-74422000D02*
X141732000Y-75946000D01*
X141732000Y-75946000D02*
X129540000Y-75946000D01*
X129540000Y-75946000D02*
X129413000Y-75819000D01*
%TO.N,Net-(C7-Pad1)*%
X132715000Y-79502000D02*
X132715000Y-131064000D01*
X132715000Y-131064000D02*
X137287000Y-135636000D01*
X137287000Y-135636000D02*
X137668000Y-135636000D01*
%TO.N,+5V*%
X110236000Y-78486000D02*
X125984000Y-78486000D01*
X125984000Y-78486000D02*
X127000000Y-77470000D01*
X127000000Y-77470000D02*
X133985000Y-77470000D01*
X133985000Y-77470000D02*
X142367000Y-85852000D01*
X142367000Y-90297000D02*
X142367000Y-85852000D01*
X137668000Y-94996000D02*
X142367000Y-90297000D01*
%TO.N,FAILSAFE*%
X176911000Y-100838000D02*
X176911000Y-110871000D01*
X171704000Y-113030000D02*
X171704000Y-121031000D01*
X176911000Y-110871000D02*
X175768000Y-112014000D01*
X175768000Y-123317000D02*
X175768000Y-127254000D01*
X175768000Y-112014000D02*
X172720000Y-112014000D01*
X172720000Y-112014000D02*
X171704000Y-113030000D01*
X171704000Y-121031000D02*
X172847000Y-122174000D01*
X174625000Y-122174000D02*
X175768000Y-123317000D01*
X172847000Y-122174000D02*
X174625000Y-122174000D01*
X175768000Y-127254000D02*
X173736000Y-129286000D01*
%TO.N,Net-(Q10-B)*%
X180975000Y-99187000D02*
X180975000Y-102108000D01*
%TO.N,SENSE2*%
X178816000Y-109982000D02*
X180086000Y-109982000D01*
X180086000Y-109982000D02*
X184404000Y-105664000D01*
X184404000Y-94234000D02*
X184277000Y-94107000D01*
%TO.N,Net-(Q10-B)*%
X180975000Y-102108000D02*
X180721000Y-102362000D01*
X180721000Y-102362000D02*
X178816000Y-102362000D01*
X179324000Y-97536000D02*
X180975000Y-99187000D01*
%TO.N,SENSE2*%
X184404000Y-105664000D02*
X184404000Y-94234000D01*
%TO.N,SENSE3*%
X180086000Y-139192000D02*
X178308000Y-139192000D01*
X178308000Y-139192000D02*
X176784000Y-139192000D01*
%TO.N,FAILSAFE*%
X173609000Y-99060000D02*
X175133000Y-99060000D01*
X175133000Y-99060000D02*
X176911000Y-100838000D01*
X173609000Y-99060000D02*
X174752000Y-99060000D01*
X174625000Y-77343000D02*
X169672000Y-72390000D01*
X174752000Y-99060000D02*
X175260000Y-98552000D01*
X172466000Y-83058000D02*
X174625000Y-80899000D01*
X175260000Y-98552000D02*
X175260000Y-92583000D01*
X175260000Y-92583000D02*
X172466000Y-89789000D01*
X172466000Y-89789000D02*
X172466000Y-83058000D01*
X174625000Y-80899000D02*
X174625000Y-77343000D01*
X169672000Y-72390000D02*
X169672000Y-70993000D01*
%TO.N,SENSE1*%
X159131000Y-80137000D02*
X154813000Y-84455000D01*
X172974000Y-80137000D02*
X159131000Y-80137000D01*
X154813000Y-84455000D02*
X154813000Y-89789000D01*
X154813000Y-89789000D02*
X156845000Y-91821000D01*
%TO.N,Net-(Q5-B)*%
X178054000Y-67292000D02*
X176149000Y-69197000D01*
X176149000Y-69197000D02*
X176149000Y-72263000D01*
X176149000Y-72263000D02*
X176403000Y-72517000D01*
%TO.N,SENSE1*%
X176403000Y-80137000D02*
X179197000Y-80137000D01*
X179197000Y-80137000D02*
X184872000Y-74462000D01*
X184872000Y-74462000D02*
X184872000Y-66254000D01*
X184872000Y-66254000D02*
X183896000Y-65278000D01*
%TO.N,Net-(DB1-10)*%
X149225000Y-91821000D02*
X149225000Y-100751000D01*
X149225000Y-100751000D02*
X142280000Y-107696000D01*
X142280000Y-107696000D02*
X137668000Y-107696000D01*
%TO.N,Net-(Q2-C)*%
X169672000Y-78613000D02*
X169672000Y-77089000D01*
X169672000Y-77089000D02*
X162560000Y-69977000D01*
X162560000Y-69977000D02*
X162560000Y-69850000D01*
X161544000Y-67310000D02*
X162560000Y-68326000D01*
X162560000Y-68326000D02*
X162560000Y-69850000D01*
%TO.N,Net-(Q2-B)*%
X166370000Y-76327000D02*
X166370000Y-78613000D01*
X162560000Y-72517000D02*
X166370000Y-76327000D01*
X162560000Y-72390000D02*
X162560000Y-72517000D01*
%TO.N,FAILSAFE*%
X158115000Y-64770000D02*
X162306000Y-64770000D01*
X162306000Y-64770000D02*
X164846000Y-67310000D01*
X169672000Y-70993000D02*
X166370000Y-70993000D01*
X164846000Y-67310000D02*
X164846000Y-69469000D01*
X164846000Y-69469000D02*
X166370000Y-70993000D01*
X172085000Y-68580000D02*
X172085000Y-68834000D01*
X172085000Y-68834000D02*
X169926000Y-70993000D01*
X169926000Y-70993000D02*
X169672000Y-70993000D01*
X158115000Y-64770000D02*
X157607000Y-64770000D01*
X157607000Y-64770000D02*
X154432000Y-67945000D01*
X154432000Y-67945000D02*
X154432000Y-72644000D01*
%TO.N,Net-(Q3-B)*%
X161544000Y-60452000D02*
X167132000Y-66040000D01*
X161544000Y-59690000D02*
X161544000Y-60452000D01*
X172085000Y-66040000D02*
X167132000Y-66040000D01*
%TO.N,Net-(Q3-E)*%
X172085000Y-63500000D02*
X167132000Y-63500000D01*
X165568000Y-61936000D02*
X167132000Y-63500000D01*
X165568000Y-59730000D02*
X165568000Y-61936000D01*
X166116000Y-59182000D02*
X165568000Y-59730000D01*
%TO.N,Net-(Q1-G)*%
X175376000Y-59048000D02*
X175242000Y-59182000D01*
X175242000Y-59182000D02*
X173736000Y-59182000D01*
X173736000Y-55626000D02*
X175376000Y-57266000D01*
X175376000Y-57266000D02*
X175376000Y-59048000D01*
%TO.N,Net-(J1-Pin_1)*%
X174752000Y-53340000D02*
X179197000Y-53340000D01*
X173609000Y-52197000D02*
X174752000Y-53340000D01*
X179197000Y-53340000D02*
X181102000Y-55245000D01*
%TO.N,CONTINUITY1*%
X165989000Y-52197000D02*
X164719000Y-52197000D01*
X164719000Y-52197000D02*
X162052000Y-54864000D01*
%TO.N,Net-(Q7-C)*%
X172212000Y-108966000D02*
X170180000Y-106934000D01*
X170180000Y-106934000D02*
X166624000Y-106934000D01*
X166624000Y-106934000D02*
X162814000Y-103124000D01*
X162814000Y-103124000D02*
X162814000Y-102616000D01*
%TO.N,FAILSAFE*%
X172212000Y-101346000D02*
X168910000Y-101346000D01*
X160274000Y-97536000D02*
X165608000Y-97536000D01*
X166624000Y-98552000D02*
X166624000Y-100330000D01*
X165608000Y-97536000D02*
X166624000Y-98552000D01*
X166624000Y-100330000D02*
X167640000Y-101346000D01*
X167640000Y-101346000D02*
X168910000Y-101346000D01*
%TO.N,Net-(Q7-B)*%
X162814000Y-105156000D02*
X166624000Y-108966000D01*
%TO.N,FAILSAFE*%
X172212000Y-101346000D02*
X172212000Y-100076000D01*
X172212000Y-100076000D02*
X173228000Y-99060000D01*
X173228000Y-99060000D02*
X173609000Y-99060000D01*
D29*
%TO.N,SENSE2*%
X184404000Y-91440000D02*
X184404000Y-93980000D01*
X183896000Y-90932000D02*
X184404000Y-91440000D01*
X184404000Y-93980000D02*
X184277000Y-94107000D01*
D27*
%TO.N,Net-(Q8-B)*%
X173609000Y-96520000D02*
X173482000Y-96393000D01*
X173482000Y-96393000D02*
X168783000Y-96393000D01*
X168783000Y-96393000D02*
X168656000Y-96520000D01*
%TO.N,Net-(Q8-E)*%
X173609000Y-93980000D02*
X173482000Y-94107000D01*
X173482000Y-94107000D02*
X168783000Y-94107000D01*
X168783000Y-94107000D02*
X168656000Y-93980000D01*
%TO.N,Net-(Q8-B)*%
X168656000Y-96520000D02*
X167386000Y-96520000D01*
X167386000Y-96520000D02*
X163576000Y-92710000D01*
%TO.N,Net-(Q8-E)*%
X166878000Y-89662000D02*
X167132000Y-89916000D01*
X167132000Y-89916000D02*
X167132000Y-92456000D01*
X167132000Y-92456000D02*
X168656000Y-93980000D01*
%TO.N,Net-(Q10-C)*%
X178816000Y-90932000D02*
X178816000Y-90043000D01*
X178816000Y-90043000D02*
X175260000Y-86487000D01*
X175260000Y-86487000D02*
X174498000Y-86487000D01*
X174498000Y-89662000D02*
X175768000Y-90932000D01*
X175768000Y-90932000D02*
X178816000Y-90932000D01*
%TO.N,CONTINUITY2*%
X167767000Y-83312000D02*
X166497000Y-83312000D01*
X166497000Y-83312000D02*
X163322000Y-86487000D01*
X163322000Y-86487000D02*
X163322000Y-87884000D01*
%TO.N,Net-(J2-Pin_1)*%
X175387000Y-83312000D02*
X175768000Y-83312000D01*
X181356000Y-88900000D02*
X181356000Y-90932000D01*
X175768000Y-83312000D02*
X181356000Y-88900000D01*
%TO.N,Net-(Q7-C)*%
X162814000Y-102616000D02*
X162814000Y-101092000D01*
X162814000Y-101092000D02*
X163576000Y-100330000D01*
%TO.N,Net-(DB1-9)*%
X137668000Y-110236000D02*
X141558000Y-110236000D01*
X141558000Y-110236000D02*
X142320000Y-110998000D01*
%TO.N,CONTINUITY2*%
X156718000Y-88011000D02*
X158877000Y-85852000D01*
X158877000Y-85852000D02*
X162052000Y-85852000D01*
X162052000Y-85852000D02*
X163322000Y-87122000D01*
X163322000Y-87122000D02*
X163322000Y-87884000D01*
%TO.N,+5V*%
X110490000Y-73660000D02*
X110490000Y-78232000D01*
X110490000Y-78232000D02*
X110236000Y-78486000D01*
%TO.N,Net-(D7-A)*%
X146812000Y-72644000D02*
X143256000Y-72644000D01*
%TO.N,+5V*%
X110236000Y-78486000D02*
X106426000Y-78486000D01*
X106426000Y-78486000D02*
X105410000Y-79502000D01*
%TO.N,12VRECT*%
X116840000Y-85344000D02*
X110998000Y-85344000D01*
X110998000Y-85344000D02*
X110236000Y-86106000D01*
X110236000Y-86106000D02*
X106934000Y-86106000D01*
X106934000Y-86106000D02*
X105410000Y-84582000D01*
X104902000Y-90424000D02*
X104902000Y-85090000D01*
X104902000Y-85090000D02*
X105410000Y-84582000D01*
D28*
%TO.N,+12V*%
X191008000Y-79502000D02*
X195580000Y-79502000D01*
X191516000Y-108458000D02*
X196596000Y-108458000D01*
X191262000Y-135636000D02*
X195326000Y-135636000D01*
D27*
%TO.N,Net-(Q13-C)*%
X163068000Y-133604000D02*
X164846000Y-133604000D01*
X164846000Y-133604000D02*
X170180000Y-138938000D01*
X170180000Y-138938000D02*
X170180000Y-139192000D01*
%TO.N,FAILSAFE*%
X170180000Y-131572000D02*
X166878000Y-131572000D01*
%TO.N,Net-(Q13-B)*%
X163068000Y-136144000D02*
X164084000Y-136144000D01*
X164084000Y-136144000D02*
X166878000Y-138938000D01*
X166878000Y-138938000D02*
X166878000Y-139192000D01*
%TO.N,FAILSAFE*%
X170180000Y-131318000D02*
X170180000Y-131572000D01*
X173736000Y-129286000D02*
X172212000Y-129286000D01*
X172212000Y-129286000D02*
X170180000Y-131318000D01*
%TO.N,Net-(Q14-E)*%
X173736000Y-124206000D02*
X173482000Y-124460000D01*
X173482000Y-124460000D02*
X168910000Y-124460000D01*
X168910000Y-124460000D02*
X168656000Y-124206000D01*
%TO.N,Net-(Q14-B)*%
X173736000Y-126746000D02*
X173482000Y-127000000D01*
X173482000Y-127000000D02*
X168910000Y-127000000D01*
X168910000Y-127000000D02*
X168656000Y-126746000D01*
%TO.N,Net-(Q16-B)*%
X181356000Y-128778000D02*
X179324000Y-126746000D01*
X180086000Y-131572000D02*
X181356000Y-130302000D01*
%TO.N,SENSE3*%
X180086000Y-139192000D02*
X180086000Y-138684000D01*
X180086000Y-138684000D02*
X184404000Y-134366000D01*
X184404000Y-134366000D02*
X184404000Y-121666000D01*
%TO.N,Net-(Q16-B)*%
X181356000Y-130302000D02*
X181356000Y-128778000D01*
D29*
%TO.N,SENSE3*%
X184404000Y-121666000D02*
X184404000Y-119380000D01*
X184404000Y-119380000D02*
X183388000Y-118364000D01*
D27*
%TO.N,Net-(Q16-C)*%
X178308000Y-123190000D02*
X179324000Y-124206000D01*
X178308000Y-118364000D02*
X178308000Y-123190000D01*
%TO.N,Net-(Q14-E)*%
X168402000Y-123952000D02*
X168402000Y-121920000D01*
X168656000Y-124206000D02*
X168402000Y-123952000D01*
X168402000Y-121920000D02*
X166624000Y-120142000D01*
%TO.N,Net-(Q16-C)*%
X178308000Y-118364000D02*
X176530000Y-118364000D01*
X176530000Y-118364000D02*
X174752000Y-120142000D01*
X174752000Y-120142000D02*
X174244000Y-120142000D01*
X174244000Y-116840000D02*
X174244000Y-120142000D01*
%TO.N,Net-(J3-Pin_1)*%
X174244000Y-113538000D02*
X175514000Y-114808000D01*
X175514000Y-114808000D02*
X178792000Y-114808000D01*
X178792000Y-114808000D02*
X180848000Y-116864000D01*
X180848000Y-116864000D02*
X180848000Y-118364000D01*
D29*
X191262000Y-120396000D02*
X190246000Y-120396000D01*
X190246000Y-120396000D02*
X185420000Y-115570000D01*
X185420000Y-115570000D02*
X181864000Y-115570000D01*
X181864000Y-115570000D02*
X180848000Y-116586000D01*
X180848000Y-116586000D02*
X180848000Y-118364000D01*
%TO.N,Net-(J1-Pin_1)*%
X181102000Y-57658000D02*
X181102000Y-55245000D01*
X187960000Y-55372000D02*
X187960000Y-61214000D01*
X181102000Y-55245000D02*
X182245000Y-54102000D01*
X182245000Y-54102000D02*
X186690000Y-54102000D01*
X186690000Y-54102000D02*
X187960000Y-55372000D01*
X187960000Y-61214000D02*
X191008000Y-64262000D01*
D27*
%TO.N,Net-(Q1-G)*%
X177760000Y-58460000D02*
X177760000Y-64458000D01*
D29*
%TO.N,SENSE1*%
X183896000Y-61403000D02*
X185126000Y-62633000D01*
D27*
%TO.N,Net-(Q1-G)*%
X177760000Y-64458000D02*
X178054000Y-64752000D01*
D29*
%TO.N,SENSE1*%
X183896000Y-57912000D02*
X183896000Y-61403000D01*
X185126000Y-62633000D02*
X185126000Y-64048000D01*
D27*
%TO.N,Net-(Q1-G)*%
X178562000Y-57658000D02*
X177760000Y-58460000D01*
D29*
%TO.N,SENSE1*%
X183642000Y-57658000D02*
X183896000Y-57912000D01*
X185126000Y-64048000D02*
X183896000Y-65278000D01*
D27*
%TO.N,Net-(Q1-G)*%
X178562000Y-57658000D02*
X176766000Y-57658000D01*
X176766000Y-57658000D02*
X175376000Y-59048000D01*
D29*
%TO.N,Net-(J2-Pin_1)*%
X181356000Y-90932000D02*
X181356000Y-89916000D01*
X181356000Y-89916000D02*
X184150000Y-87122000D01*
X191516000Y-90170000D02*
X191516000Y-93218000D01*
X184150000Y-87122000D02*
X188468000Y-87122000D01*
X188468000Y-87122000D02*
X191516000Y-90170000D01*
D27*
%TO.N,Net-(Q10-C)*%
X178816000Y-90932000D02*
X178816000Y-94488000D01*
X178816000Y-94488000D02*
X179324000Y-94996000D01*
%TD*%
%TA.AperFunction,Conductor*%
%TO.N,+12V*%
G36*
X199442539Y-59019685D02*
G01*
X199488294Y-59072489D01*
X199499500Y-59124000D01*
X199499500Y-141876000D01*
X199479815Y-141943039D01*
X199427011Y-141988794D01*
X199375500Y-142000000D01*
X194124000Y-142000000D01*
X194056961Y-141980315D01*
X194011206Y-141927511D01*
X194000000Y-141876000D01*
X194000000Y-59124000D01*
X194019685Y-59056961D01*
X194072489Y-59011206D01*
X194124000Y-59000000D01*
X199375500Y-59000000D01*
X199442539Y-59019685D01*
G37*
%TD.AperFunction*%
%TD*%
M02*
