%TF.GenerationSoftware,KiCad,Pcbnew,7.0.11+dfsg-1build4*%
%TF.CreationDate,2026-07-07T07:51:50-05:00*%
%TF.ProjectId,Boomslang,426f6f6d-736c-4616-9e67-2e6b69636164,rev?*%
%TF.SameCoordinates,Original*%
%TF.FileFunction,Drillmap*%
%TF.FilePolarity,Positive*%
%FSLAX45Y45*%
G04 Gerber Fmt 4.5, Leading zero omitted, Abs format (unit mm)*
G04 Created by KiCad (PCBNEW 7.0.11+dfsg-1build4) date 2026-07-07 07:51:50*
%MOMM*%
%LPD*%
G01*
G04 APERTURE LIST*
%ADD10C,0.050000*%
%ADD11C,0.200000*%
%ADD12C,0.100000*%
%ADD13C,0.110000*%
%ADD14C,0.120000*%
%ADD15C,0.152000*%
G04 APERTURE END LIST*
D10*
X10000000Y-5000000D02*
X20000000Y-5000000D01*
X20000000Y-15000000D01*
X10000000Y-15000000D01*
X10000000Y-5000000D01*
D11*
D12*
X10247000Y-7326000D02*
X10327000Y-7406000D01*
X10327000Y-7326000D02*
X10247000Y-7406000D01*
X10424800Y-12634600D02*
X10504800Y-12714600D01*
X10504800Y-12634600D02*
X10424800Y-12714600D01*
X10424800Y-13396600D02*
X10504800Y-13476600D01*
X10504800Y-13396600D02*
X10424800Y-13476600D01*
X10755000Y-12634600D02*
X10835000Y-12714600D01*
X10835000Y-12634600D02*
X10755000Y-12714600D01*
X10755000Y-13396600D02*
X10835000Y-13476600D01*
X10835000Y-13396600D02*
X10755000Y-13476600D01*
X10755000Y-13625200D02*
X10835000Y-13705200D01*
X10835000Y-13625200D02*
X10755000Y-13705200D01*
X10755000Y-14125200D02*
X10835000Y-14205200D01*
X10835000Y-14125200D02*
X10755000Y-14205200D01*
X11009000Y-7326000D02*
X11089000Y-7406000D01*
X11089000Y-7326000D02*
X11009000Y-7406000D01*
X11466200Y-6716400D02*
X11546200Y-6796400D01*
X11546200Y-6716400D02*
X11466200Y-6796400D01*
X11466200Y-6970400D02*
X11546200Y-7050400D01*
X11546200Y-6970400D02*
X11466200Y-7050400D01*
X11466200Y-7224400D02*
X11546200Y-7304400D01*
X11546200Y-7224400D02*
X11466200Y-7304400D01*
X11644000Y-8244400D02*
X11724000Y-8324400D01*
X11724000Y-8244400D02*
X11644000Y-8324400D01*
X11644000Y-8494400D02*
X11724000Y-8574400D01*
X11724000Y-8494400D02*
X11644000Y-8574400D01*
X11796400Y-6868800D02*
X11876400Y-6948800D01*
X11876400Y-6868800D02*
X11796400Y-6948800D01*
X12050400Y-6868800D02*
X12130400Y-6948800D01*
X12130400Y-6868800D02*
X12050400Y-6948800D01*
X12152000Y-7224400D02*
X12232000Y-7304400D01*
X12232000Y-7224400D02*
X12152000Y-7304400D01*
X12152000Y-7986400D02*
X12232000Y-8066400D01*
X12232000Y-7986400D02*
X12152000Y-8066400D01*
X12304400Y-6868800D02*
X12384400Y-6948800D01*
X12384400Y-6868800D02*
X12304400Y-6948800D01*
X12482200Y-7224400D02*
X12562200Y-7304400D01*
X12562200Y-7224400D02*
X12482200Y-7304400D01*
X12482200Y-7986400D02*
X12562200Y-8066400D01*
X12562200Y-7986400D02*
X12482200Y-8066400D01*
X12609200Y-6843400D02*
X12689200Y-6923400D01*
X12689200Y-6843400D02*
X12609200Y-6923400D01*
X12710800Y-8621400D02*
X12790800Y-8701400D01*
X12790800Y-8621400D02*
X12710800Y-8701400D01*
X12901300Y-7541900D02*
X12981300Y-7621900D01*
X12981300Y-7541900D02*
X12901300Y-7621900D01*
X12901300Y-8303900D02*
X12981300Y-8383900D01*
X12981300Y-8303900D02*
X12901300Y-8383900D01*
X13231500Y-7148200D02*
X13311500Y-7228200D01*
X13311500Y-7148200D02*
X13231500Y-7228200D01*
X13231500Y-7910200D02*
X13311500Y-7990200D01*
X13311500Y-7910200D02*
X13231500Y-7990200D01*
X13371200Y-6843400D02*
X13451200Y-6923400D01*
X13451200Y-6843400D02*
X13371200Y-6923400D01*
X13472800Y-8621400D02*
X13552800Y-8701400D01*
X13552800Y-8621400D02*
X13472800Y-8701400D01*
X14133200Y-13117200D02*
X14213200Y-13197200D01*
X14213200Y-13117200D02*
X14133200Y-13197200D01*
X14133200Y-13447400D02*
X14213200Y-13527400D01*
X14213200Y-13447400D02*
X14133200Y-13527400D01*
X14133200Y-13777600D02*
X14213200Y-13857600D01*
X14213200Y-13777600D02*
X14133200Y-13857600D01*
X14133200Y-14107800D02*
X14213200Y-14187800D01*
X14213200Y-14107800D02*
X14133200Y-14187800D01*
X14133200Y-14565000D02*
X14213200Y-14645000D01*
X14213200Y-14565000D02*
X14133200Y-14645000D01*
X14184000Y-11466200D02*
X14264000Y-11546200D01*
X14264000Y-11466200D02*
X14184000Y-11546200D01*
X14188000Y-10729600D02*
X14268000Y-10809600D01*
X14268000Y-10729600D02*
X14188000Y-10809600D01*
X14192000Y-11059800D02*
X14272000Y-11139800D01*
X14272000Y-11059800D02*
X14192000Y-11139800D01*
X14196700Y-8295200D02*
X14276700Y-8375200D01*
X14276700Y-8295200D02*
X14196700Y-8375200D01*
X14196700Y-8545200D02*
X14276700Y-8625200D01*
X14276700Y-8545200D02*
X14196700Y-8625200D01*
X14633200Y-13117200D02*
X14713200Y-13197200D01*
X14713200Y-13117200D02*
X14633200Y-13197200D01*
X14633200Y-13447400D02*
X14713200Y-13527400D01*
X14713200Y-13447400D02*
X14633200Y-13527400D01*
X14633200Y-13777600D02*
X14713200Y-13857600D01*
X14713200Y-13777600D02*
X14633200Y-13857600D01*
X14633200Y-14107800D02*
X14713200Y-14187800D01*
X14713200Y-14107800D02*
X14633200Y-14187800D01*
X14641200Y-7224400D02*
X14721200Y-7304400D01*
X14721200Y-7224400D02*
X14641200Y-7304400D01*
X14684000Y-11466200D02*
X14764000Y-11546200D01*
X14764000Y-11466200D02*
X14684000Y-11546200D01*
X14688000Y-10729600D02*
X14768000Y-10809600D01*
X14768000Y-10729600D02*
X14688000Y-10809600D01*
X14692000Y-11059800D02*
X14772000Y-11139800D01*
X14772000Y-11059800D02*
X14692000Y-11139800D01*
X14742800Y-11898000D02*
X14822800Y-11978000D01*
X14822800Y-11898000D02*
X14742800Y-11978000D01*
X14844400Y-12355200D02*
X14924400Y-12435200D01*
X14924400Y-12355200D02*
X14844400Y-12435200D01*
X14869800Y-8761100D02*
X14949800Y-8841100D01*
X14949800Y-8761100D02*
X14869800Y-8841100D01*
X14869800Y-13091800D02*
X14949800Y-13171800D01*
X14949800Y-13091800D02*
X14869800Y-13171800D01*
X14882500Y-9142100D02*
X14962500Y-9222100D01*
X14962500Y-9142100D02*
X14882500Y-9222100D01*
X14895200Y-12710800D02*
X14975200Y-12790800D01*
X14975200Y-12710800D02*
X14895200Y-12790800D01*
X14895200Y-14565000D02*
X14975200Y-14645000D01*
X14975200Y-14565000D02*
X14895200Y-14645000D01*
X14920600Y-11466200D02*
X15000600Y-11546200D01*
X15000600Y-11466200D02*
X14920600Y-11546200D01*
X14946000Y-11059800D02*
X15026000Y-11139800D01*
X15026000Y-11059800D02*
X14946000Y-11139800D01*
X15336000Y-10041000D02*
X15416000Y-10121000D01*
X15416000Y-10041000D02*
X15336000Y-10121000D01*
X15403200Y-5116200D02*
X15483200Y-5196200D01*
X15483200Y-5116200D02*
X15403200Y-5196200D01*
X15403200Y-5878200D02*
X15483200Y-5958200D01*
X15483200Y-5878200D02*
X15403200Y-5958200D01*
X15403200Y-6157600D02*
X15483200Y-6237600D01*
X15483200Y-6157600D02*
X15403200Y-6237600D01*
X15403200Y-6411600D02*
X15483200Y-6491600D01*
X15483200Y-6411600D02*
X15403200Y-6491600D01*
X15403200Y-6665600D02*
X15483200Y-6745600D01*
X15483200Y-6665600D02*
X15403200Y-6745600D01*
X15403200Y-7224400D02*
X15483200Y-7304400D01*
X15483200Y-7224400D02*
X15403200Y-7304400D01*
X15454000Y-14184000D02*
X15534000Y-14264000D01*
X15534000Y-14184000D02*
X15454000Y-14264000D01*
X15454000Y-14438000D02*
X15534000Y-14518000D01*
X15534000Y-14438000D02*
X15454000Y-14518000D01*
X15454000Y-14692000D02*
X15534000Y-14772000D01*
X15534000Y-14692000D02*
X15454000Y-14772000D01*
X15504800Y-11898000D02*
X15584800Y-11978000D01*
X15584800Y-11898000D02*
X15504800Y-11978000D01*
X15504800Y-13371200D02*
X15584800Y-13451200D01*
X15584800Y-13371200D02*
X15504800Y-13451200D01*
X15504800Y-13625200D02*
X15584800Y-13705200D01*
X15584800Y-13625200D02*
X15504800Y-13705200D01*
X15504800Y-13879200D02*
X15584800Y-13959200D01*
X15584800Y-13879200D02*
X15504800Y-13959200D01*
X15581000Y-8113400D02*
X15661000Y-8193400D01*
X15661000Y-8113400D02*
X15581000Y-8193400D01*
X15590000Y-10041000D02*
X15670000Y-10121000D01*
X15670000Y-10041000D02*
X15590000Y-10121000D01*
X15606400Y-12355200D02*
X15686400Y-12435200D01*
X15686400Y-12355200D02*
X15606400Y-12435200D01*
X15631800Y-8761100D02*
X15711800Y-8841100D01*
X15711800Y-8761100D02*
X15631800Y-8841100D01*
X15631800Y-13091800D02*
X15711800Y-13171800D01*
X15711800Y-13091800D02*
X15631800Y-13171800D01*
X15644500Y-9142100D02*
X15724500Y-9222100D01*
X15724500Y-9142100D02*
X15644500Y-9222100D01*
X15657200Y-12710800D02*
X15737200Y-12790800D01*
X15737200Y-12710800D02*
X15657200Y-12790800D01*
X15682600Y-11466200D02*
X15762600Y-11546200D01*
X15762600Y-11466200D02*
X15682600Y-11546200D01*
X15708000Y-11059800D02*
X15788000Y-11139800D01*
X15788000Y-11059800D02*
X15708000Y-11139800D01*
X15771500Y-5937000D02*
X15851500Y-6017000D01*
X15851500Y-5937000D02*
X15771500Y-6017000D01*
X15771500Y-6437000D02*
X15851500Y-6517000D01*
X15851500Y-6437000D02*
X15771500Y-6517000D01*
X15835000Y-6945000D02*
X15915000Y-7025000D01*
X15915000Y-6945000D02*
X15835000Y-7025000D01*
X15835000Y-7199000D02*
X15915000Y-7279000D01*
X15915000Y-7199000D02*
X15835000Y-7279000D01*
X15835000Y-7453000D02*
X15915000Y-7533000D01*
X15915000Y-7453000D02*
X15835000Y-7533000D01*
X15844000Y-10041000D02*
X15924000Y-10121000D01*
X15924000Y-10041000D02*
X15844000Y-10121000D01*
X15962000Y-12236200D02*
X16042000Y-12316200D01*
X16042000Y-12236200D02*
X15962000Y-12316200D01*
X15962000Y-12736200D02*
X16042000Y-12816200D01*
X16042000Y-12736200D02*
X15962000Y-12816200D01*
X15962000Y-12999000D02*
X16042000Y-13079000D01*
X16042000Y-12999000D02*
X15962000Y-13079000D01*
X15962000Y-13761000D02*
X16042000Y-13841000D01*
X16042000Y-13761000D02*
X15962000Y-13841000D01*
X15987400Y-9213600D02*
X16067400Y-9293600D01*
X16067400Y-9213600D02*
X15987400Y-9293600D01*
X15987400Y-9713600D02*
X16067400Y-9793600D01*
X16067400Y-9713600D02*
X15987400Y-9793600D01*
X16010000Y-11174000D02*
X16090000Y-11254000D01*
X16090000Y-11174000D02*
X16010000Y-11254000D01*
X16059000Y-14568000D02*
X16139000Y-14648000D01*
X16139000Y-14568000D02*
X16059000Y-14648000D01*
X16114400Y-5929000D02*
X16194400Y-6009000D01*
X16194400Y-5929000D02*
X16114400Y-6009000D01*
X16114400Y-6691000D02*
X16194400Y-6771000D01*
X16194400Y-6691000D02*
X16114400Y-6771000D01*
X16241400Y-10221600D02*
X16321400Y-10301600D01*
X16321400Y-10221600D02*
X16241400Y-10301600D01*
X16241400Y-10475600D02*
X16321400Y-10555600D01*
X16321400Y-10475600D02*
X16241400Y-10555600D01*
X16241400Y-10729600D02*
X16321400Y-10809600D01*
X16321400Y-10729600D02*
X16241400Y-10809600D01*
X16293000Y-13519000D02*
X16373000Y-13599000D01*
X16373000Y-13519000D02*
X16293000Y-13599000D01*
X16293000Y-14281000D02*
X16373000Y-14361000D01*
X16373000Y-14281000D02*
X16293000Y-14361000D01*
X16317600Y-9231000D02*
X16397600Y-9311000D01*
X16397600Y-9231000D02*
X16317600Y-9311000D01*
X16317600Y-9993000D02*
X16397600Y-10073000D01*
X16397600Y-9993000D02*
X16317600Y-10073000D01*
X16343000Y-7046600D02*
X16423000Y-7126600D01*
X16423000Y-7046600D02*
X16343000Y-7126600D01*
X16343000Y-7808600D02*
X16423000Y-7888600D01*
X16423000Y-7808600D02*
X16343000Y-7888600D01*
X16343000Y-8113400D02*
X16423000Y-8193400D01*
X16423000Y-8113400D02*
X16343000Y-8193400D01*
X16359000Y-12635000D02*
X16439000Y-12715000D01*
X16439000Y-12635000D02*
X16359000Y-12715000D01*
X16359000Y-12889000D02*
X16439000Y-12969000D01*
X16439000Y-12889000D02*
X16359000Y-12969000D01*
X16359000Y-13143000D02*
X16439000Y-13223000D01*
X16439000Y-13143000D02*
X16359000Y-13223000D01*
X16546200Y-8596000D02*
X16626200Y-8676000D01*
X16626200Y-8596000D02*
X16546200Y-8676000D01*
X16546200Y-8926200D02*
X16626200Y-9006200D01*
X16626200Y-8926200D02*
X16546200Y-9006200D01*
X16558900Y-5179700D02*
X16638900Y-5259700D01*
X16638900Y-5179700D02*
X16558900Y-5259700D01*
X16571600Y-5522600D02*
X16651600Y-5602600D01*
X16651600Y-5522600D02*
X16571600Y-5602600D01*
X16571600Y-5878200D02*
X16651600Y-5958200D01*
X16651600Y-5878200D02*
X16571600Y-5958200D01*
X16571600Y-8265800D02*
X16651600Y-8345800D01*
X16651600Y-8265800D02*
X16571600Y-8345800D01*
X16614000Y-13523000D02*
X16694000Y-13603000D01*
X16694000Y-13523000D02*
X16614000Y-13603000D01*
X16614000Y-14285000D02*
X16694000Y-14365000D01*
X16694000Y-14285000D02*
X16614000Y-14365000D01*
X16622400Y-11542400D02*
X16702400Y-11622400D01*
X16702400Y-11542400D02*
X16622400Y-11622400D01*
X16622400Y-11872600D02*
X16702400Y-11952600D01*
X16702400Y-11872600D02*
X16622400Y-11952600D01*
X16673200Y-6310000D02*
X16753200Y-6390000D01*
X16753200Y-6310000D02*
X16673200Y-6390000D01*
X16673200Y-6564000D02*
X16753200Y-6644000D01*
X16753200Y-6564000D02*
X16673200Y-6644000D01*
X16673200Y-6818000D02*
X16753200Y-6898000D01*
X16753200Y-6818000D02*
X16673200Y-6898000D01*
X16673200Y-7059300D02*
X16753200Y-7139300D01*
X16753200Y-7059300D02*
X16673200Y-7139300D01*
X16673200Y-7821300D02*
X16753200Y-7901300D01*
X16753200Y-7821300D02*
X16673200Y-7901300D01*
X16698600Y-10094600D02*
X16778600Y-10174600D01*
X16778600Y-10094600D02*
X16698600Y-10174600D01*
X16698600Y-10856600D02*
X16778600Y-10936600D01*
X16778600Y-10856600D02*
X16698600Y-10936600D01*
X16749400Y-9358000D02*
X16829400Y-9438000D01*
X16829400Y-9358000D02*
X16749400Y-9438000D01*
X16749400Y-9612000D02*
X16829400Y-9692000D01*
X16829400Y-9612000D02*
X16749400Y-9692000D01*
X16749400Y-9866000D02*
X16829400Y-9946000D01*
X16829400Y-9866000D02*
X16749400Y-9946000D01*
X16772000Y-11174000D02*
X16852000Y-11254000D01*
X16852000Y-11174000D02*
X16772000Y-11254000D01*
X16821000Y-14568000D02*
X16901000Y-14648000D01*
X16901000Y-14568000D02*
X16821000Y-14648000D01*
X16851000Y-12635000D02*
X16931000Y-12715000D01*
X16931000Y-12635000D02*
X16851000Y-12715000D01*
X16851000Y-12889000D02*
X16931000Y-12969000D01*
X16931000Y-12889000D02*
X16851000Y-12969000D01*
X16851000Y-13143000D02*
X16931000Y-13223000D01*
X16931000Y-13143000D02*
X16851000Y-13223000D01*
X16946000Y-13518000D02*
X17026000Y-13598000D01*
X17026000Y-13518000D02*
X16946000Y-13598000D01*
X16946000Y-14280000D02*
X17026000Y-14360000D01*
X17026000Y-14280000D02*
X16946000Y-14360000D01*
X17028800Y-7046600D02*
X17108800Y-7126600D01*
X17108800Y-7046600D02*
X17028800Y-7126600D01*
X17028800Y-7808600D02*
X17108800Y-7888600D01*
X17108800Y-7808600D02*
X17028800Y-7888600D01*
X17028800Y-10094600D02*
X17108800Y-10174600D01*
X17108800Y-10094600D02*
X17028800Y-10174600D01*
X17028800Y-10856600D02*
X17108800Y-10936600D01*
X17108800Y-10856600D02*
X17028800Y-10936600D01*
X17155800Y-11237600D02*
X17235800Y-11317600D01*
X17235800Y-11237600D02*
X17155800Y-11317600D01*
X17168500Y-6310000D02*
X17248500Y-6390000D01*
X17248500Y-6310000D02*
X17168500Y-6390000D01*
X17168500Y-6564000D02*
X17248500Y-6644000D01*
X17248500Y-6564000D02*
X17168500Y-6644000D01*
X17168500Y-6818000D02*
X17248500Y-6898000D01*
X17248500Y-6818000D02*
X17168500Y-6898000D01*
X17257400Y-9358000D02*
X17337400Y-9438000D01*
X17337400Y-9358000D02*
X17257400Y-9438000D01*
X17257400Y-9612000D02*
X17337400Y-9692000D01*
X17337400Y-9612000D02*
X17257400Y-9692000D01*
X17257400Y-9866000D02*
X17337400Y-9946000D01*
X17337400Y-9866000D02*
X17257400Y-9946000D01*
X17308200Y-8596000D02*
X17388200Y-8676000D01*
X17388200Y-8596000D02*
X17308200Y-8676000D01*
X17308200Y-8926200D02*
X17388200Y-9006200D01*
X17388200Y-8926200D02*
X17308200Y-9006200D01*
X17320900Y-5179700D02*
X17400900Y-5259700D01*
X17400900Y-5179700D02*
X17320900Y-5259700D01*
X17333600Y-5522600D02*
X17413600Y-5602600D01*
X17413600Y-5522600D02*
X17333600Y-5602600D01*
X17333600Y-5878200D02*
X17413600Y-5958200D01*
X17413600Y-5878200D02*
X17333600Y-5958200D01*
X17333600Y-8265800D02*
X17413600Y-8345800D01*
X17413600Y-8265800D02*
X17333600Y-8345800D01*
X17359000Y-7046600D02*
X17439000Y-7126600D01*
X17439000Y-7046600D02*
X17359000Y-7126600D01*
X17359000Y-7808600D02*
X17439000Y-7888600D01*
X17439000Y-7808600D02*
X17359000Y-7888600D01*
X17359000Y-10094600D02*
X17439000Y-10174600D01*
X17439000Y-10094600D02*
X17359000Y-10174600D01*
X17359000Y-10856600D02*
X17439000Y-10936600D01*
X17439000Y-10856600D02*
X17359000Y-10936600D01*
X17384400Y-11542400D02*
X17464400Y-11622400D01*
X17464400Y-11542400D02*
X17384400Y-11622400D01*
X17384400Y-11872600D02*
X17464400Y-11952600D01*
X17464400Y-11872600D02*
X17384400Y-11952600D01*
X17420000Y-12634000D02*
X17500000Y-12714000D01*
X17500000Y-12634000D02*
X17420000Y-12714000D01*
X17420000Y-12888000D02*
X17500000Y-12968000D01*
X17500000Y-12888000D02*
X17420000Y-12968000D01*
X17420000Y-13142000D02*
X17500000Y-13222000D01*
X17500000Y-13142000D02*
X17420000Y-13222000D01*
X17502000Y-12231000D02*
X17582000Y-12311000D01*
X17582000Y-12231000D02*
X17502000Y-12311000D01*
X17587600Y-8596000D02*
X17667600Y-8676000D01*
X17667600Y-8596000D02*
X17587600Y-8676000D01*
X17714600Y-10196200D02*
X17794600Y-10276200D01*
X17794600Y-10196200D02*
X17714600Y-10276200D01*
X17714600Y-10958200D02*
X17794600Y-11038200D01*
X17794600Y-10958200D02*
X17714600Y-11038200D01*
X17740000Y-5903600D02*
X17820000Y-5983600D01*
X17820000Y-5903600D02*
X17740000Y-5983600D01*
X17740000Y-6157600D02*
X17820000Y-6237600D01*
X17820000Y-6157600D02*
X17740000Y-6237600D01*
X17740000Y-6411600D02*
X17820000Y-6491600D01*
X17820000Y-6411600D02*
X17740000Y-6491600D01*
X17816200Y-9459600D02*
X17896200Y-9539600D01*
X17896200Y-9459600D02*
X17816200Y-9539600D01*
X17816200Y-9713600D02*
X17896200Y-9793600D01*
X17896200Y-9713600D02*
X17816200Y-9793600D01*
X17816200Y-9967600D02*
X17896200Y-10047600D01*
X17896200Y-9967600D02*
X17816200Y-10047600D01*
X17824200Y-7656200D02*
X17904200Y-7736200D01*
X17904200Y-7656200D02*
X17824200Y-7736200D01*
X17841600Y-8164200D02*
X17921600Y-8244200D01*
X17921600Y-8164200D02*
X17841600Y-8244200D01*
X17917800Y-11237600D02*
X17997800Y-11317600D01*
X17997800Y-11237600D02*
X17917800Y-11317600D01*
X17917800Y-12609200D02*
X17997800Y-12689200D01*
X17997800Y-12609200D02*
X17917800Y-12689200D01*
X17917800Y-13879200D02*
X17997800Y-13959200D01*
X17997800Y-13879200D02*
X17917800Y-13959200D01*
X18002000Y-12231000D02*
X18082000Y-12311000D01*
X18082000Y-12231000D02*
X18002000Y-12311000D01*
X18324200Y-7656200D02*
X18404200Y-7736200D01*
X18404200Y-7656200D02*
X18324200Y-7736200D01*
X18857600Y-8596000D02*
X18937600Y-8676000D01*
X18937600Y-8596000D02*
X18857600Y-8676000D01*
X19111600Y-8164200D02*
X19191600Y-8244200D01*
X19191600Y-8164200D02*
X19111600Y-8244200D01*
X19137000Y-8553200D02*
X19217000Y-8633200D01*
X19217000Y-8553200D02*
X19137000Y-8633200D01*
X19137000Y-9053200D02*
X19217000Y-9133200D01*
X19217000Y-9053200D02*
X19137000Y-9133200D01*
X10281200Y-6807200D02*
G75*
G03*
X10191200Y-6807200I-45000J0D01*
G01*
X10191200Y-6807200D02*
G75*
G03*
X10281200Y-6807200I45000J0D01*
G01*
X10535200Y-6807200D02*
G75*
G03*
X10445200Y-6807200I-45000J0D01*
G01*
X10445200Y-6807200D02*
G75*
G03*
X10535200Y-6807200I45000J0D01*
G01*
X12911000Y-5501000D02*
G75*
G03*
X12821000Y-5501000I-45000J0D01*
G01*
X12821000Y-5501000D02*
G75*
G03*
X12911000Y-5501000I45000J0D01*
G01*
X13165000Y-5501000D02*
G75*
G03*
X13075000Y-5501000I-45000J0D01*
G01*
X13075000Y-5501000D02*
G75*
G03*
X13165000Y-5501000I45000J0D01*
G01*
X13478000Y-6198000D02*
G75*
G03*
X13388000Y-6198000I-45000J0D01*
G01*
X13388000Y-6198000D02*
G75*
G03*
X13478000Y-6198000I45000J0D01*
G01*
X13581000Y-5505000D02*
G75*
G03*
X13491000Y-5505000I-45000J0D01*
G01*
X13491000Y-5505000D02*
G75*
G03*
X13581000Y-5505000I45000J0D01*
G01*
X13732000Y-6198000D02*
G75*
G03*
X13642000Y-6198000I-45000J0D01*
G01*
X13642000Y-6198000D02*
G75*
G03*
X13732000Y-6198000I45000J0D01*
G01*
X13835000Y-5505000D02*
G75*
G03*
X13745000Y-5505000I-45000J0D01*
G01*
X13745000Y-5505000D02*
G75*
G03*
X13835000Y-5505000I45000J0D01*
G01*
X14116600Y-7264400D02*
G75*
G03*
X14026600Y-7264400I-45000J0D01*
G01*
X14026600Y-7264400D02*
G75*
G03*
X14116600Y-7264400I45000J0D01*
G01*
X14370600Y-7264400D02*
G75*
G03*
X14280600Y-7264400I-45000J0D01*
G01*
X14280600Y-7264400D02*
G75*
G03*
X14370600Y-7264400I45000J0D01*
G01*
X15996200Y-5486400D02*
G75*
G03*
X15906200Y-5486400I-45000J0D01*
G01*
X15906200Y-5486400D02*
G75*
G03*
X15996200Y-5486400I45000J0D01*
G01*
X16047000Y-8788400D02*
G75*
G03*
X15957000Y-8788400I-45000J0D01*
G01*
X15957000Y-8788400D02*
G75*
G03*
X16047000Y-8788400I45000J0D01*
G01*
X16098000Y-11832000D02*
G75*
G03*
X16008000Y-11832000I-45000J0D01*
G01*
X16008000Y-11832000D02*
G75*
G03*
X16098000Y-11832000I45000J0D01*
G01*
X16250200Y-5486400D02*
G75*
G03*
X16160200Y-5486400I-45000J0D01*
G01*
X16160200Y-5486400D02*
G75*
G03*
X16250200Y-5486400I45000J0D01*
G01*
X16301000Y-8788400D02*
G75*
G03*
X16211000Y-8788400I-45000J0D01*
G01*
X16211000Y-8788400D02*
G75*
G03*
X16301000Y-8788400I45000J0D01*
G01*
X16352000Y-11832000D02*
G75*
G03*
X16262000Y-11832000I-45000J0D01*
G01*
X16262000Y-11832000D02*
G75*
G03*
X16352000Y-11832000I45000J0D01*
G01*
X11226800Y-9195600D02*
X11226800Y-9295600D01*
X11176800Y-9245600D02*
X11276800Y-9245600D01*
X11226800Y-9449600D02*
X11226800Y-9549600D01*
X11176800Y-9499600D02*
X11276800Y-9499600D01*
X11226800Y-9703600D02*
X11226800Y-9803600D01*
X11176800Y-9753600D02*
X11276800Y-9753600D01*
X11226800Y-9957600D02*
X11226800Y-10057600D01*
X11176800Y-10007600D02*
X11276800Y-10007600D01*
X11226800Y-10211600D02*
X11226800Y-10311600D01*
X11176800Y-10261600D02*
X11276800Y-10261600D01*
X11226800Y-10465600D02*
X11226800Y-10565600D01*
X11176800Y-10515600D02*
X11276800Y-10515600D01*
X11226800Y-10719600D02*
X11226800Y-10819600D01*
X11176800Y-10769600D02*
X11276800Y-10769600D01*
X11226800Y-10973600D02*
X11226800Y-11073600D01*
X11176800Y-11023600D02*
X11276800Y-11023600D01*
X11226800Y-11227600D02*
X11226800Y-11327600D01*
X11176800Y-11277600D02*
X11276800Y-11277600D01*
X11226800Y-11481600D02*
X11226800Y-11581600D01*
X11176800Y-11531600D02*
X11276800Y-11531600D01*
X11226800Y-11735600D02*
X11226800Y-11835600D01*
X11176800Y-11785600D02*
X11276800Y-11785600D01*
X11226800Y-11989600D02*
X11226800Y-12089600D01*
X11176800Y-12039600D02*
X11276800Y-12039600D01*
X11226800Y-12243600D02*
X11226800Y-12343600D01*
X11176800Y-12293600D02*
X11276800Y-12293600D01*
X11226800Y-12497600D02*
X11226800Y-12597600D01*
X11176800Y-12547600D02*
X11276800Y-12547600D01*
X11226800Y-12751600D02*
X11226800Y-12851600D01*
X11176800Y-12801600D02*
X11276800Y-12801600D01*
X11226800Y-13005600D02*
X11226800Y-13105600D01*
X11176800Y-13055600D02*
X11276800Y-13055600D01*
X11226800Y-13259600D02*
X11226800Y-13359600D01*
X11176800Y-13309600D02*
X11276800Y-13309600D01*
X11226800Y-13513600D02*
X11226800Y-13613600D01*
X11176800Y-13563600D02*
X11276800Y-13563600D01*
X11226800Y-13767600D02*
X11226800Y-13867600D01*
X11176800Y-13817600D02*
X11276800Y-13817600D01*
X11226800Y-14021600D02*
X11226800Y-14121600D01*
X11176800Y-14071600D02*
X11276800Y-14071600D01*
X11226800Y-14275600D02*
X11226800Y-14375600D01*
X11176800Y-14325600D02*
X11276800Y-14325600D01*
X11226800Y-14529600D02*
X11226800Y-14629600D01*
X11176800Y-14579600D02*
X11276800Y-14579600D01*
X13766800Y-9195600D02*
X13766800Y-9295600D01*
X13716800Y-9245600D02*
X13816800Y-9245600D01*
X13766800Y-9449600D02*
X13766800Y-9549600D01*
X13716800Y-9499600D02*
X13816800Y-9499600D01*
X13766800Y-9703600D02*
X13766800Y-9803600D01*
X13716800Y-9753600D02*
X13816800Y-9753600D01*
X13766800Y-9957600D02*
X13766800Y-10057600D01*
X13716800Y-10007600D02*
X13816800Y-10007600D01*
X13766800Y-10211600D02*
X13766800Y-10311600D01*
X13716800Y-10261600D02*
X13816800Y-10261600D01*
X13766800Y-10465600D02*
X13766800Y-10565600D01*
X13716800Y-10515600D02*
X13816800Y-10515600D01*
X13766800Y-10719600D02*
X13766800Y-10819600D01*
X13716800Y-10769600D02*
X13816800Y-10769600D01*
X13766800Y-10973600D02*
X13766800Y-11073600D01*
X13716800Y-11023600D02*
X13816800Y-11023600D01*
X13766800Y-11227600D02*
X13766800Y-11327600D01*
X13716800Y-11277600D02*
X13816800Y-11277600D01*
X13766800Y-11481600D02*
X13766800Y-11581600D01*
X13716800Y-11531600D02*
X13816800Y-11531600D01*
X13766800Y-11735600D02*
X13766800Y-11835600D01*
X13716800Y-11785600D02*
X13816800Y-11785600D01*
X13766800Y-11989600D02*
X13766800Y-12089600D01*
X13716800Y-12039600D02*
X13816800Y-12039600D01*
X13766800Y-12243600D02*
X13766800Y-12343600D01*
X13716800Y-12293600D02*
X13816800Y-12293600D01*
X13766800Y-12497600D02*
X13766800Y-12597600D01*
X13716800Y-12547600D02*
X13816800Y-12547600D01*
X13766800Y-12751600D02*
X13766800Y-12851600D01*
X13716800Y-12801600D02*
X13816800Y-12801600D01*
X13766800Y-13005600D02*
X13766800Y-13105600D01*
X13716800Y-13055600D02*
X13816800Y-13055600D01*
X13766800Y-13259600D02*
X13766800Y-13359600D01*
X13716800Y-13309600D02*
X13816800Y-13309600D01*
X13766800Y-13513600D02*
X13766800Y-13613600D01*
X13716800Y-13563600D02*
X13816800Y-13563600D01*
X13766800Y-13767600D02*
X13766800Y-13867600D01*
X13716800Y-13817600D02*
X13816800Y-13817600D01*
X13766800Y-14021600D02*
X13766800Y-14121600D01*
X13716800Y-14071600D02*
X13816800Y-14071600D01*
X13766800Y-14275600D02*
X13766800Y-14375600D01*
X13716800Y-14325600D02*
X13816800Y-14325600D01*
X13766800Y-14529600D02*
X13766800Y-14629600D01*
X13716800Y-14579600D02*
X13816800Y-14579600D01*
X14325600Y-9449600D02*
X14325600Y-9549600D01*
X14275600Y-9499600D02*
X14375600Y-9499600D01*
X14325600Y-9703600D02*
X14325600Y-9803600D01*
X14275600Y-9753600D02*
X14375600Y-9753600D01*
X14325600Y-9957600D02*
X14325600Y-10057600D01*
X14275600Y-10007600D02*
X14375600Y-10007600D01*
X14325600Y-10211600D02*
X14325600Y-10311600D01*
X14275600Y-10261600D02*
X14375600Y-10261600D01*
D13*
X10351291Y-9081291D02*
X10351291Y-9003509D01*
X10273509Y-9003509D01*
X10273509Y-9081291D01*
X10351291Y-9081291D01*
X10351291Y-9843291D02*
X10351291Y-9765509D01*
X10273509Y-9765509D01*
X10273509Y-9843291D01*
X10351291Y-9843291D01*
X10579891Y-7989091D02*
X10579891Y-7911309D01*
X10502109Y-7911309D01*
X10502109Y-7989091D01*
X10579891Y-7989091D01*
X10579891Y-8243091D02*
X10579891Y-8165309D01*
X10502109Y-8165309D01*
X10502109Y-8243091D01*
X10579891Y-8243091D01*
X10579891Y-8497091D02*
X10579891Y-8419309D01*
X10502109Y-8419309D01*
X10502109Y-8497091D01*
X10579891Y-8497091D01*
X11062491Y-7887491D02*
X11062491Y-7809709D01*
X10984709Y-7809709D01*
X10984709Y-7887491D01*
X11062491Y-7887491D01*
X11062491Y-8649491D02*
X11062491Y-8571709D01*
X10984709Y-8571709D01*
X10984709Y-8649491D01*
X11062491Y-8649491D01*
X11760891Y-6272891D02*
X11760891Y-6195109D01*
X11683109Y-6195109D01*
X11683109Y-6272891D01*
X11760891Y-6272891D01*
X12522891Y-6272891D02*
X12522891Y-6195109D01*
X12445109Y-6195109D01*
X12445109Y-6272891D01*
X12522891Y-6272891D01*
X17869691Y-5499891D02*
X17869691Y-5422109D01*
X17791909Y-5422109D01*
X17791909Y-5499891D01*
X17869691Y-5499891D01*
X17869691Y-11875291D02*
X17869691Y-11797509D01*
X17791909Y-11797509D01*
X17791909Y-11875291D01*
X17869691Y-11875291D01*
X17920491Y-9259091D02*
X17920491Y-9181309D01*
X17842709Y-9181309D01*
X17842709Y-9259091D01*
X17920491Y-9259091D01*
X18123691Y-5499891D02*
X18123691Y-5422109D01*
X18045909Y-5422109D01*
X18045909Y-5499891D01*
X18123691Y-5499891D01*
X18123691Y-11875291D02*
X18123691Y-11797509D01*
X18045909Y-11797509D01*
X18045909Y-11875291D01*
X18123691Y-11875291D01*
X18174491Y-9259091D02*
X18174491Y-9181309D01*
X18096709Y-9181309D01*
X18096709Y-9259091D01*
X18174491Y-9259091D01*
X18377691Y-5499891D02*
X18377691Y-5422109D01*
X18299909Y-5422109D01*
X18299909Y-5499891D01*
X18377691Y-5499891D01*
X18377691Y-11875291D02*
X18377691Y-11797509D01*
X18299909Y-11797509D01*
X18299909Y-11875291D01*
X18377691Y-11875291D01*
X18428491Y-9259091D02*
X18428491Y-9181309D01*
X18350709Y-9181309D01*
X18350709Y-9259091D01*
X18428491Y-9259091D01*
D14*
X11126000Y-5280000D02*
X11186000Y-5220000D01*
X11126000Y-5160000D01*
X11066000Y-5220000D01*
X11126000Y-5280000D01*
X11126000Y-6550000D02*
X11186000Y-6490000D01*
X11126000Y-6430000D01*
X11066000Y-6490000D01*
X11126000Y-6550000D01*
X18237200Y-5851200D02*
X18297200Y-5791200D01*
X18237200Y-5731200D01*
X18177200Y-5791200D01*
X18237200Y-5851200D01*
X18237200Y-7375200D02*
X18297200Y-7315200D01*
X18237200Y-7255200D01*
X18177200Y-7315200D01*
X18237200Y-7375200D01*
X18364200Y-9788200D02*
X18424200Y-9728200D01*
X18364200Y-9668200D01*
X18304200Y-9728200D01*
X18364200Y-9788200D01*
X18364200Y-11312200D02*
X18424200Y-11252200D01*
X18364200Y-11192200D01*
X18304200Y-11252200D01*
X18364200Y-11312200D01*
X18465800Y-12379000D02*
X18525800Y-12319000D01*
X18465800Y-12259000D01*
X18405800Y-12319000D01*
X18465800Y-12379000D01*
X18465800Y-13903000D02*
X18525800Y-13843000D01*
X18465800Y-13783000D01*
X18405800Y-13843000D01*
X18465800Y-13903000D01*
D15*
X11775000Y-5562000D02*
X11927000Y-5714000D01*
X11927000Y-5562000D02*
X11775000Y-5714000D01*
X11927000Y-5638000D02*
G75*
G03*
X11775000Y-5638000I-76000J0D01*
G01*
X11775000Y-5638000D02*
G75*
G03*
X11927000Y-5638000I76000J0D01*
G01*
X12283000Y-5562000D02*
X12435000Y-5714000D01*
X12435000Y-5562000D02*
X12283000Y-5714000D01*
X12435000Y-5638000D02*
G75*
G03*
X12283000Y-5638000I-76000J0D01*
G01*
X12283000Y-5638000D02*
G75*
G03*
X12435000Y-5638000I76000J0D01*
G01*
X14228000Y-5581000D02*
X14380000Y-5733000D01*
X14380000Y-5581000D02*
X14228000Y-5733000D01*
X14380000Y-5657000D02*
G75*
G03*
X14228000Y-5657000I-76000J0D01*
G01*
X14228000Y-5657000D02*
G75*
G03*
X14380000Y-5657000I76000J0D01*
G01*
X14736000Y-5581000D02*
X14888000Y-5733000D01*
X14888000Y-5581000D02*
X14736000Y-5733000D01*
X14888000Y-5657000D02*
G75*
G03*
X14736000Y-5657000I-76000J0D01*
G01*
X14736000Y-5657000D02*
G75*
G03*
X14888000Y-5657000I76000J0D01*
G01*
X17348400Y-14376600D02*
X17500400Y-14528600D01*
X17500400Y-14376600D02*
X17348400Y-14528600D01*
X17500400Y-14452600D02*
G75*
G03*
X17348400Y-14452600I-76000J0D01*
G01*
X17348400Y-14452600D02*
G75*
G03*
X17500400Y-14452600I76000J0D01*
G01*
X17856400Y-14376600D02*
X18008400Y-14528600D01*
X18008400Y-14376600D02*
X17856400Y-14528600D01*
X18008400Y-14452600D02*
G75*
G03*
X17856400Y-14452600I-76000J0D01*
G01*
X17856400Y-14452600D02*
G75*
G03*
X18008400Y-14452600I76000J0D01*
G01*
X18364400Y-14376600D02*
X18516400Y-14528600D01*
X18516400Y-14376600D02*
X18364400Y-14528600D01*
X18516400Y-14452600D02*
G75*
G03*
X18364400Y-14452600I-76000J0D01*
G01*
X18364400Y-14452600D02*
G75*
G03*
X18516400Y-14452600I76000J0D01*
G01*
X18872400Y-14376600D02*
X19024400Y-14528600D01*
X19024400Y-14376600D02*
X18872400Y-14528600D01*
X19024400Y-14452600D02*
G75*
G03*
X18872400Y-14452600I-76000J0D01*
G01*
X18872400Y-14452600D02*
G75*
G03*
X19024400Y-14452600I76000J0D01*
G01*
X19024800Y-6096200D02*
X19176800Y-6248200D01*
X19176800Y-6096200D02*
X19024800Y-6248200D01*
X19176800Y-6172200D02*
G75*
G03*
X19024800Y-6172200I-76000J0D01*
G01*
X19024800Y-6172200D02*
G75*
G03*
X19176800Y-6172200I76000J0D01*
G01*
X19024800Y-6604200D02*
X19176800Y-6756200D01*
X19176800Y-6604200D02*
X19024800Y-6756200D01*
X19176800Y-6680200D02*
G75*
G03*
X19024800Y-6680200I-76000J0D01*
G01*
X19024800Y-6680200D02*
G75*
G03*
X19176800Y-6680200I76000J0D01*
G01*
X19024800Y-7112200D02*
X19176800Y-7264200D01*
X19176800Y-7112200D02*
X19024800Y-7264200D01*
X19176800Y-7188200D02*
G75*
G03*
X19024800Y-7188200I-76000J0D01*
G01*
X19024800Y-7188200D02*
G75*
G03*
X19176800Y-7188200I76000J0D01*
G01*
X19024800Y-7620200D02*
X19176800Y-7772200D01*
X19176800Y-7620200D02*
X19024800Y-7772200D01*
X19176800Y-7696200D02*
G75*
G03*
X19024800Y-7696200I-76000J0D01*
G01*
X19024800Y-7696200D02*
G75*
G03*
X19176800Y-7696200I76000J0D01*
G01*
X19075600Y-9474400D02*
X19227600Y-9626400D01*
X19227600Y-9474400D02*
X19075600Y-9626400D01*
X19227600Y-9550400D02*
G75*
G03*
X19075600Y-9550400I-76000J0D01*
G01*
X19075600Y-9550400D02*
G75*
G03*
X19227600Y-9550400I76000J0D01*
G01*
X19075600Y-9982400D02*
X19227600Y-10134400D01*
X19227600Y-9982400D02*
X19075600Y-10134400D01*
X19227600Y-10058400D02*
G75*
G03*
X19075600Y-10058400I-76000J0D01*
G01*
X19075600Y-10058400D02*
G75*
G03*
X19227600Y-10058400I76000J0D01*
G01*
X19075600Y-10490400D02*
X19227600Y-10642400D01*
X19227600Y-10490400D02*
X19075600Y-10642400D01*
X19227600Y-10566400D02*
G75*
G03*
X19075600Y-10566400I-76000J0D01*
G01*
X19075600Y-10566400D02*
G75*
G03*
X19227600Y-10566400I76000J0D01*
G01*
X19075600Y-10998400D02*
X19227600Y-11150400D01*
X19227600Y-10998400D02*
X19075600Y-11150400D01*
X19227600Y-11074400D02*
G75*
G03*
X19075600Y-11074400I-76000J0D01*
G01*
X19075600Y-11074400D02*
G75*
G03*
X19227600Y-11074400I76000J0D01*
G01*
X19075600Y-11735000D02*
X19227600Y-11887000D01*
X19227600Y-11735000D02*
X19075600Y-11887000D01*
X19227600Y-11811000D02*
G75*
G03*
X19075600Y-11811000I-76000J0D01*
G01*
X19075600Y-11811000D02*
G75*
G03*
X19227600Y-11811000I76000J0D01*
G01*
X19075600Y-12243000D02*
X19227600Y-12395000D01*
X19227600Y-12243000D02*
X19075600Y-12395000D01*
X19227600Y-12319000D02*
G75*
G03*
X19075600Y-12319000I-76000J0D01*
G01*
X19075600Y-12319000D02*
G75*
G03*
X19227600Y-12319000I76000J0D01*
G01*
X19075600Y-12751000D02*
X19227600Y-12903000D01*
X19227600Y-12751000D02*
X19075600Y-12903000D01*
X19227600Y-12827000D02*
G75*
G03*
X19075600Y-12827000I-76000J0D01*
G01*
X19075600Y-12827000D02*
G75*
G03*
X19227600Y-12827000I76000J0D01*
G01*
X19075600Y-13259000D02*
X19227600Y-13411000D01*
X19227600Y-13259000D02*
X19075600Y-13411000D01*
X19227600Y-13335000D02*
G75*
G03*
X19075600Y-13335000I-76000J0D01*
G01*
X19075600Y-13335000D02*
G75*
G03*
X19227600Y-13335000I76000J0D01*
G01*
D11*
X10258277Y-15313984D02*
X10258277Y-15113984D01*
X10258277Y-15113984D02*
X10305896Y-15113984D01*
X10305896Y-15113984D02*
X10334467Y-15123508D01*
X10334467Y-15123508D02*
X10353515Y-15142555D01*
X10353515Y-15142555D02*
X10363039Y-15161603D01*
X10363039Y-15161603D02*
X10372563Y-15199698D01*
X10372563Y-15199698D02*
X10372563Y-15228269D01*
X10372563Y-15228269D02*
X10363039Y-15266365D01*
X10363039Y-15266365D02*
X10353515Y-15285412D01*
X10353515Y-15285412D02*
X10334467Y-15304460D01*
X10334467Y-15304460D02*
X10305896Y-15313984D01*
X10305896Y-15313984D02*
X10258277Y-15313984D01*
X10458277Y-15313984D02*
X10458277Y-15180650D01*
X10458277Y-15218746D02*
X10467801Y-15199698D01*
X10467801Y-15199698D02*
X10477324Y-15190174D01*
X10477324Y-15190174D02*
X10496372Y-15180650D01*
X10496372Y-15180650D02*
X10515420Y-15180650D01*
X10582086Y-15313984D02*
X10582086Y-15180650D01*
X10582086Y-15113984D02*
X10572563Y-15123508D01*
X10572563Y-15123508D02*
X10582086Y-15133031D01*
X10582086Y-15133031D02*
X10591610Y-15123508D01*
X10591610Y-15123508D02*
X10582086Y-15113984D01*
X10582086Y-15113984D02*
X10582086Y-15133031D01*
X10705896Y-15313984D02*
X10686848Y-15304460D01*
X10686848Y-15304460D02*
X10677324Y-15285412D01*
X10677324Y-15285412D02*
X10677324Y-15113984D01*
X10810658Y-15313984D02*
X10791610Y-15304460D01*
X10791610Y-15304460D02*
X10782086Y-15285412D01*
X10782086Y-15285412D02*
X10782086Y-15113984D01*
X11039229Y-15313984D02*
X11039229Y-15113984D01*
X11039229Y-15113984D02*
X11105896Y-15256841D01*
X11105896Y-15256841D02*
X11172563Y-15113984D01*
X11172563Y-15113984D02*
X11172563Y-15313984D01*
X11353515Y-15313984D02*
X11353515Y-15209222D01*
X11353515Y-15209222D02*
X11343991Y-15190174D01*
X11343991Y-15190174D02*
X11324943Y-15180650D01*
X11324943Y-15180650D02*
X11286848Y-15180650D01*
X11286848Y-15180650D02*
X11267801Y-15190174D01*
X11353515Y-15304460D02*
X11334467Y-15313984D01*
X11334467Y-15313984D02*
X11286848Y-15313984D01*
X11286848Y-15313984D02*
X11267801Y-15304460D01*
X11267801Y-15304460D02*
X11258277Y-15285412D01*
X11258277Y-15285412D02*
X11258277Y-15266365D01*
X11258277Y-15266365D02*
X11267801Y-15247317D01*
X11267801Y-15247317D02*
X11286848Y-15237793D01*
X11286848Y-15237793D02*
X11334467Y-15237793D01*
X11334467Y-15237793D02*
X11353515Y-15228269D01*
X11448753Y-15180650D02*
X11448753Y-15380650D01*
X11448753Y-15190174D02*
X11467801Y-15180650D01*
X11467801Y-15180650D02*
X11505896Y-15180650D01*
X11505896Y-15180650D02*
X11524943Y-15190174D01*
X11524943Y-15190174D02*
X11534467Y-15199698D01*
X11534467Y-15199698D02*
X11543991Y-15218746D01*
X11543991Y-15218746D02*
X11543991Y-15275888D01*
X11543991Y-15275888D02*
X11534467Y-15294936D01*
X11534467Y-15294936D02*
X11524943Y-15304460D01*
X11524943Y-15304460D02*
X11505896Y-15313984D01*
X11505896Y-15313984D02*
X11467801Y-15313984D01*
X11467801Y-15313984D02*
X11448753Y-15304460D01*
X11629705Y-15294936D02*
X11639229Y-15304460D01*
X11639229Y-15304460D02*
X11629705Y-15313984D01*
X11629705Y-15313984D02*
X11620182Y-15304460D01*
X11620182Y-15304460D02*
X11629705Y-15294936D01*
X11629705Y-15294936D02*
X11629705Y-15313984D01*
X11629705Y-15190174D02*
X11639229Y-15199698D01*
X11639229Y-15199698D02*
X11629705Y-15209222D01*
X11629705Y-15209222D02*
X11620182Y-15199698D01*
X11620182Y-15199698D02*
X11629705Y-15190174D01*
X11629705Y-15190174D02*
X11629705Y-15209222D01*
D12*
X9917500Y-15602500D02*
X9997500Y-15682500D01*
X9997500Y-15602500D02*
X9917500Y-15682500D01*
D11*
X10296372Y-15533984D02*
X10315420Y-15533984D01*
X10315420Y-15533984D02*
X10334467Y-15543508D01*
X10334467Y-15543508D02*
X10343991Y-15553031D01*
X10343991Y-15553031D02*
X10353515Y-15572079D01*
X10353515Y-15572079D02*
X10363039Y-15610174D01*
X10363039Y-15610174D02*
X10363039Y-15657793D01*
X10363039Y-15657793D02*
X10353515Y-15695888D01*
X10353515Y-15695888D02*
X10343991Y-15714936D01*
X10343991Y-15714936D02*
X10334467Y-15724460D01*
X10334467Y-15724460D02*
X10315420Y-15733984D01*
X10315420Y-15733984D02*
X10296372Y-15733984D01*
X10296372Y-15733984D02*
X10277324Y-15724460D01*
X10277324Y-15724460D02*
X10267801Y-15714936D01*
X10267801Y-15714936D02*
X10258277Y-15695888D01*
X10258277Y-15695888D02*
X10248753Y-15657793D01*
X10248753Y-15657793D02*
X10248753Y-15610174D01*
X10248753Y-15610174D02*
X10258277Y-15572079D01*
X10258277Y-15572079D02*
X10267801Y-15553031D01*
X10267801Y-15553031D02*
X10277324Y-15543508D01*
X10277324Y-15543508D02*
X10296372Y-15533984D01*
X10448753Y-15714936D02*
X10458277Y-15724460D01*
X10458277Y-15724460D02*
X10448753Y-15733984D01*
X10448753Y-15733984D02*
X10439229Y-15724460D01*
X10439229Y-15724460D02*
X10448753Y-15714936D01*
X10448753Y-15714936D02*
X10448753Y-15733984D01*
X10572563Y-15619698D02*
X10553515Y-15610174D01*
X10553515Y-15610174D02*
X10543991Y-15600650D01*
X10543991Y-15600650D02*
X10534467Y-15581603D01*
X10534467Y-15581603D02*
X10534467Y-15572079D01*
X10534467Y-15572079D02*
X10543991Y-15553031D01*
X10543991Y-15553031D02*
X10553515Y-15543508D01*
X10553515Y-15543508D02*
X10572563Y-15533984D01*
X10572563Y-15533984D02*
X10610658Y-15533984D01*
X10610658Y-15533984D02*
X10629705Y-15543508D01*
X10629705Y-15543508D02*
X10639229Y-15553031D01*
X10639229Y-15553031D02*
X10648753Y-15572079D01*
X10648753Y-15572079D02*
X10648753Y-15581603D01*
X10648753Y-15581603D02*
X10639229Y-15600650D01*
X10639229Y-15600650D02*
X10629705Y-15610174D01*
X10629705Y-15610174D02*
X10610658Y-15619698D01*
X10610658Y-15619698D02*
X10572563Y-15619698D01*
X10572563Y-15619698D02*
X10553515Y-15629222D01*
X10553515Y-15629222D02*
X10543991Y-15638746D01*
X10543991Y-15638746D02*
X10534467Y-15657793D01*
X10534467Y-15657793D02*
X10534467Y-15695888D01*
X10534467Y-15695888D02*
X10543991Y-15714936D01*
X10543991Y-15714936D02*
X10553515Y-15724460D01*
X10553515Y-15724460D02*
X10572563Y-15733984D01*
X10572563Y-15733984D02*
X10610658Y-15733984D01*
X10610658Y-15733984D02*
X10629705Y-15724460D01*
X10629705Y-15724460D02*
X10639229Y-15714936D01*
X10639229Y-15714936D02*
X10648753Y-15695888D01*
X10648753Y-15695888D02*
X10648753Y-15657793D01*
X10648753Y-15657793D02*
X10639229Y-15638746D01*
X10639229Y-15638746D02*
X10629705Y-15629222D01*
X10629705Y-15629222D02*
X10610658Y-15619698D01*
X10772563Y-15533984D02*
X10791610Y-15533984D01*
X10791610Y-15533984D02*
X10810658Y-15543508D01*
X10810658Y-15543508D02*
X10820182Y-15553031D01*
X10820182Y-15553031D02*
X10829705Y-15572079D01*
X10829705Y-15572079D02*
X10839229Y-15610174D01*
X10839229Y-15610174D02*
X10839229Y-15657793D01*
X10839229Y-15657793D02*
X10829705Y-15695888D01*
X10829705Y-15695888D02*
X10820182Y-15714936D01*
X10820182Y-15714936D02*
X10810658Y-15724460D01*
X10810658Y-15724460D02*
X10791610Y-15733984D01*
X10791610Y-15733984D02*
X10772563Y-15733984D01*
X10772563Y-15733984D02*
X10753515Y-15724460D01*
X10753515Y-15724460D02*
X10743991Y-15714936D01*
X10743991Y-15714936D02*
X10734467Y-15695888D01*
X10734467Y-15695888D02*
X10724944Y-15657793D01*
X10724944Y-15657793D02*
X10724944Y-15610174D01*
X10724944Y-15610174D02*
X10734467Y-15572079D01*
X10734467Y-15572079D02*
X10743991Y-15553031D01*
X10743991Y-15553031D02*
X10753515Y-15543508D01*
X10753515Y-15543508D02*
X10772563Y-15533984D01*
X10963039Y-15533984D02*
X10982086Y-15533984D01*
X10982086Y-15533984D02*
X11001134Y-15543508D01*
X11001134Y-15543508D02*
X11010658Y-15553031D01*
X11010658Y-15553031D02*
X11020182Y-15572079D01*
X11020182Y-15572079D02*
X11029705Y-15610174D01*
X11029705Y-15610174D02*
X11029705Y-15657793D01*
X11029705Y-15657793D02*
X11020182Y-15695888D01*
X11020182Y-15695888D02*
X11010658Y-15714936D01*
X11010658Y-15714936D02*
X11001134Y-15724460D01*
X11001134Y-15724460D02*
X10982086Y-15733984D01*
X10982086Y-15733984D02*
X10963039Y-15733984D01*
X10963039Y-15733984D02*
X10943991Y-15724460D01*
X10943991Y-15724460D02*
X10934467Y-15714936D01*
X10934467Y-15714936D02*
X10924944Y-15695888D01*
X10924944Y-15695888D02*
X10915420Y-15657793D01*
X10915420Y-15657793D02*
X10915420Y-15610174D01*
X10915420Y-15610174D02*
X10924944Y-15572079D01*
X10924944Y-15572079D02*
X10934467Y-15553031D01*
X10934467Y-15553031D02*
X10943991Y-15543508D01*
X10943991Y-15543508D02*
X10963039Y-15533984D01*
X11115420Y-15733984D02*
X11115420Y-15600650D01*
X11115420Y-15619698D02*
X11124944Y-15610174D01*
X11124944Y-15610174D02*
X11143991Y-15600650D01*
X11143991Y-15600650D02*
X11172563Y-15600650D01*
X11172563Y-15600650D02*
X11191610Y-15610174D01*
X11191610Y-15610174D02*
X11201134Y-15629222D01*
X11201134Y-15629222D02*
X11201134Y-15733984D01*
X11201134Y-15629222D02*
X11210658Y-15610174D01*
X11210658Y-15610174D02*
X11229705Y-15600650D01*
X11229705Y-15600650D02*
X11258277Y-15600650D01*
X11258277Y-15600650D02*
X11277324Y-15610174D01*
X11277324Y-15610174D02*
X11286848Y-15629222D01*
X11286848Y-15629222D02*
X11286848Y-15733984D01*
X11382086Y-15733984D02*
X11382086Y-15600650D01*
X11382086Y-15619698D02*
X11391610Y-15610174D01*
X11391610Y-15610174D02*
X11410658Y-15600650D01*
X11410658Y-15600650D02*
X11439229Y-15600650D01*
X11439229Y-15600650D02*
X11458277Y-15610174D01*
X11458277Y-15610174D02*
X11467801Y-15629222D01*
X11467801Y-15629222D02*
X11467801Y-15733984D01*
X11467801Y-15629222D02*
X11477324Y-15610174D01*
X11477324Y-15610174D02*
X11496372Y-15600650D01*
X11496372Y-15600650D02*
X11524943Y-15600650D01*
X11524943Y-15600650D02*
X11543991Y-15610174D01*
X11543991Y-15610174D02*
X11553515Y-15629222D01*
X11553515Y-15629222D02*
X11553515Y-15733984D01*
X11943991Y-15524460D02*
X11772563Y-15781603D01*
X12201134Y-15533984D02*
X12220182Y-15533984D01*
X12220182Y-15533984D02*
X12239229Y-15543508D01*
X12239229Y-15543508D02*
X12248753Y-15553031D01*
X12248753Y-15553031D02*
X12258277Y-15572079D01*
X12258277Y-15572079D02*
X12267801Y-15610174D01*
X12267801Y-15610174D02*
X12267801Y-15657793D01*
X12267801Y-15657793D02*
X12258277Y-15695888D01*
X12258277Y-15695888D02*
X12248753Y-15714936D01*
X12248753Y-15714936D02*
X12239229Y-15724460D01*
X12239229Y-15724460D02*
X12220182Y-15733984D01*
X12220182Y-15733984D02*
X12201134Y-15733984D01*
X12201134Y-15733984D02*
X12182086Y-15724460D01*
X12182086Y-15724460D02*
X12172563Y-15714936D01*
X12172563Y-15714936D02*
X12163039Y-15695888D01*
X12163039Y-15695888D02*
X12153515Y-15657793D01*
X12153515Y-15657793D02*
X12153515Y-15610174D01*
X12153515Y-15610174D02*
X12163039Y-15572079D01*
X12163039Y-15572079D02*
X12172563Y-15553031D01*
X12172563Y-15553031D02*
X12182086Y-15543508D01*
X12182086Y-15543508D02*
X12201134Y-15533984D01*
X12353515Y-15714936D02*
X12363039Y-15724460D01*
X12363039Y-15724460D02*
X12353515Y-15733984D01*
X12353515Y-15733984D02*
X12343991Y-15724460D01*
X12343991Y-15724460D02*
X12353515Y-15714936D01*
X12353515Y-15714936D02*
X12353515Y-15733984D01*
X12486848Y-15533984D02*
X12505896Y-15533984D01*
X12505896Y-15533984D02*
X12524944Y-15543508D01*
X12524944Y-15543508D02*
X12534467Y-15553031D01*
X12534467Y-15553031D02*
X12543991Y-15572079D01*
X12543991Y-15572079D02*
X12553515Y-15610174D01*
X12553515Y-15610174D02*
X12553515Y-15657793D01*
X12553515Y-15657793D02*
X12543991Y-15695888D01*
X12543991Y-15695888D02*
X12534467Y-15714936D01*
X12534467Y-15714936D02*
X12524944Y-15724460D01*
X12524944Y-15724460D02*
X12505896Y-15733984D01*
X12505896Y-15733984D02*
X12486848Y-15733984D01*
X12486848Y-15733984D02*
X12467801Y-15724460D01*
X12467801Y-15724460D02*
X12458277Y-15714936D01*
X12458277Y-15714936D02*
X12448753Y-15695888D01*
X12448753Y-15695888D02*
X12439229Y-15657793D01*
X12439229Y-15657793D02*
X12439229Y-15610174D01*
X12439229Y-15610174D02*
X12448753Y-15572079D01*
X12448753Y-15572079D02*
X12458277Y-15553031D01*
X12458277Y-15553031D02*
X12467801Y-15543508D01*
X12467801Y-15543508D02*
X12486848Y-15533984D01*
X12620182Y-15533984D02*
X12743991Y-15533984D01*
X12743991Y-15533984D02*
X12677325Y-15610174D01*
X12677325Y-15610174D02*
X12705896Y-15610174D01*
X12705896Y-15610174D02*
X12724944Y-15619698D01*
X12724944Y-15619698D02*
X12734467Y-15629222D01*
X12734467Y-15629222D02*
X12743991Y-15648269D01*
X12743991Y-15648269D02*
X12743991Y-15695888D01*
X12743991Y-15695888D02*
X12734467Y-15714936D01*
X12734467Y-15714936D02*
X12724944Y-15724460D01*
X12724944Y-15724460D02*
X12705896Y-15733984D01*
X12705896Y-15733984D02*
X12648753Y-15733984D01*
X12648753Y-15733984D02*
X12629706Y-15724460D01*
X12629706Y-15724460D02*
X12620182Y-15714936D01*
X12934467Y-15733984D02*
X12820182Y-15733984D01*
X12877325Y-15733984D02*
X12877325Y-15533984D01*
X12877325Y-15533984D02*
X12858277Y-15562555D01*
X12858277Y-15562555D02*
X12839229Y-15581603D01*
X12839229Y-15581603D02*
X12820182Y-15591127D01*
X13115420Y-15533984D02*
X13020182Y-15533984D01*
X13020182Y-15533984D02*
X13010658Y-15629222D01*
X13010658Y-15629222D02*
X13020182Y-15619698D01*
X13020182Y-15619698D02*
X13039229Y-15610174D01*
X13039229Y-15610174D02*
X13086848Y-15610174D01*
X13086848Y-15610174D02*
X13105896Y-15619698D01*
X13105896Y-15619698D02*
X13115420Y-15629222D01*
X13115420Y-15629222D02*
X13124944Y-15648269D01*
X13124944Y-15648269D02*
X13124944Y-15695888D01*
X13124944Y-15695888D02*
X13115420Y-15714936D01*
X13115420Y-15714936D02*
X13105896Y-15724460D01*
X13105896Y-15724460D02*
X13086848Y-15733984D01*
X13086848Y-15733984D02*
X13039229Y-15733984D01*
X13039229Y-15733984D02*
X13020182Y-15724460D01*
X13020182Y-15724460D02*
X13010658Y-15714936D01*
X13201134Y-15533984D02*
X13201134Y-15572079D01*
X13277325Y-15533984D02*
X13277325Y-15572079D01*
X13572563Y-15810174D02*
X13563039Y-15800650D01*
X13563039Y-15800650D02*
X13543991Y-15772079D01*
X13543991Y-15772079D02*
X13534468Y-15753031D01*
X13534468Y-15753031D02*
X13524944Y-15724460D01*
X13524944Y-15724460D02*
X13515420Y-15676841D01*
X13515420Y-15676841D02*
X13515420Y-15638746D01*
X13515420Y-15638746D02*
X13524944Y-15591127D01*
X13524944Y-15591127D02*
X13534468Y-15562555D01*
X13534468Y-15562555D02*
X13543991Y-15543508D01*
X13543991Y-15543508D02*
X13563039Y-15514936D01*
X13563039Y-15514936D02*
X13572563Y-15505412D01*
X13753515Y-15733984D02*
X13639229Y-15733984D01*
X13696372Y-15733984D02*
X13696372Y-15533984D01*
X13696372Y-15533984D02*
X13677325Y-15562555D01*
X13677325Y-15562555D02*
X13658277Y-15581603D01*
X13658277Y-15581603D02*
X13639229Y-15591127D01*
X13867801Y-15619698D02*
X13848753Y-15610174D01*
X13848753Y-15610174D02*
X13839229Y-15600650D01*
X13839229Y-15600650D02*
X13829706Y-15581603D01*
X13829706Y-15581603D02*
X13829706Y-15572079D01*
X13829706Y-15572079D02*
X13839229Y-15553031D01*
X13839229Y-15553031D02*
X13848753Y-15543508D01*
X13848753Y-15543508D02*
X13867801Y-15533984D01*
X13867801Y-15533984D02*
X13905896Y-15533984D01*
X13905896Y-15533984D02*
X13924944Y-15543508D01*
X13924944Y-15543508D02*
X13934468Y-15553031D01*
X13934468Y-15553031D02*
X13943991Y-15572079D01*
X13943991Y-15572079D02*
X13943991Y-15581603D01*
X13943991Y-15581603D02*
X13934468Y-15600650D01*
X13934468Y-15600650D02*
X13924944Y-15610174D01*
X13924944Y-15610174D02*
X13905896Y-15619698D01*
X13905896Y-15619698D02*
X13867801Y-15619698D01*
X13867801Y-15619698D02*
X13848753Y-15629222D01*
X13848753Y-15629222D02*
X13839229Y-15638746D01*
X13839229Y-15638746D02*
X13829706Y-15657793D01*
X13829706Y-15657793D02*
X13829706Y-15695888D01*
X13829706Y-15695888D02*
X13839229Y-15714936D01*
X13839229Y-15714936D02*
X13848753Y-15724460D01*
X13848753Y-15724460D02*
X13867801Y-15733984D01*
X13867801Y-15733984D02*
X13905896Y-15733984D01*
X13905896Y-15733984D02*
X13924944Y-15724460D01*
X13924944Y-15724460D02*
X13934468Y-15714936D01*
X13934468Y-15714936D02*
X13943991Y-15695888D01*
X13943991Y-15695888D02*
X13943991Y-15657793D01*
X13943991Y-15657793D02*
X13934468Y-15638746D01*
X13934468Y-15638746D02*
X13924944Y-15629222D01*
X13924944Y-15629222D02*
X13905896Y-15619698D01*
X14134468Y-15733984D02*
X14020182Y-15733984D01*
X14077325Y-15733984D02*
X14077325Y-15533984D01*
X14077325Y-15533984D02*
X14058277Y-15562555D01*
X14058277Y-15562555D02*
X14039229Y-15581603D01*
X14039229Y-15581603D02*
X14020182Y-15591127D01*
X14372563Y-15733984D02*
X14372563Y-15533984D01*
X14458277Y-15733984D02*
X14458277Y-15629222D01*
X14458277Y-15629222D02*
X14448753Y-15610174D01*
X14448753Y-15610174D02*
X14429706Y-15600650D01*
X14429706Y-15600650D02*
X14401134Y-15600650D01*
X14401134Y-15600650D02*
X14382087Y-15610174D01*
X14382087Y-15610174D02*
X14372563Y-15619698D01*
X14582087Y-15733984D02*
X14563039Y-15724460D01*
X14563039Y-15724460D02*
X14553515Y-15714936D01*
X14553515Y-15714936D02*
X14543991Y-15695888D01*
X14543991Y-15695888D02*
X14543991Y-15638746D01*
X14543991Y-15638746D02*
X14553515Y-15619698D01*
X14553515Y-15619698D02*
X14563039Y-15610174D01*
X14563039Y-15610174D02*
X14582087Y-15600650D01*
X14582087Y-15600650D02*
X14610658Y-15600650D01*
X14610658Y-15600650D02*
X14629706Y-15610174D01*
X14629706Y-15610174D02*
X14639230Y-15619698D01*
X14639230Y-15619698D02*
X14648753Y-15638746D01*
X14648753Y-15638746D02*
X14648753Y-15695888D01*
X14648753Y-15695888D02*
X14639230Y-15714936D01*
X14639230Y-15714936D02*
X14629706Y-15724460D01*
X14629706Y-15724460D02*
X14610658Y-15733984D01*
X14610658Y-15733984D02*
X14582087Y-15733984D01*
X14763039Y-15733984D02*
X14743991Y-15724460D01*
X14743991Y-15724460D02*
X14734468Y-15705412D01*
X14734468Y-15705412D02*
X14734468Y-15533984D01*
X14915420Y-15724460D02*
X14896372Y-15733984D01*
X14896372Y-15733984D02*
X14858277Y-15733984D01*
X14858277Y-15733984D02*
X14839230Y-15724460D01*
X14839230Y-15724460D02*
X14829706Y-15705412D01*
X14829706Y-15705412D02*
X14829706Y-15629222D01*
X14829706Y-15629222D02*
X14839230Y-15610174D01*
X14839230Y-15610174D02*
X14858277Y-15600650D01*
X14858277Y-15600650D02*
X14896372Y-15600650D01*
X14896372Y-15600650D02*
X14915420Y-15610174D01*
X14915420Y-15610174D02*
X14924944Y-15629222D01*
X14924944Y-15629222D02*
X14924944Y-15648269D01*
X14924944Y-15648269D02*
X14829706Y-15667317D01*
X15001134Y-15724460D02*
X15020182Y-15733984D01*
X15020182Y-15733984D02*
X15058277Y-15733984D01*
X15058277Y-15733984D02*
X15077325Y-15724460D01*
X15077325Y-15724460D02*
X15086849Y-15705412D01*
X15086849Y-15705412D02*
X15086849Y-15695888D01*
X15086849Y-15695888D02*
X15077325Y-15676841D01*
X15077325Y-15676841D02*
X15058277Y-15667317D01*
X15058277Y-15667317D02*
X15029706Y-15667317D01*
X15029706Y-15667317D02*
X15010658Y-15657793D01*
X15010658Y-15657793D02*
X15001134Y-15638746D01*
X15001134Y-15638746D02*
X15001134Y-15629222D01*
X15001134Y-15629222D02*
X15010658Y-15610174D01*
X15010658Y-15610174D02*
X15029706Y-15600650D01*
X15029706Y-15600650D02*
X15058277Y-15600650D01*
X15058277Y-15600650D02*
X15077325Y-15610174D01*
X15153515Y-15810174D02*
X15163039Y-15800650D01*
X15163039Y-15800650D02*
X15182087Y-15772079D01*
X15182087Y-15772079D02*
X15191611Y-15753031D01*
X15191611Y-15753031D02*
X15201134Y-15724460D01*
X15201134Y-15724460D02*
X15210658Y-15676841D01*
X15210658Y-15676841D02*
X15210658Y-15638746D01*
X15210658Y-15638746D02*
X15201134Y-15591127D01*
X15201134Y-15591127D02*
X15191611Y-15562555D01*
X15191611Y-15562555D02*
X15182087Y-15543508D01*
X15182087Y-15543508D02*
X15163039Y-15514936D01*
X15163039Y-15514936D02*
X15153515Y-15505412D01*
D12*
X9997500Y-15906500D02*
G75*
G03*
X9907500Y-15906500I-45000J0D01*
G01*
X9907500Y-15906500D02*
G75*
G03*
X9997500Y-15906500I45000J0D01*
G01*
D11*
X10296372Y-15797984D02*
X10315420Y-15797984D01*
X10315420Y-15797984D02*
X10334467Y-15807508D01*
X10334467Y-15807508D02*
X10343991Y-15817031D01*
X10343991Y-15817031D02*
X10353515Y-15836079D01*
X10353515Y-15836079D02*
X10363039Y-15874174D01*
X10363039Y-15874174D02*
X10363039Y-15921793D01*
X10363039Y-15921793D02*
X10353515Y-15959888D01*
X10353515Y-15959888D02*
X10343991Y-15978936D01*
X10343991Y-15978936D02*
X10334467Y-15988460D01*
X10334467Y-15988460D02*
X10315420Y-15997984D01*
X10315420Y-15997984D02*
X10296372Y-15997984D01*
X10296372Y-15997984D02*
X10277324Y-15988460D01*
X10277324Y-15988460D02*
X10267801Y-15978936D01*
X10267801Y-15978936D02*
X10258277Y-15959888D01*
X10258277Y-15959888D02*
X10248753Y-15921793D01*
X10248753Y-15921793D02*
X10248753Y-15874174D01*
X10248753Y-15874174D02*
X10258277Y-15836079D01*
X10258277Y-15836079D02*
X10267801Y-15817031D01*
X10267801Y-15817031D02*
X10277324Y-15807508D01*
X10277324Y-15807508D02*
X10296372Y-15797984D01*
X10448753Y-15978936D02*
X10458277Y-15988460D01*
X10458277Y-15988460D02*
X10448753Y-15997984D01*
X10448753Y-15997984D02*
X10439229Y-15988460D01*
X10439229Y-15988460D02*
X10448753Y-15978936D01*
X10448753Y-15978936D02*
X10448753Y-15997984D01*
X10553515Y-15997984D02*
X10591610Y-15997984D01*
X10591610Y-15997984D02*
X10610658Y-15988460D01*
X10610658Y-15988460D02*
X10620182Y-15978936D01*
X10620182Y-15978936D02*
X10639229Y-15950365D01*
X10639229Y-15950365D02*
X10648753Y-15912269D01*
X10648753Y-15912269D02*
X10648753Y-15836079D01*
X10648753Y-15836079D02*
X10639229Y-15817031D01*
X10639229Y-15817031D02*
X10629705Y-15807508D01*
X10629705Y-15807508D02*
X10610658Y-15797984D01*
X10610658Y-15797984D02*
X10572563Y-15797984D01*
X10572563Y-15797984D02*
X10553515Y-15807508D01*
X10553515Y-15807508D02*
X10543991Y-15817031D01*
X10543991Y-15817031D02*
X10534467Y-15836079D01*
X10534467Y-15836079D02*
X10534467Y-15883698D01*
X10534467Y-15883698D02*
X10543991Y-15902746D01*
X10543991Y-15902746D02*
X10553515Y-15912269D01*
X10553515Y-15912269D02*
X10572563Y-15921793D01*
X10572563Y-15921793D02*
X10610658Y-15921793D01*
X10610658Y-15921793D02*
X10629705Y-15912269D01*
X10629705Y-15912269D02*
X10639229Y-15902746D01*
X10639229Y-15902746D02*
X10648753Y-15883698D01*
X10772563Y-15797984D02*
X10791610Y-15797984D01*
X10791610Y-15797984D02*
X10810658Y-15807508D01*
X10810658Y-15807508D02*
X10820182Y-15817031D01*
X10820182Y-15817031D02*
X10829705Y-15836079D01*
X10829705Y-15836079D02*
X10839229Y-15874174D01*
X10839229Y-15874174D02*
X10839229Y-15921793D01*
X10839229Y-15921793D02*
X10829705Y-15959888D01*
X10829705Y-15959888D02*
X10820182Y-15978936D01*
X10820182Y-15978936D02*
X10810658Y-15988460D01*
X10810658Y-15988460D02*
X10791610Y-15997984D01*
X10791610Y-15997984D02*
X10772563Y-15997984D01*
X10772563Y-15997984D02*
X10753515Y-15988460D01*
X10753515Y-15988460D02*
X10743991Y-15978936D01*
X10743991Y-15978936D02*
X10734467Y-15959888D01*
X10734467Y-15959888D02*
X10724944Y-15921793D01*
X10724944Y-15921793D02*
X10724944Y-15874174D01*
X10724944Y-15874174D02*
X10734467Y-15836079D01*
X10734467Y-15836079D02*
X10743991Y-15817031D01*
X10743991Y-15817031D02*
X10753515Y-15807508D01*
X10753515Y-15807508D02*
X10772563Y-15797984D01*
X10963039Y-15797984D02*
X10982086Y-15797984D01*
X10982086Y-15797984D02*
X11001134Y-15807508D01*
X11001134Y-15807508D02*
X11010658Y-15817031D01*
X11010658Y-15817031D02*
X11020182Y-15836079D01*
X11020182Y-15836079D02*
X11029705Y-15874174D01*
X11029705Y-15874174D02*
X11029705Y-15921793D01*
X11029705Y-15921793D02*
X11020182Y-15959888D01*
X11020182Y-15959888D02*
X11010658Y-15978936D01*
X11010658Y-15978936D02*
X11001134Y-15988460D01*
X11001134Y-15988460D02*
X10982086Y-15997984D01*
X10982086Y-15997984D02*
X10963039Y-15997984D01*
X10963039Y-15997984D02*
X10943991Y-15988460D01*
X10943991Y-15988460D02*
X10934467Y-15978936D01*
X10934467Y-15978936D02*
X10924944Y-15959888D01*
X10924944Y-15959888D02*
X10915420Y-15921793D01*
X10915420Y-15921793D02*
X10915420Y-15874174D01*
X10915420Y-15874174D02*
X10924944Y-15836079D01*
X10924944Y-15836079D02*
X10934467Y-15817031D01*
X10934467Y-15817031D02*
X10943991Y-15807508D01*
X10943991Y-15807508D02*
X10963039Y-15797984D01*
X11115420Y-15997984D02*
X11115420Y-15864650D01*
X11115420Y-15883698D02*
X11124944Y-15874174D01*
X11124944Y-15874174D02*
X11143991Y-15864650D01*
X11143991Y-15864650D02*
X11172563Y-15864650D01*
X11172563Y-15864650D02*
X11191610Y-15874174D01*
X11191610Y-15874174D02*
X11201134Y-15893222D01*
X11201134Y-15893222D02*
X11201134Y-15997984D01*
X11201134Y-15893222D02*
X11210658Y-15874174D01*
X11210658Y-15874174D02*
X11229705Y-15864650D01*
X11229705Y-15864650D02*
X11258277Y-15864650D01*
X11258277Y-15864650D02*
X11277324Y-15874174D01*
X11277324Y-15874174D02*
X11286848Y-15893222D01*
X11286848Y-15893222D02*
X11286848Y-15997984D01*
X11382086Y-15997984D02*
X11382086Y-15864650D01*
X11382086Y-15883698D02*
X11391610Y-15874174D01*
X11391610Y-15874174D02*
X11410658Y-15864650D01*
X11410658Y-15864650D02*
X11439229Y-15864650D01*
X11439229Y-15864650D02*
X11458277Y-15874174D01*
X11458277Y-15874174D02*
X11467801Y-15893222D01*
X11467801Y-15893222D02*
X11467801Y-15997984D01*
X11467801Y-15893222D02*
X11477324Y-15874174D01*
X11477324Y-15874174D02*
X11496372Y-15864650D01*
X11496372Y-15864650D02*
X11524943Y-15864650D01*
X11524943Y-15864650D02*
X11543991Y-15874174D01*
X11543991Y-15874174D02*
X11553515Y-15893222D01*
X11553515Y-15893222D02*
X11553515Y-15997984D01*
X11943991Y-15788460D02*
X11772563Y-16045603D01*
X12201134Y-15797984D02*
X12220182Y-15797984D01*
X12220182Y-15797984D02*
X12239229Y-15807508D01*
X12239229Y-15807508D02*
X12248753Y-15817031D01*
X12248753Y-15817031D02*
X12258277Y-15836079D01*
X12258277Y-15836079D02*
X12267801Y-15874174D01*
X12267801Y-15874174D02*
X12267801Y-15921793D01*
X12267801Y-15921793D02*
X12258277Y-15959888D01*
X12258277Y-15959888D02*
X12248753Y-15978936D01*
X12248753Y-15978936D02*
X12239229Y-15988460D01*
X12239229Y-15988460D02*
X12220182Y-15997984D01*
X12220182Y-15997984D02*
X12201134Y-15997984D01*
X12201134Y-15997984D02*
X12182086Y-15988460D01*
X12182086Y-15988460D02*
X12172563Y-15978936D01*
X12172563Y-15978936D02*
X12163039Y-15959888D01*
X12163039Y-15959888D02*
X12153515Y-15921793D01*
X12153515Y-15921793D02*
X12153515Y-15874174D01*
X12153515Y-15874174D02*
X12163039Y-15836079D01*
X12163039Y-15836079D02*
X12172563Y-15817031D01*
X12172563Y-15817031D02*
X12182086Y-15807508D01*
X12182086Y-15807508D02*
X12201134Y-15797984D01*
X12353515Y-15978936D02*
X12363039Y-15988460D01*
X12363039Y-15988460D02*
X12353515Y-15997984D01*
X12353515Y-15997984D02*
X12343991Y-15988460D01*
X12343991Y-15988460D02*
X12353515Y-15978936D01*
X12353515Y-15978936D02*
X12353515Y-15997984D01*
X12486848Y-15797984D02*
X12505896Y-15797984D01*
X12505896Y-15797984D02*
X12524944Y-15807508D01*
X12524944Y-15807508D02*
X12534467Y-15817031D01*
X12534467Y-15817031D02*
X12543991Y-15836079D01*
X12543991Y-15836079D02*
X12553515Y-15874174D01*
X12553515Y-15874174D02*
X12553515Y-15921793D01*
X12553515Y-15921793D02*
X12543991Y-15959888D01*
X12543991Y-15959888D02*
X12534467Y-15978936D01*
X12534467Y-15978936D02*
X12524944Y-15988460D01*
X12524944Y-15988460D02*
X12505896Y-15997984D01*
X12505896Y-15997984D02*
X12486848Y-15997984D01*
X12486848Y-15997984D02*
X12467801Y-15988460D01*
X12467801Y-15988460D02*
X12458277Y-15978936D01*
X12458277Y-15978936D02*
X12448753Y-15959888D01*
X12448753Y-15959888D02*
X12439229Y-15921793D01*
X12439229Y-15921793D02*
X12439229Y-15874174D01*
X12439229Y-15874174D02*
X12448753Y-15836079D01*
X12448753Y-15836079D02*
X12458277Y-15817031D01*
X12458277Y-15817031D02*
X12467801Y-15807508D01*
X12467801Y-15807508D02*
X12486848Y-15797984D01*
X12620182Y-15797984D02*
X12743991Y-15797984D01*
X12743991Y-15797984D02*
X12677325Y-15874174D01*
X12677325Y-15874174D02*
X12705896Y-15874174D01*
X12705896Y-15874174D02*
X12724944Y-15883698D01*
X12724944Y-15883698D02*
X12734467Y-15893222D01*
X12734467Y-15893222D02*
X12743991Y-15912269D01*
X12743991Y-15912269D02*
X12743991Y-15959888D01*
X12743991Y-15959888D02*
X12734467Y-15978936D01*
X12734467Y-15978936D02*
X12724944Y-15988460D01*
X12724944Y-15988460D02*
X12705896Y-15997984D01*
X12705896Y-15997984D02*
X12648753Y-15997984D01*
X12648753Y-15997984D02*
X12629706Y-15988460D01*
X12629706Y-15988460D02*
X12620182Y-15978936D01*
X12924944Y-15797984D02*
X12829706Y-15797984D01*
X12829706Y-15797984D02*
X12820182Y-15893222D01*
X12820182Y-15893222D02*
X12829706Y-15883698D01*
X12829706Y-15883698D02*
X12848753Y-15874174D01*
X12848753Y-15874174D02*
X12896372Y-15874174D01*
X12896372Y-15874174D02*
X12915420Y-15883698D01*
X12915420Y-15883698D02*
X12924944Y-15893222D01*
X12924944Y-15893222D02*
X12934467Y-15912269D01*
X12934467Y-15912269D02*
X12934467Y-15959888D01*
X12934467Y-15959888D02*
X12924944Y-15978936D01*
X12924944Y-15978936D02*
X12915420Y-15988460D01*
X12915420Y-15988460D02*
X12896372Y-15997984D01*
X12896372Y-15997984D02*
X12848753Y-15997984D01*
X12848753Y-15997984D02*
X12829706Y-15988460D01*
X12829706Y-15988460D02*
X12820182Y-15978936D01*
X13105896Y-15864650D02*
X13105896Y-15997984D01*
X13058277Y-15788460D02*
X13010658Y-15931317D01*
X13010658Y-15931317D02*
X13134467Y-15931317D01*
X13201134Y-15797984D02*
X13201134Y-15836079D01*
X13277325Y-15797984D02*
X13277325Y-15836079D01*
X13572563Y-16074174D02*
X13563039Y-16064650D01*
X13563039Y-16064650D02*
X13543991Y-16036079D01*
X13543991Y-16036079D02*
X13534468Y-16017031D01*
X13534468Y-16017031D02*
X13524944Y-15988460D01*
X13524944Y-15988460D02*
X13515420Y-15940841D01*
X13515420Y-15940841D02*
X13515420Y-15902746D01*
X13515420Y-15902746D02*
X13524944Y-15855127D01*
X13524944Y-15855127D02*
X13534468Y-15826555D01*
X13534468Y-15826555D02*
X13543991Y-15807508D01*
X13543991Y-15807508D02*
X13563039Y-15778936D01*
X13563039Y-15778936D02*
X13572563Y-15769412D01*
X13753515Y-15997984D02*
X13639229Y-15997984D01*
X13696372Y-15997984D02*
X13696372Y-15797984D01*
X13696372Y-15797984D02*
X13677325Y-15826555D01*
X13677325Y-15826555D02*
X13658277Y-15845603D01*
X13658277Y-15845603D02*
X13639229Y-15855127D01*
X13924944Y-15797984D02*
X13886848Y-15797984D01*
X13886848Y-15797984D02*
X13867801Y-15807508D01*
X13867801Y-15807508D02*
X13858277Y-15817031D01*
X13858277Y-15817031D02*
X13839229Y-15845603D01*
X13839229Y-15845603D02*
X13829706Y-15883698D01*
X13829706Y-15883698D02*
X13829706Y-15959888D01*
X13829706Y-15959888D02*
X13839229Y-15978936D01*
X13839229Y-15978936D02*
X13848753Y-15988460D01*
X13848753Y-15988460D02*
X13867801Y-15997984D01*
X13867801Y-15997984D02*
X13905896Y-15997984D01*
X13905896Y-15997984D02*
X13924944Y-15988460D01*
X13924944Y-15988460D02*
X13934468Y-15978936D01*
X13934468Y-15978936D02*
X13943991Y-15959888D01*
X13943991Y-15959888D02*
X13943991Y-15912269D01*
X13943991Y-15912269D02*
X13934468Y-15893222D01*
X13934468Y-15893222D02*
X13924944Y-15883698D01*
X13924944Y-15883698D02*
X13905896Y-15874174D01*
X13905896Y-15874174D02*
X13867801Y-15874174D01*
X13867801Y-15874174D02*
X13848753Y-15883698D01*
X13848753Y-15883698D02*
X13839229Y-15893222D01*
X13839229Y-15893222D02*
X13829706Y-15912269D01*
X14182087Y-15997984D02*
X14182087Y-15797984D01*
X14267801Y-15997984D02*
X14267801Y-15893222D01*
X14267801Y-15893222D02*
X14258277Y-15874174D01*
X14258277Y-15874174D02*
X14239230Y-15864650D01*
X14239230Y-15864650D02*
X14210658Y-15864650D01*
X14210658Y-15864650D02*
X14191610Y-15874174D01*
X14191610Y-15874174D02*
X14182087Y-15883698D01*
X14391610Y-15997984D02*
X14372563Y-15988460D01*
X14372563Y-15988460D02*
X14363039Y-15978936D01*
X14363039Y-15978936D02*
X14353515Y-15959888D01*
X14353515Y-15959888D02*
X14353515Y-15902746D01*
X14353515Y-15902746D02*
X14363039Y-15883698D01*
X14363039Y-15883698D02*
X14372563Y-15874174D01*
X14372563Y-15874174D02*
X14391610Y-15864650D01*
X14391610Y-15864650D02*
X14420182Y-15864650D01*
X14420182Y-15864650D02*
X14439230Y-15874174D01*
X14439230Y-15874174D02*
X14448753Y-15883698D01*
X14448753Y-15883698D02*
X14458277Y-15902746D01*
X14458277Y-15902746D02*
X14458277Y-15959888D01*
X14458277Y-15959888D02*
X14448753Y-15978936D01*
X14448753Y-15978936D02*
X14439230Y-15988460D01*
X14439230Y-15988460D02*
X14420182Y-15997984D01*
X14420182Y-15997984D02*
X14391610Y-15997984D01*
X14572563Y-15997984D02*
X14553515Y-15988460D01*
X14553515Y-15988460D02*
X14543991Y-15969412D01*
X14543991Y-15969412D02*
X14543991Y-15797984D01*
X14724944Y-15988460D02*
X14705896Y-15997984D01*
X14705896Y-15997984D02*
X14667801Y-15997984D01*
X14667801Y-15997984D02*
X14648753Y-15988460D01*
X14648753Y-15988460D02*
X14639230Y-15969412D01*
X14639230Y-15969412D02*
X14639230Y-15893222D01*
X14639230Y-15893222D02*
X14648753Y-15874174D01*
X14648753Y-15874174D02*
X14667801Y-15864650D01*
X14667801Y-15864650D02*
X14705896Y-15864650D01*
X14705896Y-15864650D02*
X14724944Y-15874174D01*
X14724944Y-15874174D02*
X14734468Y-15893222D01*
X14734468Y-15893222D02*
X14734468Y-15912269D01*
X14734468Y-15912269D02*
X14639230Y-15931317D01*
X14810658Y-15988460D02*
X14829706Y-15997984D01*
X14829706Y-15997984D02*
X14867801Y-15997984D01*
X14867801Y-15997984D02*
X14886849Y-15988460D01*
X14886849Y-15988460D02*
X14896372Y-15969412D01*
X14896372Y-15969412D02*
X14896372Y-15959888D01*
X14896372Y-15959888D02*
X14886849Y-15940841D01*
X14886849Y-15940841D02*
X14867801Y-15931317D01*
X14867801Y-15931317D02*
X14839230Y-15931317D01*
X14839230Y-15931317D02*
X14820182Y-15921793D01*
X14820182Y-15921793D02*
X14810658Y-15902746D01*
X14810658Y-15902746D02*
X14810658Y-15893222D01*
X14810658Y-15893222D02*
X14820182Y-15874174D01*
X14820182Y-15874174D02*
X14839230Y-15864650D01*
X14839230Y-15864650D02*
X14867801Y-15864650D01*
X14867801Y-15864650D02*
X14886849Y-15874174D01*
X14963039Y-16074174D02*
X14972563Y-16064650D01*
X14972563Y-16064650D02*
X14991611Y-16036079D01*
X14991611Y-16036079D02*
X15001134Y-16017031D01*
X15001134Y-16017031D02*
X15010658Y-15988460D01*
X15010658Y-15988460D02*
X15020182Y-15940841D01*
X15020182Y-15940841D02*
X15020182Y-15902746D01*
X15020182Y-15902746D02*
X15010658Y-15855127D01*
X15010658Y-15855127D02*
X15001134Y-15826555D01*
X15001134Y-15826555D02*
X14991611Y-15807508D01*
X14991611Y-15807508D02*
X14972563Y-15778936D01*
X14972563Y-15778936D02*
X14963039Y-15769412D01*
D12*
X9947500Y-16120500D02*
X9947500Y-16220500D01*
X9897500Y-16170500D02*
X9997500Y-16170500D01*
D11*
X10363039Y-16261984D02*
X10248753Y-16261984D01*
X10305896Y-16261984D02*
X10305896Y-16061984D01*
X10305896Y-16061984D02*
X10286848Y-16090555D01*
X10286848Y-16090555D02*
X10267801Y-16109603D01*
X10267801Y-16109603D02*
X10248753Y-16119127D01*
X10448753Y-16242936D02*
X10458277Y-16252460D01*
X10458277Y-16252460D02*
X10448753Y-16261984D01*
X10448753Y-16261984D02*
X10439229Y-16252460D01*
X10439229Y-16252460D02*
X10448753Y-16242936D01*
X10448753Y-16242936D02*
X10448753Y-16261984D01*
X10582086Y-16061984D02*
X10601134Y-16061984D01*
X10601134Y-16061984D02*
X10620182Y-16071508D01*
X10620182Y-16071508D02*
X10629705Y-16081031D01*
X10629705Y-16081031D02*
X10639229Y-16100079D01*
X10639229Y-16100079D02*
X10648753Y-16138174D01*
X10648753Y-16138174D02*
X10648753Y-16185793D01*
X10648753Y-16185793D02*
X10639229Y-16223888D01*
X10639229Y-16223888D02*
X10629705Y-16242936D01*
X10629705Y-16242936D02*
X10620182Y-16252460D01*
X10620182Y-16252460D02*
X10601134Y-16261984D01*
X10601134Y-16261984D02*
X10582086Y-16261984D01*
X10582086Y-16261984D02*
X10563039Y-16252460D01*
X10563039Y-16252460D02*
X10553515Y-16242936D01*
X10553515Y-16242936D02*
X10543991Y-16223888D01*
X10543991Y-16223888D02*
X10534467Y-16185793D01*
X10534467Y-16185793D02*
X10534467Y-16138174D01*
X10534467Y-16138174D02*
X10543991Y-16100079D01*
X10543991Y-16100079D02*
X10553515Y-16081031D01*
X10553515Y-16081031D02*
X10563039Y-16071508D01*
X10563039Y-16071508D02*
X10582086Y-16061984D01*
X10772563Y-16061984D02*
X10791610Y-16061984D01*
X10791610Y-16061984D02*
X10810658Y-16071508D01*
X10810658Y-16071508D02*
X10820182Y-16081031D01*
X10820182Y-16081031D02*
X10829705Y-16100079D01*
X10829705Y-16100079D02*
X10839229Y-16138174D01*
X10839229Y-16138174D02*
X10839229Y-16185793D01*
X10839229Y-16185793D02*
X10829705Y-16223888D01*
X10829705Y-16223888D02*
X10820182Y-16242936D01*
X10820182Y-16242936D02*
X10810658Y-16252460D01*
X10810658Y-16252460D02*
X10791610Y-16261984D01*
X10791610Y-16261984D02*
X10772563Y-16261984D01*
X10772563Y-16261984D02*
X10753515Y-16252460D01*
X10753515Y-16252460D02*
X10743991Y-16242936D01*
X10743991Y-16242936D02*
X10734467Y-16223888D01*
X10734467Y-16223888D02*
X10724944Y-16185793D01*
X10724944Y-16185793D02*
X10724944Y-16138174D01*
X10724944Y-16138174D02*
X10734467Y-16100079D01*
X10734467Y-16100079D02*
X10743991Y-16081031D01*
X10743991Y-16081031D02*
X10753515Y-16071508D01*
X10753515Y-16071508D02*
X10772563Y-16061984D01*
X10963039Y-16061984D02*
X10982086Y-16061984D01*
X10982086Y-16061984D02*
X11001134Y-16071508D01*
X11001134Y-16071508D02*
X11010658Y-16081031D01*
X11010658Y-16081031D02*
X11020182Y-16100079D01*
X11020182Y-16100079D02*
X11029705Y-16138174D01*
X11029705Y-16138174D02*
X11029705Y-16185793D01*
X11029705Y-16185793D02*
X11020182Y-16223888D01*
X11020182Y-16223888D02*
X11010658Y-16242936D01*
X11010658Y-16242936D02*
X11001134Y-16252460D01*
X11001134Y-16252460D02*
X10982086Y-16261984D01*
X10982086Y-16261984D02*
X10963039Y-16261984D01*
X10963039Y-16261984D02*
X10943991Y-16252460D01*
X10943991Y-16252460D02*
X10934467Y-16242936D01*
X10934467Y-16242936D02*
X10924944Y-16223888D01*
X10924944Y-16223888D02*
X10915420Y-16185793D01*
X10915420Y-16185793D02*
X10915420Y-16138174D01*
X10915420Y-16138174D02*
X10924944Y-16100079D01*
X10924944Y-16100079D02*
X10934467Y-16081031D01*
X10934467Y-16081031D02*
X10943991Y-16071508D01*
X10943991Y-16071508D02*
X10963039Y-16061984D01*
X11115420Y-16261984D02*
X11115420Y-16128650D01*
X11115420Y-16147698D02*
X11124944Y-16138174D01*
X11124944Y-16138174D02*
X11143991Y-16128650D01*
X11143991Y-16128650D02*
X11172563Y-16128650D01*
X11172563Y-16128650D02*
X11191610Y-16138174D01*
X11191610Y-16138174D02*
X11201134Y-16157222D01*
X11201134Y-16157222D02*
X11201134Y-16261984D01*
X11201134Y-16157222D02*
X11210658Y-16138174D01*
X11210658Y-16138174D02*
X11229705Y-16128650D01*
X11229705Y-16128650D02*
X11258277Y-16128650D01*
X11258277Y-16128650D02*
X11277324Y-16138174D01*
X11277324Y-16138174D02*
X11286848Y-16157222D01*
X11286848Y-16157222D02*
X11286848Y-16261984D01*
X11382086Y-16261984D02*
X11382086Y-16128650D01*
X11382086Y-16147698D02*
X11391610Y-16138174D01*
X11391610Y-16138174D02*
X11410658Y-16128650D01*
X11410658Y-16128650D02*
X11439229Y-16128650D01*
X11439229Y-16128650D02*
X11458277Y-16138174D01*
X11458277Y-16138174D02*
X11467801Y-16157222D01*
X11467801Y-16157222D02*
X11467801Y-16261984D01*
X11467801Y-16157222D02*
X11477324Y-16138174D01*
X11477324Y-16138174D02*
X11496372Y-16128650D01*
X11496372Y-16128650D02*
X11524943Y-16128650D01*
X11524943Y-16128650D02*
X11543991Y-16138174D01*
X11543991Y-16138174D02*
X11553515Y-16157222D01*
X11553515Y-16157222D02*
X11553515Y-16261984D01*
X11943991Y-16052460D02*
X11772563Y-16309603D01*
X12201134Y-16061984D02*
X12220182Y-16061984D01*
X12220182Y-16061984D02*
X12239229Y-16071508D01*
X12239229Y-16071508D02*
X12248753Y-16081031D01*
X12248753Y-16081031D02*
X12258277Y-16100079D01*
X12258277Y-16100079D02*
X12267801Y-16138174D01*
X12267801Y-16138174D02*
X12267801Y-16185793D01*
X12267801Y-16185793D02*
X12258277Y-16223888D01*
X12258277Y-16223888D02*
X12248753Y-16242936D01*
X12248753Y-16242936D02*
X12239229Y-16252460D01*
X12239229Y-16252460D02*
X12220182Y-16261984D01*
X12220182Y-16261984D02*
X12201134Y-16261984D01*
X12201134Y-16261984D02*
X12182086Y-16252460D01*
X12182086Y-16252460D02*
X12172563Y-16242936D01*
X12172563Y-16242936D02*
X12163039Y-16223888D01*
X12163039Y-16223888D02*
X12153515Y-16185793D01*
X12153515Y-16185793D02*
X12153515Y-16138174D01*
X12153515Y-16138174D02*
X12163039Y-16100079D01*
X12163039Y-16100079D02*
X12172563Y-16081031D01*
X12172563Y-16081031D02*
X12182086Y-16071508D01*
X12182086Y-16071508D02*
X12201134Y-16061984D01*
X12353515Y-16242936D02*
X12363039Y-16252460D01*
X12363039Y-16252460D02*
X12353515Y-16261984D01*
X12353515Y-16261984D02*
X12343991Y-16252460D01*
X12343991Y-16252460D02*
X12353515Y-16242936D01*
X12353515Y-16242936D02*
X12353515Y-16261984D01*
X12486848Y-16061984D02*
X12505896Y-16061984D01*
X12505896Y-16061984D02*
X12524944Y-16071508D01*
X12524944Y-16071508D02*
X12534467Y-16081031D01*
X12534467Y-16081031D02*
X12543991Y-16100079D01*
X12543991Y-16100079D02*
X12553515Y-16138174D01*
X12553515Y-16138174D02*
X12553515Y-16185793D01*
X12553515Y-16185793D02*
X12543991Y-16223888D01*
X12543991Y-16223888D02*
X12534467Y-16242936D01*
X12534467Y-16242936D02*
X12524944Y-16252460D01*
X12524944Y-16252460D02*
X12505896Y-16261984D01*
X12505896Y-16261984D02*
X12486848Y-16261984D01*
X12486848Y-16261984D02*
X12467801Y-16252460D01*
X12467801Y-16252460D02*
X12458277Y-16242936D01*
X12458277Y-16242936D02*
X12448753Y-16223888D01*
X12448753Y-16223888D02*
X12439229Y-16185793D01*
X12439229Y-16185793D02*
X12439229Y-16138174D01*
X12439229Y-16138174D02*
X12448753Y-16100079D01*
X12448753Y-16100079D02*
X12458277Y-16081031D01*
X12458277Y-16081031D02*
X12467801Y-16071508D01*
X12467801Y-16071508D02*
X12486848Y-16061984D01*
X12620182Y-16061984D02*
X12743991Y-16061984D01*
X12743991Y-16061984D02*
X12677325Y-16138174D01*
X12677325Y-16138174D02*
X12705896Y-16138174D01*
X12705896Y-16138174D02*
X12724944Y-16147698D01*
X12724944Y-16147698D02*
X12734467Y-16157222D01*
X12734467Y-16157222D02*
X12743991Y-16176269D01*
X12743991Y-16176269D02*
X12743991Y-16223888D01*
X12743991Y-16223888D02*
X12734467Y-16242936D01*
X12734467Y-16242936D02*
X12724944Y-16252460D01*
X12724944Y-16252460D02*
X12705896Y-16261984D01*
X12705896Y-16261984D02*
X12648753Y-16261984D01*
X12648753Y-16261984D02*
X12629706Y-16252460D01*
X12629706Y-16252460D02*
X12620182Y-16242936D01*
X12839229Y-16261984D02*
X12877325Y-16261984D01*
X12877325Y-16261984D02*
X12896372Y-16252460D01*
X12896372Y-16252460D02*
X12905896Y-16242936D01*
X12905896Y-16242936D02*
X12924944Y-16214365D01*
X12924944Y-16214365D02*
X12934467Y-16176269D01*
X12934467Y-16176269D02*
X12934467Y-16100079D01*
X12934467Y-16100079D02*
X12924944Y-16081031D01*
X12924944Y-16081031D02*
X12915420Y-16071508D01*
X12915420Y-16071508D02*
X12896372Y-16061984D01*
X12896372Y-16061984D02*
X12858277Y-16061984D01*
X12858277Y-16061984D02*
X12839229Y-16071508D01*
X12839229Y-16071508D02*
X12829706Y-16081031D01*
X12829706Y-16081031D02*
X12820182Y-16100079D01*
X12820182Y-16100079D02*
X12820182Y-16147698D01*
X12820182Y-16147698D02*
X12829706Y-16166746D01*
X12829706Y-16166746D02*
X12839229Y-16176269D01*
X12839229Y-16176269D02*
X12858277Y-16185793D01*
X12858277Y-16185793D02*
X12896372Y-16185793D01*
X12896372Y-16185793D02*
X12915420Y-16176269D01*
X12915420Y-16176269D02*
X12924944Y-16166746D01*
X12924944Y-16166746D02*
X12934467Y-16147698D01*
X13105896Y-16128650D02*
X13105896Y-16261984D01*
X13058277Y-16052460D02*
X13010658Y-16195317D01*
X13010658Y-16195317D02*
X13134467Y-16195317D01*
X13201134Y-16061984D02*
X13201134Y-16100079D01*
X13277325Y-16061984D02*
X13277325Y-16100079D01*
X13572563Y-16338174D02*
X13563039Y-16328650D01*
X13563039Y-16328650D02*
X13543991Y-16300079D01*
X13543991Y-16300079D02*
X13534468Y-16281031D01*
X13534468Y-16281031D02*
X13524944Y-16252460D01*
X13524944Y-16252460D02*
X13515420Y-16204841D01*
X13515420Y-16204841D02*
X13515420Y-16166746D01*
X13515420Y-16166746D02*
X13524944Y-16119127D01*
X13524944Y-16119127D02*
X13534468Y-16090555D01*
X13534468Y-16090555D02*
X13543991Y-16071508D01*
X13543991Y-16071508D02*
X13563039Y-16042936D01*
X13563039Y-16042936D02*
X13572563Y-16033412D01*
X13734468Y-16128650D02*
X13734468Y-16261984D01*
X13686848Y-16052460D02*
X13639229Y-16195317D01*
X13639229Y-16195317D02*
X13763039Y-16195317D01*
X13867801Y-16147698D02*
X13848753Y-16138174D01*
X13848753Y-16138174D02*
X13839229Y-16128650D01*
X13839229Y-16128650D02*
X13829706Y-16109603D01*
X13829706Y-16109603D02*
X13829706Y-16100079D01*
X13829706Y-16100079D02*
X13839229Y-16081031D01*
X13839229Y-16081031D02*
X13848753Y-16071508D01*
X13848753Y-16071508D02*
X13867801Y-16061984D01*
X13867801Y-16061984D02*
X13905896Y-16061984D01*
X13905896Y-16061984D02*
X13924944Y-16071508D01*
X13924944Y-16071508D02*
X13934468Y-16081031D01*
X13934468Y-16081031D02*
X13943991Y-16100079D01*
X13943991Y-16100079D02*
X13943991Y-16109603D01*
X13943991Y-16109603D02*
X13934468Y-16128650D01*
X13934468Y-16128650D02*
X13924944Y-16138174D01*
X13924944Y-16138174D02*
X13905896Y-16147698D01*
X13905896Y-16147698D02*
X13867801Y-16147698D01*
X13867801Y-16147698D02*
X13848753Y-16157222D01*
X13848753Y-16157222D02*
X13839229Y-16166746D01*
X13839229Y-16166746D02*
X13829706Y-16185793D01*
X13829706Y-16185793D02*
X13829706Y-16223888D01*
X13829706Y-16223888D02*
X13839229Y-16242936D01*
X13839229Y-16242936D02*
X13848753Y-16252460D01*
X13848753Y-16252460D02*
X13867801Y-16261984D01*
X13867801Y-16261984D02*
X13905896Y-16261984D01*
X13905896Y-16261984D02*
X13924944Y-16252460D01*
X13924944Y-16252460D02*
X13934468Y-16242936D01*
X13934468Y-16242936D02*
X13943991Y-16223888D01*
X13943991Y-16223888D02*
X13943991Y-16185793D01*
X13943991Y-16185793D02*
X13934468Y-16166746D01*
X13934468Y-16166746D02*
X13924944Y-16157222D01*
X13924944Y-16157222D02*
X13905896Y-16147698D01*
X14182087Y-16261984D02*
X14182087Y-16061984D01*
X14267801Y-16261984D02*
X14267801Y-16157222D01*
X14267801Y-16157222D02*
X14258277Y-16138174D01*
X14258277Y-16138174D02*
X14239230Y-16128650D01*
X14239230Y-16128650D02*
X14210658Y-16128650D01*
X14210658Y-16128650D02*
X14191610Y-16138174D01*
X14191610Y-16138174D02*
X14182087Y-16147698D01*
X14391610Y-16261984D02*
X14372563Y-16252460D01*
X14372563Y-16252460D02*
X14363039Y-16242936D01*
X14363039Y-16242936D02*
X14353515Y-16223888D01*
X14353515Y-16223888D02*
X14353515Y-16166746D01*
X14353515Y-16166746D02*
X14363039Y-16147698D01*
X14363039Y-16147698D02*
X14372563Y-16138174D01*
X14372563Y-16138174D02*
X14391610Y-16128650D01*
X14391610Y-16128650D02*
X14420182Y-16128650D01*
X14420182Y-16128650D02*
X14439230Y-16138174D01*
X14439230Y-16138174D02*
X14448753Y-16147698D01*
X14448753Y-16147698D02*
X14458277Y-16166746D01*
X14458277Y-16166746D02*
X14458277Y-16223888D01*
X14458277Y-16223888D02*
X14448753Y-16242936D01*
X14448753Y-16242936D02*
X14439230Y-16252460D01*
X14439230Y-16252460D02*
X14420182Y-16261984D01*
X14420182Y-16261984D02*
X14391610Y-16261984D01*
X14572563Y-16261984D02*
X14553515Y-16252460D01*
X14553515Y-16252460D02*
X14543991Y-16233412D01*
X14543991Y-16233412D02*
X14543991Y-16061984D01*
X14724944Y-16252460D02*
X14705896Y-16261984D01*
X14705896Y-16261984D02*
X14667801Y-16261984D01*
X14667801Y-16261984D02*
X14648753Y-16252460D01*
X14648753Y-16252460D02*
X14639230Y-16233412D01*
X14639230Y-16233412D02*
X14639230Y-16157222D01*
X14639230Y-16157222D02*
X14648753Y-16138174D01*
X14648753Y-16138174D02*
X14667801Y-16128650D01*
X14667801Y-16128650D02*
X14705896Y-16128650D01*
X14705896Y-16128650D02*
X14724944Y-16138174D01*
X14724944Y-16138174D02*
X14734468Y-16157222D01*
X14734468Y-16157222D02*
X14734468Y-16176269D01*
X14734468Y-16176269D02*
X14639230Y-16195317D01*
X14810658Y-16252460D02*
X14829706Y-16261984D01*
X14829706Y-16261984D02*
X14867801Y-16261984D01*
X14867801Y-16261984D02*
X14886849Y-16252460D01*
X14886849Y-16252460D02*
X14896372Y-16233412D01*
X14896372Y-16233412D02*
X14896372Y-16223888D01*
X14896372Y-16223888D02*
X14886849Y-16204841D01*
X14886849Y-16204841D02*
X14867801Y-16195317D01*
X14867801Y-16195317D02*
X14839230Y-16195317D01*
X14839230Y-16195317D02*
X14820182Y-16185793D01*
X14820182Y-16185793D02*
X14810658Y-16166746D01*
X14810658Y-16166746D02*
X14810658Y-16157222D01*
X14810658Y-16157222D02*
X14820182Y-16138174D01*
X14820182Y-16138174D02*
X14839230Y-16128650D01*
X14839230Y-16128650D02*
X14867801Y-16128650D01*
X14867801Y-16128650D02*
X14886849Y-16138174D01*
X14963039Y-16338174D02*
X14972563Y-16328650D01*
X14972563Y-16328650D02*
X14991611Y-16300079D01*
X14991611Y-16300079D02*
X15001134Y-16281031D01*
X15001134Y-16281031D02*
X15010658Y-16252460D01*
X15010658Y-16252460D02*
X15020182Y-16204841D01*
X15020182Y-16204841D02*
X15020182Y-16166746D01*
X15020182Y-16166746D02*
X15010658Y-16119127D01*
X15010658Y-16119127D02*
X15001134Y-16090555D01*
X15001134Y-16090555D02*
X14991611Y-16071508D01*
X14991611Y-16071508D02*
X14972563Y-16042936D01*
X14972563Y-16042936D02*
X14963039Y-16033412D01*
D13*
X9981391Y-16473391D02*
X9981391Y-16395609D01*
X9903609Y-16395609D01*
X9903609Y-16473391D01*
X9981391Y-16473391D01*
D11*
X10363039Y-16525984D02*
X10248753Y-16525984D01*
X10305896Y-16525984D02*
X10305896Y-16325984D01*
X10305896Y-16325984D02*
X10286848Y-16354555D01*
X10286848Y-16354555D02*
X10267801Y-16373603D01*
X10267801Y-16373603D02*
X10248753Y-16383127D01*
X10448753Y-16506936D02*
X10458277Y-16516460D01*
X10458277Y-16516460D02*
X10448753Y-16525984D01*
X10448753Y-16525984D02*
X10439229Y-16516460D01*
X10439229Y-16516460D02*
X10448753Y-16506936D01*
X10448753Y-16506936D02*
X10448753Y-16525984D01*
X10648753Y-16525984D02*
X10534467Y-16525984D01*
X10591610Y-16525984D02*
X10591610Y-16325984D01*
X10591610Y-16325984D02*
X10572563Y-16354555D01*
X10572563Y-16354555D02*
X10553515Y-16373603D01*
X10553515Y-16373603D02*
X10534467Y-16383127D01*
X10772563Y-16325984D02*
X10791610Y-16325984D01*
X10791610Y-16325984D02*
X10810658Y-16335508D01*
X10810658Y-16335508D02*
X10820182Y-16345031D01*
X10820182Y-16345031D02*
X10829705Y-16364079D01*
X10829705Y-16364079D02*
X10839229Y-16402174D01*
X10839229Y-16402174D02*
X10839229Y-16449793D01*
X10839229Y-16449793D02*
X10829705Y-16487888D01*
X10829705Y-16487888D02*
X10820182Y-16506936D01*
X10820182Y-16506936D02*
X10810658Y-16516460D01*
X10810658Y-16516460D02*
X10791610Y-16525984D01*
X10791610Y-16525984D02*
X10772563Y-16525984D01*
X10772563Y-16525984D02*
X10753515Y-16516460D01*
X10753515Y-16516460D02*
X10743991Y-16506936D01*
X10743991Y-16506936D02*
X10734467Y-16487888D01*
X10734467Y-16487888D02*
X10724944Y-16449793D01*
X10724944Y-16449793D02*
X10724944Y-16402174D01*
X10724944Y-16402174D02*
X10734467Y-16364079D01*
X10734467Y-16364079D02*
X10743991Y-16345031D01*
X10743991Y-16345031D02*
X10753515Y-16335508D01*
X10753515Y-16335508D02*
X10772563Y-16325984D01*
X10963039Y-16325984D02*
X10982086Y-16325984D01*
X10982086Y-16325984D02*
X11001134Y-16335508D01*
X11001134Y-16335508D02*
X11010658Y-16345031D01*
X11010658Y-16345031D02*
X11020182Y-16364079D01*
X11020182Y-16364079D02*
X11029705Y-16402174D01*
X11029705Y-16402174D02*
X11029705Y-16449793D01*
X11029705Y-16449793D02*
X11020182Y-16487888D01*
X11020182Y-16487888D02*
X11010658Y-16506936D01*
X11010658Y-16506936D02*
X11001134Y-16516460D01*
X11001134Y-16516460D02*
X10982086Y-16525984D01*
X10982086Y-16525984D02*
X10963039Y-16525984D01*
X10963039Y-16525984D02*
X10943991Y-16516460D01*
X10943991Y-16516460D02*
X10934467Y-16506936D01*
X10934467Y-16506936D02*
X10924944Y-16487888D01*
X10924944Y-16487888D02*
X10915420Y-16449793D01*
X10915420Y-16449793D02*
X10915420Y-16402174D01*
X10915420Y-16402174D02*
X10924944Y-16364079D01*
X10924944Y-16364079D02*
X10934467Y-16345031D01*
X10934467Y-16345031D02*
X10943991Y-16335508D01*
X10943991Y-16335508D02*
X10963039Y-16325984D01*
X11115420Y-16525984D02*
X11115420Y-16392650D01*
X11115420Y-16411698D02*
X11124944Y-16402174D01*
X11124944Y-16402174D02*
X11143991Y-16392650D01*
X11143991Y-16392650D02*
X11172563Y-16392650D01*
X11172563Y-16392650D02*
X11191610Y-16402174D01*
X11191610Y-16402174D02*
X11201134Y-16421222D01*
X11201134Y-16421222D02*
X11201134Y-16525984D01*
X11201134Y-16421222D02*
X11210658Y-16402174D01*
X11210658Y-16402174D02*
X11229705Y-16392650D01*
X11229705Y-16392650D02*
X11258277Y-16392650D01*
X11258277Y-16392650D02*
X11277324Y-16402174D01*
X11277324Y-16402174D02*
X11286848Y-16421222D01*
X11286848Y-16421222D02*
X11286848Y-16525984D01*
X11382086Y-16525984D02*
X11382086Y-16392650D01*
X11382086Y-16411698D02*
X11391610Y-16402174D01*
X11391610Y-16402174D02*
X11410658Y-16392650D01*
X11410658Y-16392650D02*
X11439229Y-16392650D01*
X11439229Y-16392650D02*
X11458277Y-16402174D01*
X11458277Y-16402174D02*
X11467801Y-16421222D01*
X11467801Y-16421222D02*
X11467801Y-16525984D01*
X11467801Y-16421222D02*
X11477324Y-16402174D01*
X11477324Y-16402174D02*
X11496372Y-16392650D01*
X11496372Y-16392650D02*
X11524943Y-16392650D01*
X11524943Y-16392650D02*
X11543991Y-16402174D01*
X11543991Y-16402174D02*
X11553515Y-16421222D01*
X11553515Y-16421222D02*
X11553515Y-16525984D01*
X11943991Y-16316460D02*
X11772563Y-16573603D01*
X12201134Y-16325984D02*
X12220182Y-16325984D01*
X12220182Y-16325984D02*
X12239229Y-16335508D01*
X12239229Y-16335508D02*
X12248753Y-16345031D01*
X12248753Y-16345031D02*
X12258277Y-16364079D01*
X12258277Y-16364079D02*
X12267801Y-16402174D01*
X12267801Y-16402174D02*
X12267801Y-16449793D01*
X12267801Y-16449793D02*
X12258277Y-16487888D01*
X12258277Y-16487888D02*
X12248753Y-16506936D01*
X12248753Y-16506936D02*
X12239229Y-16516460D01*
X12239229Y-16516460D02*
X12220182Y-16525984D01*
X12220182Y-16525984D02*
X12201134Y-16525984D01*
X12201134Y-16525984D02*
X12182086Y-16516460D01*
X12182086Y-16516460D02*
X12172563Y-16506936D01*
X12172563Y-16506936D02*
X12163039Y-16487888D01*
X12163039Y-16487888D02*
X12153515Y-16449793D01*
X12153515Y-16449793D02*
X12153515Y-16402174D01*
X12153515Y-16402174D02*
X12163039Y-16364079D01*
X12163039Y-16364079D02*
X12172563Y-16345031D01*
X12172563Y-16345031D02*
X12182086Y-16335508D01*
X12182086Y-16335508D02*
X12201134Y-16325984D01*
X12353515Y-16506936D02*
X12363039Y-16516460D01*
X12363039Y-16516460D02*
X12353515Y-16525984D01*
X12353515Y-16525984D02*
X12343991Y-16516460D01*
X12343991Y-16516460D02*
X12353515Y-16506936D01*
X12353515Y-16506936D02*
X12353515Y-16525984D01*
X12486848Y-16325984D02*
X12505896Y-16325984D01*
X12505896Y-16325984D02*
X12524944Y-16335508D01*
X12524944Y-16335508D02*
X12534467Y-16345031D01*
X12534467Y-16345031D02*
X12543991Y-16364079D01*
X12543991Y-16364079D02*
X12553515Y-16402174D01*
X12553515Y-16402174D02*
X12553515Y-16449793D01*
X12553515Y-16449793D02*
X12543991Y-16487888D01*
X12543991Y-16487888D02*
X12534467Y-16506936D01*
X12534467Y-16506936D02*
X12524944Y-16516460D01*
X12524944Y-16516460D02*
X12505896Y-16525984D01*
X12505896Y-16525984D02*
X12486848Y-16525984D01*
X12486848Y-16525984D02*
X12467801Y-16516460D01*
X12467801Y-16516460D02*
X12458277Y-16506936D01*
X12458277Y-16506936D02*
X12448753Y-16487888D01*
X12448753Y-16487888D02*
X12439229Y-16449793D01*
X12439229Y-16449793D02*
X12439229Y-16402174D01*
X12439229Y-16402174D02*
X12448753Y-16364079D01*
X12448753Y-16364079D02*
X12458277Y-16345031D01*
X12458277Y-16345031D02*
X12467801Y-16335508D01*
X12467801Y-16335508D02*
X12486848Y-16325984D01*
X12724944Y-16392650D02*
X12724944Y-16525984D01*
X12677325Y-16316460D02*
X12629706Y-16459317D01*
X12629706Y-16459317D02*
X12753515Y-16459317D01*
X12810658Y-16325984D02*
X12934467Y-16325984D01*
X12934467Y-16325984D02*
X12867801Y-16402174D01*
X12867801Y-16402174D02*
X12896372Y-16402174D01*
X12896372Y-16402174D02*
X12915420Y-16411698D01*
X12915420Y-16411698D02*
X12924944Y-16421222D01*
X12924944Y-16421222D02*
X12934467Y-16440269D01*
X12934467Y-16440269D02*
X12934467Y-16487888D01*
X12934467Y-16487888D02*
X12924944Y-16506936D01*
X12924944Y-16506936D02*
X12915420Y-16516460D01*
X12915420Y-16516460D02*
X12896372Y-16525984D01*
X12896372Y-16525984D02*
X12839229Y-16525984D01*
X12839229Y-16525984D02*
X12820182Y-16516460D01*
X12820182Y-16516460D02*
X12810658Y-16506936D01*
X13001134Y-16325984D02*
X13124944Y-16325984D01*
X13124944Y-16325984D02*
X13058277Y-16402174D01*
X13058277Y-16402174D02*
X13086848Y-16402174D01*
X13086848Y-16402174D02*
X13105896Y-16411698D01*
X13105896Y-16411698D02*
X13115420Y-16421222D01*
X13115420Y-16421222D02*
X13124944Y-16440269D01*
X13124944Y-16440269D02*
X13124944Y-16487888D01*
X13124944Y-16487888D02*
X13115420Y-16506936D01*
X13115420Y-16506936D02*
X13105896Y-16516460D01*
X13105896Y-16516460D02*
X13086848Y-16525984D01*
X13086848Y-16525984D02*
X13029706Y-16525984D01*
X13029706Y-16525984D02*
X13010658Y-16516460D01*
X13010658Y-16516460D02*
X13001134Y-16506936D01*
X13201134Y-16325984D02*
X13201134Y-16364079D01*
X13277325Y-16325984D02*
X13277325Y-16364079D01*
X13572563Y-16602174D02*
X13563039Y-16592650D01*
X13563039Y-16592650D02*
X13543991Y-16564079D01*
X13543991Y-16564079D02*
X13534468Y-16545031D01*
X13534468Y-16545031D02*
X13524944Y-16516460D01*
X13524944Y-16516460D02*
X13515420Y-16468841D01*
X13515420Y-16468841D02*
X13515420Y-16430746D01*
X13515420Y-16430746D02*
X13524944Y-16383127D01*
X13524944Y-16383127D02*
X13534468Y-16354555D01*
X13534468Y-16354555D02*
X13543991Y-16335508D01*
X13543991Y-16335508D02*
X13563039Y-16306936D01*
X13563039Y-16306936D02*
X13572563Y-16297412D01*
X13753515Y-16525984D02*
X13639229Y-16525984D01*
X13696372Y-16525984D02*
X13696372Y-16325984D01*
X13696372Y-16325984D02*
X13677325Y-16354555D01*
X13677325Y-16354555D02*
X13658277Y-16373603D01*
X13658277Y-16373603D02*
X13639229Y-16383127D01*
X13867801Y-16411698D02*
X13848753Y-16402174D01*
X13848753Y-16402174D02*
X13839229Y-16392650D01*
X13839229Y-16392650D02*
X13829706Y-16373603D01*
X13829706Y-16373603D02*
X13829706Y-16364079D01*
X13829706Y-16364079D02*
X13839229Y-16345031D01*
X13839229Y-16345031D02*
X13848753Y-16335508D01*
X13848753Y-16335508D02*
X13867801Y-16325984D01*
X13867801Y-16325984D02*
X13905896Y-16325984D01*
X13905896Y-16325984D02*
X13924944Y-16335508D01*
X13924944Y-16335508D02*
X13934468Y-16345031D01*
X13934468Y-16345031D02*
X13943991Y-16364079D01*
X13943991Y-16364079D02*
X13943991Y-16373603D01*
X13943991Y-16373603D02*
X13934468Y-16392650D01*
X13934468Y-16392650D02*
X13924944Y-16402174D01*
X13924944Y-16402174D02*
X13905896Y-16411698D01*
X13905896Y-16411698D02*
X13867801Y-16411698D01*
X13867801Y-16411698D02*
X13848753Y-16421222D01*
X13848753Y-16421222D02*
X13839229Y-16430746D01*
X13839229Y-16430746D02*
X13829706Y-16449793D01*
X13829706Y-16449793D02*
X13829706Y-16487888D01*
X13829706Y-16487888D02*
X13839229Y-16506936D01*
X13839229Y-16506936D02*
X13848753Y-16516460D01*
X13848753Y-16516460D02*
X13867801Y-16525984D01*
X13867801Y-16525984D02*
X13905896Y-16525984D01*
X13905896Y-16525984D02*
X13924944Y-16516460D01*
X13924944Y-16516460D02*
X13934468Y-16506936D01*
X13934468Y-16506936D02*
X13943991Y-16487888D01*
X13943991Y-16487888D02*
X13943991Y-16449793D01*
X13943991Y-16449793D02*
X13934468Y-16430746D01*
X13934468Y-16430746D02*
X13924944Y-16421222D01*
X13924944Y-16421222D02*
X13905896Y-16411698D01*
X14182087Y-16525984D02*
X14182087Y-16325984D01*
X14267801Y-16525984D02*
X14267801Y-16421222D01*
X14267801Y-16421222D02*
X14258277Y-16402174D01*
X14258277Y-16402174D02*
X14239230Y-16392650D01*
X14239230Y-16392650D02*
X14210658Y-16392650D01*
X14210658Y-16392650D02*
X14191610Y-16402174D01*
X14191610Y-16402174D02*
X14182087Y-16411698D01*
X14391610Y-16525984D02*
X14372563Y-16516460D01*
X14372563Y-16516460D02*
X14363039Y-16506936D01*
X14363039Y-16506936D02*
X14353515Y-16487888D01*
X14353515Y-16487888D02*
X14353515Y-16430746D01*
X14353515Y-16430746D02*
X14363039Y-16411698D01*
X14363039Y-16411698D02*
X14372563Y-16402174D01*
X14372563Y-16402174D02*
X14391610Y-16392650D01*
X14391610Y-16392650D02*
X14420182Y-16392650D01*
X14420182Y-16392650D02*
X14439230Y-16402174D01*
X14439230Y-16402174D02*
X14448753Y-16411698D01*
X14448753Y-16411698D02*
X14458277Y-16430746D01*
X14458277Y-16430746D02*
X14458277Y-16487888D01*
X14458277Y-16487888D02*
X14448753Y-16506936D01*
X14448753Y-16506936D02*
X14439230Y-16516460D01*
X14439230Y-16516460D02*
X14420182Y-16525984D01*
X14420182Y-16525984D02*
X14391610Y-16525984D01*
X14572563Y-16525984D02*
X14553515Y-16516460D01*
X14553515Y-16516460D02*
X14543991Y-16497412D01*
X14543991Y-16497412D02*
X14543991Y-16325984D01*
X14724944Y-16516460D02*
X14705896Y-16525984D01*
X14705896Y-16525984D02*
X14667801Y-16525984D01*
X14667801Y-16525984D02*
X14648753Y-16516460D01*
X14648753Y-16516460D02*
X14639230Y-16497412D01*
X14639230Y-16497412D02*
X14639230Y-16421222D01*
X14639230Y-16421222D02*
X14648753Y-16402174D01*
X14648753Y-16402174D02*
X14667801Y-16392650D01*
X14667801Y-16392650D02*
X14705896Y-16392650D01*
X14705896Y-16392650D02*
X14724944Y-16402174D01*
X14724944Y-16402174D02*
X14734468Y-16421222D01*
X14734468Y-16421222D02*
X14734468Y-16440269D01*
X14734468Y-16440269D02*
X14639230Y-16459317D01*
X14810658Y-16516460D02*
X14829706Y-16525984D01*
X14829706Y-16525984D02*
X14867801Y-16525984D01*
X14867801Y-16525984D02*
X14886849Y-16516460D01*
X14886849Y-16516460D02*
X14896372Y-16497412D01*
X14896372Y-16497412D02*
X14896372Y-16487888D01*
X14896372Y-16487888D02*
X14886849Y-16468841D01*
X14886849Y-16468841D02*
X14867801Y-16459317D01*
X14867801Y-16459317D02*
X14839230Y-16459317D01*
X14839230Y-16459317D02*
X14820182Y-16449793D01*
X14820182Y-16449793D02*
X14810658Y-16430746D01*
X14810658Y-16430746D02*
X14810658Y-16421222D01*
X14810658Y-16421222D02*
X14820182Y-16402174D01*
X14820182Y-16402174D02*
X14839230Y-16392650D01*
X14839230Y-16392650D02*
X14867801Y-16392650D01*
X14867801Y-16392650D02*
X14886849Y-16402174D01*
X14963039Y-16602174D02*
X14972563Y-16592650D01*
X14972563Y-16592650D02*
X14991611Y-16564079D01*
X14991611Y-16564079D02*
X15001134Y-16545031D01*
X15001134Y-16545031D02*
X15010658Y-16516460D01*
X15010658Y-16516460D02*
X15020182Y-16468841D01*
X15020182Y-16468841D02*
X15020182Y-16430746D01*
X15020182Y-16430746D02*
X15010658Y-16383127D01*
X15010658Y-16383127D02*
X15001134Y-16354555D01*
X15001134Y-16354555D02*
X14991611Y-16335508D01*
X14991611Y-16335508D02*
X14972563Y-16306936D01*
X14972563Y-16306936D02*
X14963039Y-16297412D01*
D14*
X9937500Y-16758500D02*
X9997500Y-16698500D01*
X9937500Y-16638500D01*
X9877500Y-16698500D01*
X9937500Y-16758500D01*
D11*
X10363039Y-16789984D02*
X10248753Y-16789984D01*
X10305896Y-16789984D02*
X10305896Y-16589984D01*
X10305896Y-16589984D02*
X10286848Y-16618555D01*
X10286848Y-16618555D02*
X10267801Y-16637603D01*
X10267801Y-16637603D02*
X10248753Y-16647127D01*
X10448753Y-16770936D02*
X10458277Y-16780460D01*
X10458277Y-16780460D02*
X10448753Y-16789984D01*
X10448753Y-16789984D02*
X10439229Y-16780460D01*
X10439229Y-16780460D02*
X10448753Y-16770936D01*
X10448753Y-16770936D02*
X10448753Y-16789984D01*
X10534467Y-16609031D02*
X10543991Y-16599508D01*
X10543991Y-16599508D02*
X10563039Y-16589984D01*
X10563039Y-16589984D02*
X10610658Y-16589984D01*
X10610658Y-16589984D02*
X10629705Y-16599508D01*
X10629705Y-16599508D02*
X10639229Y-16609031D01*
X10639229Y-16609031D02*
X10648753Y-16628079D01*
X10648753Y-16628079D02*
X10648753Y-16647127D01*
X10648753Y-16647127D02*
X10639229Y-16675698D01*
X10639229Y-16675698D02*
X10524944Y-16789984D01*
X10524944Y-16789984D02*
X10648753Y-16789984D01*
X10772563Y-16589984D02*
X10791610Y-16589984D01*
X10791610Y-16589984D02*
X10810658Y-16599508D01*
X10810658Y-16599508D02*
X10820182Y-16609031D01*
X10820182Y-16609031D02*
X10829705Y-16628079D01*
X10829705Y-16628079D02*
X10839229Y-16666174D01*
X10839229Y-16666174D02*
X10839229Y-16713793D01*
X10839229Y-16713793D02*
X10829705Y-16751888D01*
X10829705Y-16751888D02*
X10820182Y-16770936D01*
X10820182Y-16770936D02*
X10810658Y-16780460D01*
X10810658Y-16780460D02*
X10791610Y-16789984D01*
X10791610Y-16789984D02*
X10772563Y-16789984D01*
X10772563Y-16789984D02*
X10753515Y-16780460D01*
X10753515Y-16780460D02*
X10743991Y-16770936D01*
X10743991Y-16770936D02*
X10734467Y-16751888D01*
X10734467Y-16751888D02*
X10724944Y-16713793D01*
X10724944Y-16713793D02*
X10724944Y-16666174D01*
X10724944Y-16666174D02*
X10734467Y-16628079D01*
X10734467Y-16628079D02*
X10743991Y-16609031D01*
X10743991Y-16609031D02*
X10753515Y-16599508D01*
X10753515Y-16599508D02*
X10772563Y-16589984D01*
X10963039Y-16589984D02*
X10982086Y-16589984D01*
X10982086Y-16589984D02*
X11001134Y-16599508D01*
X11001134Y-16599508D02*
X11010658Y-16609031D01*
X11010658Y-16609031D02*
X11020182Y-16628079D01*
X11020182Y-16628079D02*
X11029705Y-16666174D01*
X11029705Y-16666174D02*
X11029705Y-16713793D01*
X11029705Y-16713793D02*
X11020182Y-16751888D01*
X11020182Y-16751888D02*
X11010658Y-16770936D01*
X11010658Y-16770936D02*
X11001134Y-16780460D01*
X11001134Y-16780460D02*
X10982086Y-16789984D01*
X10982086Y-16789984D02*
X10963039Y-16789984D01*
X10963039Y-16789984D02*
X10943991Y-16780460D01*
X10943991Y-16780460D02*
X10934467Y-16770936D01*
X10934467Y-16770936D02*
X10924944Y-16751888D01*
X10924944Y-16751888D02*
X10915420Y-16713793D01*
X10915420Y-16713793D02*
X10915420Y-16666174D01*
X10915420Y-16666174D02*
X10924944Y-16628079D01*
X10924944Y-16628079D02*
X10934467Y-16609031D01*
X10934467Y-16609031D02*
X10943991Y-16599508D01*
X10943991Y-16599508D02*
X10963039Y-16589984D01*
X11115420Y-16789984D02*
X11115420Y-16656650D01*
X11115420Y-16675698D02*
X11124944Y-16666174D01*
X11124944Y-16666174D02*
X11143991Y-16656650D01*
X11143991Y-16656650D02*
X11172563Y-16656650D01*
X11172563Y-16656650D02*
X11191610Y-16666174D01*
X11191610Y-16666174D02*
X11201134Y-16685222D01*
X11201134Y-16685222D02*
X11201134Y-16789984D01*
X11201134Y-16685222D02*
X11210658Y-16666174D01*
X11210658Y-16666174D02*
X11229705Y-16656650D01*
X11229705Y-16656650D02*
X11258277Y-16656650D01*
X11258277Y-16656650D02*
X11277324Y-16666174D01*
X11277324Y-16666174D02*
X11286848Y-16685222D01*
X11286848Y-16685222D02*
X11286848Y-16789984D01*
X11382086Y-16789984D02*
X11382086Y-16656650D01*
X11382086Y-16675698D02*
X11391610Y-16666174D01*
X11391610Y-16666174D02*
X11410658Y-16656650D01*
X11410658Y-16656650D02*
X11439229Y-16656650D01*
X11439229Y-16656650D02*
X11458277Y-16666174D01*
X11458277Y-16666174D02*
X11467801Y-16685222D01*
X11467801Y-16685222D02*
X11467801Y-16789984D01*
X11467801Y-16685222D02*
X11477324Y-16666174D01*
X11477324Y-16666174D02*
X11496372Y-16656650D01*
X11496372Y-16656650D02*
X11524943Y-16656650D01*
X11524943Y-16656650D02*
X11543991Y-16666174D01*
X11543991Y-16666174D02*
X11553515Y-16685222D01*
X11553515Y-16685222D02*
X11553515Y-16789984D01*
X11943991Y-16580460D02*
X11772563Y-16837603D01*
X12201134Y-16589984D02*
X12220182Y-16589984D01*
X12220182Y-16589984D02*
X12239229Y-16599508D01*
X12239229Y-16599508D02*
X12248753Y-16609031D01*
X12248753Y-16609031D02*
X12258277Y-16628079D01*
X12258277Y-16628079D02*
X12267801Y-16666174D01*
X12267801Y-16666174D02*
X12267801Y-16713793D01*
X12267801Y-16713793D02*
X12258277Y-16751888D01*
X12258277Y-16751888D02*
X12248753Y-16770936D01*
X12248753Y-16770936D02*
X12239229Y-16780460D01*
X12239229Y-16780460D02*
X12220182Y-16789984D01*
X12220182Y-16789984D02*
X12201134Y-16789984D01*
X12201134Y-16789984D02*
X12182086Y-16780460D01*
X12182086Y-16780460D02*
X12172563Y-16770936D01*
X12172563Y-16770936D02*
X12163039Y-16751888D01*
X12163039Y-16751888D02*
X12153515Y-16713793D01*
X12153515Y-16713793D02*
X12153515Y-16666174D01*
X12153515Y-16666174D02*
X12163039Y-16628079D01*
X12163039Y-16628079D02*
X12172563Y-16609031D01*
X12172563Y-16609031D02*
X12182086Y-16599508D01*
X12182086Y-16599508D02*
X12201134Y-16589984D01*
X12353515Y-16770936D02*
X12363039Y-16780460D01*
X12363039Y-16780460D02*
X12353515Y-16789984D01*
X12353515Y-16789984D02*
X12343991Y-16780460D01*
X12343991Y-16780460D02*
X12353515Y-16770936D01*
X12353515Y-16770936D02*
X12353515Y-16789984D01*
X12486848Y-16589984D02*
X12505896Y-16589984D01*
X12505896Y-16589984D02*
X12524944Y-16599508D01*
X12524944Y-16599508D02*
X12534467Y-16609031D01*
X12534467Y-16609031D02*
X12543991Y-16628079D01*
X12543991Y-16628079D02*
X12553515Y-16666174D01*
X12553515Y-16666174D02*
X12553515Y-16713793D01*
X12553515Y-16713793D02*
X12543991Y-16751888D01*
X12543991Y-16751888D02*
X12534467Y-16770936D01*
X12534467Y-16770936D02*
X12524944Y-16780460D01*
X12524944Y-16780460D02*
X12505896Y-16789984D01*
X12505896Y-16789984D02*
X12486848Y-16789984D01*
X12486848Y-16789984D02*
X12467801Y-16780460D01*
X12467801Y-16780460D02*
X12458277Y-16770936D01*
X12458277Y-16770936D02*
X12448753Y-16751888D01*
X12448753Y-16751888D02*
X12439229Y-16713793D01*
X12439229Y-16713793D02*
X12439229Y-16666174D01*
X12439229Y-16666174D02*
X12448753Y-16628079D01*
X12448753Y-16628079D02*
X12458277Y-16609031D01*
X12458277Y-16609031D02*
X12467801Y-16599508D01*
X12467801Y-16599508D02*
X12486848Y-16589984D01*
X12724944Y-16656650D02*
X12724944Y-16789984D01*
X12677325Y-16580460D02*
X12629706Y-16723317D01*
X12629706Y-16723317D02*
X12753515Y-16723317D01*
X12810658Y-16589984D02*
X12943991Y-16589984D01*
X12943991Y-16589984D02*
X12858277Y-16789984D01*
X13010658Y-16609031D02*
X13020182Y-16599508D01*
X13020182Y-16599508D02*
X13039229Y-16589984D01*
X13039229Y-16589984D02*
X13086848Y-16589984D01*
X13086848Y-16589984D02*
X13105896Y-16599508D01*
X13105896Y-16599508D02*
X13115420Y-16609031D01*
X13115420Y-16609031D02*
X13124944Y-16628079D01*
X13124944Y-16628079D02*
X13124944Y-16647127D01*
X13124944Y-16647127D02*
X13115420Y-16675698D01*
X13115420Y-16675698D02*
X13001134Y-16789984D01*
X13001134Y-16789984D02*
X13124944Y-16789984D01*
X13201134Y-16589984D02*
X13201134Y-16628079D01*
X13277325Y-16589984D02*
X13277325Y-16628079D01*
X13572563Y-16866174D02*
X13563039Y-16856650D01*
X13563039Y-16856650D02*
X13543991Y-16828079D01*
X13543991Y-16828079D02*
X13534468Y-16809031D01*
X13534468Y-16809031D02*
X13524944Y-16780460D01*
X13524944Y-16780460D02*
X13515420Y-16732841D01*
X13515420Y-16732841D02*
X13515420Y-16694746D01*
X13515420Y-16694746D02*
X13524944Y-16647127D01*
X13524944Y-16647127D02*
X13534468Y-16618555D01*
X13534468Y-16618555D02*
X13543991Y-16599508D01*
X13543991Y-16599508D02*
X13563039Y-16570936D01*
X13563039Y-16570936D02*
X13572563Y-16561412D01*
X13677325Y-16675698D02*
X13658277Y-16666174D01*
X13658277Y-16666174D02*
X13648753Y-16656650D01*
X13648753Y-16656650D02*
X13639229Y-16637603D01*
X13639229Y-16637603D02*
X13639229Y-16628079D01*
X13639229Y-16628079D02*
X13648753Y-16609031D01*
X13648753Y-16609031D02*
X13658277Y-16599508D01*
X13658277Y-16599508D02*
X13677325Y-16589984D01*
X13677325Y-16589984D02*
X13715420Y-16589984D01*
X13715420Y-16589984D02*
X13734468Y-16599508D01*
X13734468Y-16599508D02*
X13743991Y-16609031D01*
X13743991Y-16609031D02*
X13753515Y-16628079D01*
X13753515Y-16628079D02*
X13753515Y-16637603D01*
X13753515Y-16637603D02*
X13743991Y-16656650D01*
X13743991Y-16656650D02*
X13734468Y-16666174D01*
X13734468Y-16666174D02*
X13715420Y-16675698D01*
X13715420Y-16675698D02*
X13677325Y-16675698D01*
X13677325Y-16675698D02*
X13658277Y-16685222D01*
X13658277Y-16685222D02*
X13648753Y-16694746D01*
X13648753Y-16694746D02*
X13639229Y-16713793D01*
X13639229Y-16713793D02*
X13639229Y-16751888D01*
X13639229Y-16751888D02*
X13648753Y-16770936D01*
X13648753Y-16770936D02*
X13658277Y-16780460D01*
X13658277Y-16780460D02*
X13677325Y-16789984D01*
X13677325Y-16789984D02*
X13715420Y-16789984D01*
X13715420Y-16789984D02*
X13734468Y-16780460D01*
X13734468Y-16780460D02*
X13743991Y-16770936D01*
X13743991Y-16770936D02*
X13753515Y-16751888D01*
X13753515Y-16751888D02*
X13753515Y-16713793D01*
X13753515Y-16713793D02*
X13743991Y-16694746D01*
X13743991Y-16694746D02*
X13734468Y-16685222D01*
X13734468Y-16685222D02*
X13715420Y-16675698D01*
X13991610Y-16789984D02*
X13991610Y-16589984D01*
X14077325Y-16789984D02*
X14077325Y-16685222D01*
X14077325Y-16685222D02*
X14067801Y-16666174D01*
X14067801Y-16666174D02*
X14048753Y-16656650D01*
X14048753Y-16656650D02*
X14020182Y-16656650D01*
X14020182Y-16656650D02*
X14001134Y-16666174D01*
X14001134Y-16666174D02*
X13991610Y-16675698D01*
X14201134Y-16789984D02*
X14182087Y-16780460D01*
X14182087Y-16780460D02*
X14172563Y-16770936D01*
X14172563Y-16770936D02*
X14163039Y-16751888D01*
X14163039Y-16751888D02*
X14163039Y-16694746D01*
X14163039Y-16694746D02*
X14172563Y-16675698D01*
X14172563Y-16675698D02*
X14182087Y-16666174D01*
X14182087Y-16666174D02*
X14201134Y-16656650D01*
X14201134Y-16656650D02*
X14229706Y-16656650D01*
X14229706Y-16656650D02*
X14248753Y-16666174D01*
X14248753Y-16666174D02*
X14258277Y-16675698D01*
X14258277Y-16675698D02*
X14267801Y-16694746D01*
X14267801Y-16694746D02*
X14267801Y-16751888D01*
X14267801Y-16751888D02*
X14258277Y-16770936D01*
X14258277Y-16770936D02*
X14248753Y-16780460D01*
X14248753Y-16780460D02*
X14229706Y-16789984D01*
X14229706Y-16789984D02*
X14201134Y-16789984D01*
X14382087Y-16789984D02*
X14363039Y-16780460D01*
X14363039Y-16780460D02*
X14353515Y-16761412D01*
X14353515Y-16761412D02*
X14353515Y-16589984D01*
X14534468Y-16780460D02*
X14515420Y-16789984D01*
X14515420Y-16789984D02*
X14477325Y-16789984D01*
X14477325Y-16789984D02*
X14458277Y-16780460D01*
X14458277Y-16780460D02*
X14448753Y-16761412D01*
X14448753Y-16761412D02*
X14448753Y-16685222D01*
X14448753Y-16685222D02*
X14458277Y-16666174D01*
X14458277Y-16666174D02*
X14477325Y-16656650D01*
X14477325Y-16656650D02*
X14515420Y-16656650D01*
X14515420Y-16656650D02*
X14534468Y-16666174D01*
X14534468Y-16666174D02*
X14543991Y-16685222D01*
X14543991Y-16685222D02*
X14543991Y-16704269D01*
X14543991Y-16704269D02*
X14448753Y-16723317D01*
X14620182Y-16780460D02*
X14639230Y-16789984D01*
X14639230Y-16789984D02*
X14677325Y-16789984D01*
X14677325Y-16789984D02*
X14696372Y-16780460D01*
X14696372Y-16780460D02*
X14705896Y-16761412D01*
X14705896Y-16761412D02*
X14705896Y-16751888D01*
X14705896Y-16751888D02*
X14696372Y-16732841D01*
X14696372Y-16732841D02*
X14677325Y-16723317D01*
X14677325Y-16723317D02*
X14648753Y-16723317D01*
X14648753Y-16723317D02*
X14629706Y-16713793D01*
X14629706Y-16713793D02*
X14620182Y-16694746D01*
X14620182Y-16694746D02*
X14620182Y-16685222D01*
X14620182Y-16685222D02*
X14629706Y-16666174D01*
X14629706Y-16666174D02*
X14648753Y-16656650D01*
X14648753Y-16656650D02*
X14677325Y-16656650D01*
X14677325Y-16656650D02*
X14696372Y-16666174D01*
X14772563Y-16866174D02*
X14782087Y-16856650D01*
X14782087Y-16856650D02*
X14801134Y-16828079D01*
X14801134Y-16828079D02*
X14810658Y-16809031D01*
X14810658Y-16809031D02*
X14820182Y-16780460D01*
X14820182Y-16780460D02*
X14829706Y-16732841D01*
X14829706Y-16732841D02*
X14829706Y-16694746D01*
X14829706Y-16694746D02*
X14820182Y-16647127D01*
X14820182Y-16647127D02*
X14810658Y-16618555D01*
X14810658Y-16618555D02*
X14801134Y-16599508D01*
X14801134Y-16599508D02*
X14782087Y-16570936D01*
X14782087Y-16570936D02*
X14772563Y-16561412D01*
D15*
X9845500Y-16886500D02*
X9997500Y-17038500D01*
X9997500Y-16886500D02*
X9845500Y-17038500D01*
X9997500Y-16962500D02*
G75*
G03*
X9845500Y-16962500I-76000J0D01*
G01*
X9845500Y-16962500D02*
G75*
G03*
X9997500Y-16962500I76000J0D01*
G01*
D11*
X10363039Y-17053984D02*
X10248753Y-17053984D01*
X10305896Y-17053984D02*
X10305896Y-16853984D01*
X10305896Y-16853984D02*
X10286848Y-16882555D01*
X10286848Y-16882555D02*
X10267801Y-16901603D01*
X10267801Y-16901603D02*
X10248753Y-16911127D01*
X10448753Y-17034936D02*
X10458277Y-17044460D01*
X10458277Y-17044460D02*
X10448753Y-17053984D01*
X10448753Y-17053984D02*
X10439229Y-17044460D01*
X10439229Y-17044460D02*
X10448753Y-17034936D01*
X10448753Y-17034936D02*
X10448753Y-17053984D01*
X10639229Y-16853984D02*
X10543991Y-16853984D01*
X10543991Y-16853984D02*
X10534467Y-16949222D01*
X10534467Y-16949222D02*
X10543991Y-16939698D01*
X10543991Y-16939698D02*
X10563039Y-16930174D01*
X10563039Y-16930174D02*
X10610658Y-16930174D01*
X10610658Y-16930174D02*
X10629705Y-16939698D01*
X10629705Y-16939698D02*
X10639229Y-16949222D01*
X10639229Y-16949222D02*
X10648753Y-16968270D01*
X10648753Y-16968270D02*
X10648753Y-17015889D01*
X10648753Y-17015889D02*
X10639229Y-17034936D01*
X10639229Y-17034936D02*
X10629705Y-17044460D01*
X10629705Y-17044460D02*
X10610658Y-17053984D01*
X10610658Y-17053984D02*
X10563039Y-17053984D01*
X10563039Y-17053984D02*
X10543991Y-17044460D01*
X10543991Y-17044460D02*
X10534467Y-17034936D01*
X10724944Y-16873031D02*
X10734467Y-16863508D01*
X10734467Y-16863508D02*
X10753515Y-16853984D01*
X10753515Y-16853984D02*
X10801134Y-16853984D01*
X10801134Y-16853984D02*
X10820182Y-16863508D01*
X10820182Y-16863508D02*
X10829705Y-16873031D01*
X10829705Y-16873031D02*
X10839229Y-16892079D01*
X10839229Y-16892079D02*
X10839229Y-16911127D01*
X10839229Y-16911127D02*
X10829705Y-16939698D01*
X10829705Y-16939698D02*
X10715420Y-17053984D01*
X10715420Y-17053984D02*
X10839229Y-17053984D01*
X10963039Y-16853984D02*
X10982086Y-16853984D01*
X10982086Y-16853984D02*
X11001134Y-16863508D01*
X11001134Y-16863508D02*
X11010658Y-16873031D01*
X11010658Y-16873031D02*
X11020182Y-16892079D01*
X11020182Y-16892079D02*
X11029705Y-16930174D01*
X11029705Y-16930174D02*
X11029705Y-16977793D01*
X11029705Y-16977793D02*
X11020182Y-17015889D01*
X11020182Y-17015889D02*
X11010658Y-17034936D01*
X11010658Y-17034936D02*
X11001134Y-17044460D01*
X11001134Y-17044460D02*
X10982086Y-17053984D01*
X10982086Y-17053984D02*
X10963039Y-17053984D01*
X10963039Y-17053984D02*
X10943991Y-17044460D01*
X10943991Y-17044460D02*
X10934467Y-17034936D01*
X10934467Y-17034936D02*
X10924944Y-17015889D01*
X10924944Y-17015889D02*
X10915420Y-16977793D01*
X10915420Y-16977793D02*
X10915420Y-16930174D01*
X10915420Y-16930174D02*
X10924944Y-16892079D01*
X10924944Y-16892079D02*
X10934467Y-16873031D01*
X10934467Y-16873031D02*
X10943991Y-16863508D01*
X10943991Y-16863508D02*
X10963039Y-16853984D01*
X11115420Y-17053984D02*
X11115420Y-16920650D01*
X11115420Y-16939698D02*
X11124944Y-16930174D01*
X11124944Y-16930174D02*
X11143991Y-16920650D01*
X11143991Y-16920650D02*
X11172563Y-16920650D01*
X11172563Y-16920650D02*
X11191610Y-16930174D01*
X11191610Y-16930174D02*
X11201134Y-16949222D01*
X11201134Y-16949222D02*
X11201134Y-17053984D01*
X11201134Y-16949222D02*
X11210658Y-16930174D01*
X11210658Y-16930174D02*
X11229705Y-16920650D01*
X11229705Y-16920650D02*
X11258277Y-16920650D01*
X11258277Y-16920650D02*
X11277324Y-16930174D01*
X11277324Y-16930174D02*
X11286848Y-16949222D01*
X11286848Y-16949222D02*
X11286848Y-17053984D01*
X11382086Y-17053984D02*
X11382086Y-16920650D01*
X11382086Y-16939698D02*
X11391610Y-16930174D01*
X11391610Y-16930174D02*
X11410658Y-16920650D01*
X11410658Y-16920650D02*
X11439229Y-16920650D01*
X11439229Y-16920650D02*
X11458277Y-16930174D01*
X11458277Y-16930174D02*
X11467801Y-16949222D01*
X11467801Y-16949222D02*
X11467801Y-17053984D01*
X11467801Y-16949222D02*
X11477324Y-16930174D01*
X11477324Y-16930174D02*
X11496372Y-16920650D01*
X11496372Y-16920650D02*
X11524943Y-16920650D01*
X11524943Y-16920650D02*
X11543991Y-16930174D01*
X11543991Y-16930174D02*
X11553515Y-16949222D01*
X11553515Y-16949222D02*
X11553515Y-17053984D01*
X11943991Y-16844460D02*
X11772563Y-17101603D01*
X12201134Y-16853984D02*
X12220182Y-16853984D01*
X12220182Y-16853984D02*
X12239229Y-16863508D01*
X12239229Y-16863508D02*
X12248753Y-16873031D01*
X12248753Y-16873031D02*
X12258277Y-16892079D01*
X12258277Y-16892079D02*
X12267801Y-16930174D01*
X12267801Y-16930174D02*
X12267801Y-16977793D01*
X12267801Y-16977793D02*
X12258277Y-17015889D01*
X12258277Y-17015889D02*
X12248753Y-17034936D01*
X12248753Y-17034936D02*
X12239229Y-17044460D01*
X12239229Y-17044460D02*
X12220182Y-17053984D01*
X12220182Y-17053984D02*
X12201134Y-17053984D01*
X12201134Y-17053984D02*
X12182086Y-17044460D01*
X12182086Y-17044460D02*
X12172563Y-17034936D01*
X12172563Y-17034936D02*
X12163039Y-17015889D01*
X12163039Y-17015889D02*
X12153515Y-16977793D01*
X12153515Y-16977793D02*
X12153515Y-16930174D01*
X12153515Y-16930174D02*
X12163039Y-16892079D01*
X12163039Y-16892079D02*
X12172563Y-16873031D01*
X12172563Y-16873031D02*
X12182086Y-16863508D01*
X12182086Y-16863508D02*
X12201134Y-16853984D01*
X12353515Y-17034936D02*
X12363039Y-17044460D01*
X12363039Y-17044460D02*
X12353515Y-17053984D01*
X12353515Y-17053984D02*
X12343991Y-17044460D01*
X12343991Y-17044460D02*
X12353515Y-17034936D01*
X12353515Y-17034936D02*
X12353515Y-17053984D01*
X12486848Y-16853984D02*
X12505896Y-16853984D01*
X12505896Y-16853984D02*
X12524944Y-16863508D01*
X12524944Y-16863508D02*
X12534467Y-16873031D01*
X12534467Y-16873031D02*
X12543991Y-16892079D01*
X12543991Y-16892079D02*
X12553515Y-16930174D01*
X12553515Y-16930174D02*
X12553515Y-16977793D01*
X12553515Y-16977793D02*
X12543991Y-17015889D01*
X12543991Y-17015889D02*
X12534467Y-17034936D01*
X12534467Y-17034936D02*
X12524944Y-17044460D01*
X12524944Y-17044460D02*
X12505896Y-17053984D01*
X12505896Y-17053984D02*
X12486848Y-17053984D01*
X12486848Y-17053984D02*
X12467801Y-17044460D01*
X12467801Y-17044460D02*
X12458277Y-17034936D01*
X12458277Y-17034936D02*
X12448753Y-17015889D01*
X12448753Y-17015889D02*
X12439229Y-16977793D01*
X12439229Y-16977793D02*
X12439229Y-16930174D01*
X12439229Y-16930174D02*
X12448753Y-16892079D01*
X12448753Y-16892079D02*
X12458277Y-16873031D01*
X12458277Y-16873031D02*
X12467801Y-16863508D01*
X12467801Y-16863508D02*
X12486848Y-16853984D01*
X12734467Y-16853984D02*
X12639229Y-16853984D01*
X12639229Y-16853984D02*
X12629706Y-16949222D01*
X12629706Y-16949222D02*
X12639229Y-16939698D01*
X12639229Y-16939698D02*
X12658277Y-16930174D01*
X12658277Y-16930174D02*
X12705896Y-16930174D01*
X12705896Y-16930174D02*
X12724944Y-16939698D01*
X12724944Y-16939698D02*
X12734467Y-16949222D01*
X12734467Y-16949222D02*
X12743991Y-16968270D01*
X12743991Y-16968270D02*
X12743991Y-17015889D01*
X12743991Y-17015889D02*
X12734467Y-17034936D01*
X12734467Y-17034936D02*
X12724944Y-17044460D01*
X12724944Y-17044460D02*
X12705896Y-17053984D01*
X12705896Y-17053984D02*
X12658277Y-17053984D01*
X12658277Y-17053984D02*
X12639229Y-17044460D01*
X12639229Y-17044460D02*
X12629706Y-17034936D01*
X12839229Y-17053984D02*
X12877325Y-17053984D01*
X12877325Y-17053984D02*
X12896372Y-17044460D01*
X12896372Y-17044460D02*
X12905896Y-17034936D01*
X12905896Y-17034936D02*
X12924944Y-17006365D01*
X12924944Y-17006365D02*
X12934467Y-16968270D01*
X12934467Y-16968270D02*
X12934467Y-16892079D01*
X12934467Y-16892079D02*
X12924944Y-16873031D01*
X12924944Y-16873031D02*
X12915420Y-16863508D01*
X12915420Y-16863508D02*
X12896372Y-16853984D01*
X12896372Y-16853984D02*
X12858277Y-16853984D01*
X12858277Y-16853984D02*
X12839229Y-16863508D01*
X12839229Y-16863508D02*
X12829706Y-16873031D01*
X12829706Y-16873031D02*
X12820182Y-16892079D01*
X12820182Y-16892079D02*
X12820182Y-16939698D01*
X12820182Y-16939698D02*
X12829706Y-16958746D01*
X12829706Y-16958746D02*
X12839229Y-16968270D01*
X12839229Y-16968270D02*
X12858277Y-16977793D01*
X12858277Y-16977793D02*
X12896372Y-16977793D01*
X12896372Y-16977793D02*
X12915420Y-16968270D01*
X12915420Y-16968270D02*
X12924944Y-16958746D01*
X12924944Y-16958746D02*
X12934467Y-16939698D01*
X13048753Y-16939698D02*
X13029706Y-16930174D01*
X13029706Y-16930174D02*
X13020182Y-16920650D01*
X13020182Y-16920650D02*
X13010658Y-16901603D01*
X13010658Y-16901603D02*
X13010658Y-16892079D01*
X13010658Y-16892079D02*
X13020182Y-16873031D01*
X13020182Y-16873031D02*
X13029706Y-16863508D01*
X13029706Y-16863508D02*
X13048753Y-16853984D01*
X13048753Y-16853984D02*
X13086848Y-16853984D01*
X13086848Y-16853984D02*
X13105896Y-16863508D01*
X13105896Y-16863508D02*
X13115420Y-16873031D01*
X13115420Y-16873031D02*
X13124944Y-16892079D01*
X13124944Y-16892079D02*
X13124944Y-16901603D01*
X13124944Y-16901603D02*
X13115420Y-16920650D01*
X13115420Y-16920650D02*
X13105896Y-16930174D01*
X13105896Y-16930174D02*
X13086848Y-16939698D01*
X13086848Y-16939698D02*
X13048753Y-16939698D01*
X13048753Y-16939698D02*
X13029706Y-16949222D01*
X13029706Y-16949222D02*
X13020182Y-16958746D01*
X13020182Y-16958746D02*
X13010658Y-16977793D01*
X13010658Y-16977793D02*
X13010658Y-17015889D01*
X13010658Y-17015889D02*
X13020182Y-17034936D01*
X13020182Y-17034936D02*
X13029706Y-17044460D01*
X13029706Y-17044460D02*
X13048753Y-17053984D01*
X13048753Y-17053984D02*
X13086848Y-17053984D01*
X13086848Y-17053984D02*
X13105896Y-17044460D01*
X13105896Y-17044460D02*
X13115420Y-17034936D01*
X13115420Y-17034936D02*
X13124944Y-17015889D01*
X13124944Y-17015889D02*
X13124944Y-16977793D01*
X13124944Y-16977793D02*
X13115420Y-16958746D01*
X13115420Y-16958746D02*
X13105896Y-16949222D01*
X13105896Y-16949222D02*
X13086848Y-16939698D01*
X13201134Y-16853984D02*
X13201134Y-16892079D01*
X13277325Y-16853984D02*
X13277325Y-16892079D01*
X13572563Y-17130174D02*
X13563039Y-17120650D01*
X13563039Y-17120650D02*
X13543991Y-17092079D01*
X13543991Y-17092079D02*
X13534468Y-17073031D01*
X13534468Y-17073031D02*
X13524944Y-17044460D01*
X13524944Y-17044460D02*
X13515420Y-16996841D01*
X13515420Y-16996841D02*
X13515420Y-16958746D01*
X13515420Y-16958746D02*
X13524944Y-16911127D01*
X13524944Y-16911127D02*
X13534468Y-16882555D01*
X13534468Y-16882555D02*
X13543991Y-16863508D01*
X13543991Y-16863508D02*
X13563039Y-16834936D01*
X13563039Y-16834936D02*
X13572563Y-16825412D01*
X13639229Y-16873031D02*
X13648753Y-16863508D01*
X13648753Y-16863508D02*
X13667801Y-16853984D01*
X13667801Y-16853984D02*
X13715420Y-16853984D01*
X13715420Y-16853984D02*
X13734468Y-16863508D01*
X13734468Y-16863508D02*
X13743991Y-16873031D01*
X13743991Y-16873031D02*
X13753515Y-16892079D01*
X13753515Y-16892079D02*
X13753515Y-16911127D01*
X13753515Y-16911127D02*
X13743991Y-16939698D01*
X13743991Y-16939698D02*
X13629706Y-17053984D01*
X13629706Y-17053984D02*
X13753515Y-17053984D01*
X13877325Y-16853984D02*
X13896372Y-16853984D01*
X13896372Y-16853984D02*
X13915420Y-16863508D01*
X13915420Y-16863508D02*
X13924944Y-16873031D01*
X13924944Y-16873031D02*
X13934468Y-16892079D01*
X13934468Y-16892079D02*
X13943991Y-16930174D01*
X13943991Y-16930174D02*
X13943991Y-16977793D01*
X13943991Y-16977793D02*
X13934468Y-17015889D01*
X13934468Y-17015889D02*
X13924944Y-17034936D01*
X13924944Y-17034936D02*
X13915420Y-17044460D01*
X13915420Y-17044460D02*
X13896372Y-17053984D01*
X13896372Y-17053984D02*
X13877325Y-17053984D01*
X13877325Y-17053984D02*
X13858277Y-17044460D01*
X13858277Y-17044460D02*
X13848753Y-17034936D01*
X13848753Y-17034936D02*
X13839229Y-17015889D01*
X13839229Y-17015889D02*
X13829706Y-16977793D01*
X13829706Y-16977793D02*
X13829706Y-16930174D01*
X13829706Y-16930174D02*
X13839229Y-16892079D01*
X13839229Y-16892079D02*
X13848753Y-16873031D01*
X13848753Y-16873031D02*
X13858277Y-16863508D01*
X13858277Y-16863508D02*
X13877325Y-16853984D01*
X14182087Y-17053984D02*
X14182087Y-16853984D01*
X14267801Y-17053984D02*
X14267801Y-16949222D01*
X14267801Y-16949222D02*
X14258277Y-16930174D01*
X14258277Y-16930174D02*
X14239230Y-16920650D01*
X14239230Y-16920650D02*
X14210658Y-16920650D01*
X14210658Y-16920650D02*
X14191610Y-16930174D01*
X14191610Y-16930174D02*
X14182087Y-16939698D01*
X14391610Y-17053984D02*
X14372563Y-17044460D01*
X14372563Y-17044460D02*
X14363039Y-17034936D01*
X14363039Y-17034936D02*
X14353515Y-17015889D01*
X14353515Y-17015889D02*
X14353515Y-16958746D01*
X14353515Y-16958746D02*
X14363039Y-16939698D01*
X14363039Y-16939698D02*
X14372563Y-16930174D01*
X14372563Y-16930174D02*
X14391610Y-16920650D01*
X14391610Y-16920650D02*
X14420182Y-16920650D01*
X14420182Y-16920650D02*
X14439230Y-16930174D01*
X14439230Y-16930174D02*
X14448753Y-16939698D01*
X14448753Y-16939698D02*
X14458277Y-16958746D01*
X14458277Y-16958746D02*
X14458277Y-17015889D01*
X14458277Y-17015889D02*
X14448753Y-17034936D01*
X14448753Y-17034936D02*
X14439230Y-17044460D01*
X14439230Y-17044460D02*
X14420182Y-17053984D01*
X14420182Y-17053984D02*
X14391610Y-17053984D01*
X14572563Y-17053984D02*
X14553515Y-17044460D01*
X14553515Y-17044460D02*
X14543991Y-17025412D01*
X14543991Y-17025412D02*
X14543991Y-16853984D01*
X14724944Y-17044460D02*
X14705896Y-17053984D01*
X14705896Y-17053984D02*
X14667801Y-17053984D01*
X14667801Y-17053984D02*
X14648753Y-17044460D01*
X14648753Y-17044460D02*
X14639230Y-17025412D01*
X14639230Y-17025412D02*
X14639230Y-16949222D01*
X14639230Y-16949222D02*
X14648753Y-16930174D01*
X14648753Y-16930174D02*
X14667801Y-16920650D01*
X14667801Y-16920650D02*
X14705896Y-16920650D01*
X14705896Y-16920650D02*
X14724944Y-16930174D01*
X14724944Y-16930174D02*
X14734468Y-16949222D01*
X14734468Y-16949222D02*
X14734468Y-16968270D01*
X14734468Y-16968270D02*
X14639230Y-16987317D01*
X14810658Y-17044460D02*
X14829706Y-17053984D01*
X14829706Y-17053984D02*
X14867801Y-17053984D01*
X14867801Y-17053984D02*
X14886849Y-17044460D01*
X14886849Y-17044460D02*
X14896372Y-17025412D01*
X14896372Y-17025412D02*
X14896372Y-17015889D01*
X14896372Y-17015889D02*
X14886849Y-16996841D01*
X14886849Y-16996841D02*
X14867801Y-16987317D01*
X14867801Y-16987317D02*
X14839230Y-16987317D01*
X14839230Y-16987317D02*
X14820182Y-16977793D01*
X14820182Y-16977793D02*
X14810658Y-16958746D01*
X14810658Y-16958746D02*
X14810658Y-16949222D01*
X14810658Y-16949222D02*
X14820182Y-16930174D01*
X14820182Y-16930174D02*
X14839230Y-16920650D01*
X14839230Y-16920650D02*
X14867801Y-16920650D01*
X14867801Y-16920650D02*
X14886849Y-16930174D01*
X14963039Y-17130174D02*
X14972563Y-17120650D01*
X14972563Y-17120650D02*
X14991611Y-17092079D01*
X14991611Y-17092079D02*
X15001134Y-17073031D01*
X15001134Y-17073031D02*
X15010658Y-17044460D01*
X15010658Y-17044460D02*
X15020182Y-16996841D01*
X15020182Y-16996841D02*
X15020182Y-16958746D01*
X15020182Y-16958746D02*
X15010658Y-16911127D01*
X15010658Y-16911127D02*
X15001134Y-16882555D01*
X15001134Y-16882555D02*
X14991611Y-16863508D01*
X14991611Y-16863508D02*
X14972563Y-16834936D01*
X14972563Y-16834936D02*
X14963039Y-16825412D01*
M02*
