%TF.GenerationSoftware,KiCad,Pcbnew,7.0.11+dfsg-1build4*%
%TF.CreationDate,2026-07-06T14:57:52-05:00*%
%TF.ProjectId,Boomslang,426f6f6d-736c-4616-9e67-2e6b69636164,rev?*%
%TF.SameCoordinates,Original*%
%TF.FileFunction,Soldermask,Bot*%
%TF.FilePolarity,Negative*%
%FSLAX46Y46*%
G04 Gerber Fmt 4.6, Leading zero omitted, Abs format (unit mm)*
G04 Created by KiCad (PCBNEW 7.0.11+dfsg-1build4) date 2026-07-06 14:57:52*
%MOMM*%
%LPD*%
G01*
G04 APERTURE LIST*
%ADD10C,1.600000*%
%ADD11O,1.600000X1.600000*%
%ADD12R,1.700000X1.700000*%
%ADD13O,1.700000X1.700000*%
%ADD14C,2.400000*%
%ADD15O,2.400000X2.400000*%
%ADD16R,1.500000X1.500000*%
%ADD17C,1.500000*%
%ADD18R,3.000000X3.000000*%
%ADD19C,3.000000*%
%ADD20R,2.200000X2.200000*%
%ADD21O,2.200000X2.200000*%
%ADD22R,1.800000X1.800000*%
%ADD23C,1.800000*%
%ADD24R,1.600000X1.600000*%
%ADD25R,1.905000X2.000000*%
%ADD26O,1.905000X2.000000*%
%ADD27C,3.200000*%
%ADD28R,2.000000X1.905000*%
%ADD29O,2.000000X1.905000*%
G04 APERTURE END LIST*
D10*
%TO.C,C15*%
X191770000Y-89916000D03*
X191770000Y-84916000D03*
%TD*%
%TO.C,R53*%
X185166000Y-131064000D03*
D11*
X185166000Y-138684000D03*
%TD*%
D10*
%TO.C,C16*%
X185166000Y-122936000D03*
X185166000Y-127936000D03*
%TD*%
%TO.C,R30*%
X173990000Y-139192000D03*
D11*
X173990000Y-131572000D03*
%TD*%
D10*
%TO.C,R52*%
X188722000Y-85344000D03*
D11*
X181102000Y-85344000D03*
%TD*%
%TO.C,R51*%
X186944000Y-81534000D03*
D10*
X179324000Y-81534000D03*
%TD*%
%TO.C,C14*%
X183642000Y-76962000D03*
X178642000Y-76962000D03*
%TD*%
D12*
%TO.C,J7*%
X143256000Y-102616000D03*
D13*
X143256000Y-100076000D03*
X143256000Y-97536000D03*
X143256000Y-94996000D03*
%TD*%
D11*
%TO.C,R50*%
X104648000Y-134366000D03*
D10*
X104648000Y-126746000D03*
%TD*%
D11*
%TO.C,R49*%
X107950000Y-126746000D03*
D10*
X107950000Y-134366000D03*
%TD*%
%TO.C,C13*%
X107950000Y-141652000D03*
X107950000Y-136652000D03*
%TD*%
%TO.C,R48*%
X168120000Y-112140000D03*
D11*
X160500000Y-112140000D03*
%TD*%
D10*
%TO.C,R47*%
X165862000Y-81788000D03*
D11*
X158242000Y-81788000D03*
%TD*%
D10*
%TO.C,R46*%
X154432000Y-51562000D03*
D11*
X154432000Y-59182000D03*
%TD*%
D10*
%TO.C,R45*%
X127508000Y-86614000D03*
D11*
X135128000Y-86614000D03*
%TD*%
D14*
%TO.C,R44*%
X111260000Y-52200000D03*
D15*
X111260000Y-64900000D03*
%TD*%
D10*
%TO.C,R43*%
X125222000Y-72644000D03*
D11*
X125222000Y-80264000D03*
%TD*%
D10*
%TO.C,R42*%
X126492000Y-68834000D03*
D11*
X134112000Y-68834000D03*
%TD*%
%TO.C,R41*%
X121920000Y-80264000D03*
D10*
X121920000Y-72644000D03*
%TD*%
D16*
%TO.C,Q20*%
X115062000Y-72644000D03*
D17*
X115062000Y-70104000D03*
X115062000Y-67564000D03*
%TD*%
D16*
%TO.C,Q19*%
X118364000Y-69088000D03*
D17*
X120904000Y-69088000D03*
X123444000Y-69088000D03*
%TD*%
D18*
%TO.C,J6*%
X118510000Y-56380000D03*
D19*
X123590000Y-56380000D03*
%TD*%
D20*
%TO.C,D11*%
X117220000Y-62340000D03*
D21*
X124840000Y-62340000D03*
%TD*%
D22*
%TO.C,D10*%
X135360000Y-55050000D03*
D23*
X137900000Y-55050000D03*
%TD*%
D22*
%TO.C,D9*%
X128660000Y-55010000D03*
D23*
X131200000Y-55010000D03*
%TD*%
%TO.C,D8*%
X136870000Y-61980000D03*
D22*
X134330000Y-61980000D03*
%TD*%
D11*
%TO.C,R32*%
X169926000Y-140970000D03*
D10*
X169926000Y-133350000D03*
%TD*%
D18*
%TO.C,J5*%
X143040000Y-56570000D03*
D19*
X148120000Y-56570000D03*
%TD*%
D10*
%TO.C,R40*%
X141732000Y-146050000D03*
D11*
X149352000Y-146050000D03*
%TD*%
D10*
%TO.C,R39*%
X156972000Y-127508000D03*
D11*
X149352000Y-127508000D03*
%TD*%
%TO.C,R38*%
X149098000Y-88011000D03*
D10*
X156718000Y-88011000D03*
%TD*%
%TO.C,R37*%
X132715000Y-71882000D03*
D11*
X132715000Y-79502000D03*
%TD*%
D10*
%TO.C,R36*%
X129413000Y-83439000D03*
D11*
X129413000Y-75819000D03*
%TD*%
D10*
%TO.C,R35*%
X154432000Y-72644000D03*
D11*
X146812000Y-72644000D03*
%TD*%
D22*
%TO.C,D7*%
X140716000Y-72644000D03*
D23*
X143256000Y-72644000D03*
%TD*%
D10*
%TO.C,C12*%
X142280000Y-107696000D03*
X147280000Y-107696000D03*
%TD*%
%TO.C,C11*%
X142320000Y-110998000D03*
X147320000Y-110998000D03*
%TD*%
%TO.C,C10*%
X142240000Y-115062000D03*
X147240000Y-115062000D03*
%TD*%
%TO.C,C9*%
X141732000Y-131572000D03*
X146732000Y-131572000D03*
%TD*%
%TO.C,C8*%
X141732000Y-134874000D03*
X146732000Y-134874000D03*
%TD*%
%TO.C,C7*%
X141732000Y-138176000D03*
X146732000Y-138176000D03*
%TD*%
%TO.C,C6*%
X141732000Y-141478000D03*
X146732000Y-141478000D03*
%TD*%
D24*
%TO.C,C2*%
X142367000Y-85852000D03*
D10*
X142367000Y-83352000D03*
%TD*%
D24*
%TO.C,C1*%
X116840000Y-85344000D03*
D10*
X116840000Y-82844000D03*
%TD*%
D18*
%TO.C,J4*%
X174244000Y-144526000D03*
D19*
X179324000Y-144526000D03*
X184404000Y-144526000D03*
X189484000Y-144526000D03*
%TD*%
D10*
%TO.C,C5*%
X160020000Y-127762000D03*
X160020000Y-122762000D03*
%TD*%
%TO.C,R34*%
X179578000Y-113030000D03*
D11*
X171958000Y-113030000D03*
%TD*%
D10*
%TO.C,R33*%
X149606000Y-115062000D03*
D11*
X157226000Y-115062000D03*
%TD*%
D15*
%TO.C,R31*%
X179832000Y-138684000D03*
D14*
X179832000Y-123444000D03*
%TD*%
D10*
%TO.C,R29*%
X174244000Y-116840000D03*
D11*
X166624000Y-116840000D03*
%TD*%
D10*
%TO.C,R28*%
X174244000Y-120142000D03*
D11*
X166624000Y-120142000D03*
%TD*%
D10*
%TO.C,R27*%
X166624000Y-133350000D03*
D11*
X166624000Y-140970000D03*
%TD*%
D10*
%TO.C,R26*%
X163322000Y-133350000D03*
D11*
X163322000Y-140970000D03*
%TD*%
D10*
%TO.C,R25*%
X160020000Y-130048000D03*
D11*
X160020000Y-137668000D03*
%TD*%
D10*
%TO.C,R24*%
X156972000Y-131318000D03*
D11*
X149352000Y-131318000D03*
%TD*%
D17*
%TO.C,Q18*%
X154940000Y-142240000D03*
X154940000Y-144780000D03*
D16*
X154940000Y-147320000D03*
%TD*%
D25*
%TO.C,Q17*%
X178308000Y-118364000D03*
D26*
X180848000Y-118364000D03*
X183388000Y-118364000D03*
%TD*%
D16*
%TO.C,Q16*%
X175006000Y-129286000D03*
D17*
X175006000Y-126746000D03*
X175006000Y-124206000D03*
%TD*%
D16*
%TO.C,Q15*%
X164084000Y-124206000D03*
D17*
X164084000Y-126746000D03*
X164084000Y-129286000D03*
%TD*%
%TO.C,Q14*%
X169418000Y-129286000D03*
X169418000Y-126746000D03*
D16*
X169418000Y-124206000D03*
%TD*%
%TO.C,Q13*%
X156210000Y-139192000D03*
D17*
X156210000Y-136652000D03*
X156210000Y-134112000D03*
%TD*%
D19*
%TO.C,J3*%
X191516000Y-133350000D03*
X191516000Y-128270000D03*
X191516000Y-123190000D03*
D18*
X191516000Y-118110000D03*
%TD*%
D22*
%TO.C,D6*%
X160528000Y-118110000D03*
D23*
X163068000Y-118110000D03*
%TD*%
D10*
%TO.C,R23*%
X173609000Y-52197000D03*
D11*
X165989000Y-52197000D03*
%TD*%
D10*
%TO.C,R22*%
X176276000Y-83312000D03*
D11*
X168656000Y-83312000D03*
%TD*%
D22*
%TO.C,D5*%
X160782000Y-87884000D03*
D23*
X163322000Y-87884000D03*
%TD*%
D22*
%TO.C,D4*%
X159512000Y-54864000D03*
D23*
X162052000Y-54864000D03*
%TD*%
D10*
%TO.C,C4*%
X160274000Y-92536000D03*
X160274000Y-97536000D03*
%TD*%
%TO.C,C3*%
X158115000Y-64770000D03*
X158115000Y-59770000D03*
%TD*%
D11*
%TO.C,R21*%
X166878000Y-86487000D03*
D10*
X174498000Y-86487000D03*
%TD*%
%TO.C,R20*%
X173736000Y-55626000D03*
D11*
X166116000Y-55626000D03*
%TD*%
D27*
%TO.C,H4*%
X104000000Y-146000000D03*
%TD*%
%TO.C,H3*%
X196000000Y-146000000D03*
%TD*%
%TO.C,H2*%
X196000000Y-54000000D03*
%TD*%
%TO.C,H1*%
X104000000Y-54000000D03*
%TD*%
D11*
%TO.C,R19*%
X157480000Y-110998000D03*
D10*
X149860000Y-110998000D03*
%TD*%
D11*
%TO.C,R18*%
X173990000Y-108966000D03*
D10*
X173990000Y-101346000D03*
%TD*%
D15*
%TO.C,R17*%
X183642000Y-112522000D03*
D14*
X183642000Y-97282000D03*
%TD*%
D11*
%TO.C,R16*%
X177546000Y-102362000D03*
D10*
X177546000Y-109982000D03*
%TD*%
D11*
%TO.C,R15*%
X166878000Y-89662000D03*
D10*
X174498000Y-89662000D03*
%TD*%
D11*
%TO.C,R14*%
X163576000Y-100330000D03*
D10*
X163576000Y-92710000D03*
%TD*%
%TO.C,R13*%
X170688000Y-101346000D03*
D11*
X170688000Y-108966000D03*
%TD*%
%TO.C,R12*%
X167386000Y-108966000D03*
D10*
X167386000Y-101346000D03*
%TD*%
%TO.C,R11*%
X156464000Y-123952000D03*
D11*
X148844000Y-123952000D03*
%TD*%
D16*
%TO.C,Q12*%
X158840000Y-100810000D03*
D17*
X156300000Y-100810000D03*
X153760000Y-100810000D03*
%TD*%
D25*
%TO.C,Q11*%
X178816000Y-90932000D03*
D26*
X181356000Y-90932000D03*
X183896000Y-90932000D03*
%TD*%
D16*
%TO.C,Q10*%
X178562000Y-100076000D03*
D17*
X178562000Y-97536000D03*
X178562000Y-94996000D03*
%TD*%
%TO.C,Q9*%
X167894000Y-99060000D03*
X167894000Y-96520000D03*
D16*
X167894000Y-93980000D03*
%TD*%
%TO.C,Q8*%
X172974000Y-93980000D03*
D17*
X172974000Y-96520000D03*
X172974000Y-99060000D03*
%TD*%
D16*
%TO.C,Q7*%
X162814000Y-107696000D03*
D17*
X162814000Y-105156000D03*
X162814000Y-102616000D03*
%TD*%
D18*
%TO.C,J2*%
X191516000Y-95504000D03*
D19*
X191516000Y-100584000D03*
X191516000Y-105664000D03*
X191516000Y-110744000D03*
%TD*%
D28*
%TO.C,U1*%
X105410000Y-84582000D03*
D29*
X105410000Y-82042000D03*
X105410000Y-79502000D03*
%TD*%
D10*
%TO.C,R10*%
X173990000Y-78486000D03*
D11*
X173990000Y-70866000D03*
%TD*%
%TO.C,R9*%
X170688000Y-78486000D03*
D10*
X170688000Y-70866000D03*
%TD*%
D11*
%TO.C,R8*%
X156845000Y-91821000D03*
D10*
X149225000Y-91821000D03*
%TD*%
%TO.C,R7*%
X163830000Y-70866000D03*
D11*
X163830000Y-78486000D03*
%TD*%
D10*
%TO.C,R6*%
X173736000Y-59182000D03*
D11*
X166116000Y-59182000D03*
%TD*%
D10*
%TO.C,R5*%
X161544000Y-59690000D03*
D11*
X161544000Y-67310000D03*
%TD*%
D10*
%TO.C,R4*%
X167132000Y-70993000D03*
D11*
X167132000Y-78613000D03*
%TD*%
%TO.C,R3*%
X147828000Y-119380000D03*
D10*
X155448000Y-119380000D03*
%TD*%
%TO.C,R2*%
X102870000Y-73660000D03*
D11*
X110490000Y-73660000D03*
%TD*%
D14*
%TO.C,R1*%
X182372000Y-57912000D03*
D15*
X182372000Y-73152000D03*
%TD*%
D17*
%TO.C,Q6*%
X154432000Y-61976000D03*
X154432000Y-64516000D03*
D16*
X154432000Y-67056000D03*
%TD*%
%TO.C,Q5*%
X177800000Y-64516000D03*
D17*
X177800000Y-61976000D03*
X177800000Y-59436000D03*
%TD*%
%TO.C,Q4*%
X172085000Y-68580000D03*
X172085000Y-66040000D03*
D16*
X172085000Y-63500000D03*
%TD*%
%TO.C,Q3*%
X167132000Y-63500000D03*
D17*
X167132000Y-66040000D03*
X167132000Y-68580000D03*
%TD*%
D16*
%TO.C,Q2*%
X158750000Y-74930000D03*
D17*
X158750000Y-72390000D03*
X158750000Y-69850000D03*
%TD*%
D25*
%TO.C,Q1*%
X178308000Y-54610000D03*
D26*
X180848000Y-54610000D03*
X183388000Y-54610000D03*
%TD*%
D18*
%TO.C,J1*%
X191008000Y-61722000D03*
D19*
X191008000Y-66802000D03*
X191008000Y-71882000D03*
X191008000Y-76962000D03*
%TD*%
D20*
%TO.C,D3*%
X110236000Y-86106000D03*
D21*
X110236000Y-78486000D03*
%TD*%
D20*
%TO.C,D2*%
X103124000Y-90424000D03*
D21*
X103124000Y-98044000D03*
%TD*%
D22*
%TO.C,D1*%
X104902000Y-68072000D03*
D23*
X102362000Y-68072000D03*
%TD*%
D10*
%TO.C,DB1*%
X137668000Y-145796000D03*
X137668000Y-143256000D03*
X137668000Y-140716000D03*
X137668000Y-138176000D03*
X137668000Y-135636000D03*
X137668000Y-133096000D03*
X137668000Y-130556000D03*
X137668000Y-128016000D03*
X137668000Y-125476000D03*
X137668000Y-122936000D03*
X137668000Y-120396000D03*
X137668000Y-117856000D03*
X137668000Y-115316000D03*
X137668000Y-112776000D03*
X137668000Y-110236000D03*
X137668000Y-107696000D03*
X137668000Y-105156000D03*
X137668000Y-102616000D03*
X137668000Y-100076000D03*
X137668000Y-97536000D03*
X137668000Y-94996000D03*
X137668000Y-92456000D03*
X112268000Y-92456000D03*
X112268000Y-94996000D03*
X112268000Y-97536000D03*
X112268000Y-100076000D03*
X112268000Y-102616000D03*
X112268000Y-105156000D03*
X112268000Y-107696000D03*
X112268000Y-110236000D03*
X112268000Y-112776000D03*
X112268000Y-115316000D03*
X112268000Y-117856000D03*
X112268000Y-120396000D03*
X112268000Y-122936000D03*
X112268000Y-125476000D03*
X112268000Y-128016000D03*
X112268000Y-130556000D03*
X112268000Y-133096000D03*
X112268000Y-135636000D03*
X112268000Y-138176000D03*
X112268000Y-140716000D03*
X112268000Y-143256000D03*
X112268000Y-145796000D03*
%TD*%
M02*
