M48
; DRILL file {KiCad 7.0.11+dfsg-1build4} date Sat 11 Jul 2026 10:27:51 AM CDT
; FORMAT={-:-/ absolute / inch / decimal}
; #@! TF.CreationDate,2026-07-11T10:27:51-05:00
; #@! TF.GenerationSoftware,Kicad,Pcbnew,7.0.11+dfsg-1build4
; #@! TF.FileFunction,Plated,1,2,PTH
FMAT,2
INCH
; #@! TA.AperFunction,Plated,PTH,ComponentDrill
T1C0.0315
; #@! TA.AperFunction,Plated,PTH,ComponentDrill
T2C0.0354
; #@! TA.AperFunction,Plated,PTH,ComponentDrill
T3C0.0394
; #@! TA.AperFunction,Plated,PTH,ComponentDrill
T4C0.0433
; #@! TA.AperFunction,Plated,PTH,ComponentDrill
T5C0.0472
; #@! TA.AperFunction,Plated,PTH,ComponentDrill
T6C0.0598
%
G90
G05
T1
X4.05Y-2.9
X4.12Y-4.99
X4.12Y-5.29
X4.25Y-4.99
X4.25Y-5.29
X4.25Y-5.38
X4.25Y-5.5769
X4.35Y-2.9
X4.53Y-2.66
X4.53Y-2.76
X4.53Y-2.86
X4.6Y-3.2616
X4.6Y-3.36
X4.66Y-2.72
X4.76Y-2.72
X4.8Y-2.86
X4.8Y-3.16
X4.86Y-2.72
X4.93Y-2.86
X4.93Y-3.16
X4.98Y-2.71
X5.02Y-3.41
X5.095Y-2.985
X5.095Y-3.285
X5.225Y-2.83
X5.225Y-3.13
X5.28Y-2.71
X5.32Y-3.41
X5.58Y-5.18
X5.58Y-5.31
X5.58Y-5.44
X5.58Y-5.57
X5.58Y-5.75
X5.6Y-4.53
X5.6016Y-4.24
X5.6031Y-4.37
X5.605Y-3.2816
X5.605Y-3.38
X5.7769Y-5.18
X5.7769Y-5.31
X5.7769Y-5.44
X5.7769Y-5.57
X5.78Y-2.86
X5.7969Y-4.53
X5.7984Y-4.24
X5.8Y-4.37
X5.82Y-4.7
X5.86Y-4.88
X5.87Y-3.465
X5.87Y-5.17
X5.875Y-3.615
X5.88Y-5.02
X5.88Y-5.75
X5.89Y-4.53
X5.9Y-4.37
X6.0535Y-3.9689
X6.08Y-2.03
X6.08Y-2.33
X6.08Y-2.44
X6.08Y-2.54
X6.08Y-2.64
X6.08Y-2.86
X6.1Y-5.6
X6.1Y-5.7
X6.1Y-5.8
X6.12Y-4.7
X6.12Y-5.28
X6.12Y-5.38
X6.12Y-5.48
X6.15Y-3.21
X6.1535Y-3.9689
X6.16Y-4.88
X6.17Y-3.465
X6.17Y-5.17
X6.175Y-3.615
X6.18Y-5.02
X6.19Y-4.53
X6.2Y-4.37
X6.225Y-2.3531
X6.225Y-2.55
X6.25Y-2.75
X6.25Y-2.85
X6.25Y-2.95
X6.2535Y-3.9689
X6.3Y-4.8331
X6.3Y-5.03
X6.3Y-5.1335
X6.3Y-5.4335
X6.31Y-3.6431
X6.31Y-3.84
X6.3189Y-4.415
X6.3382Y-5.7512
X6.36Y-2.35
X6.36Y-2.65
X6.41Y-4.04
X6.41Y-4.14
X6.41Y-4.24
X6.4303Y-5.3382
X6.4303Y-5.6382
X6.44Y-3.65
X6.44Y-3.95
X6.45Y-2.79
X6.45Y-3.09
X6.45Y-3.21
X6.4563Y-4.9902
X6.4563Y-5.0902
X6.4563Y-5.1902
X6.53Y-3.4
X6.53Y-3.53
X6.535Y-2.055
X6.54Y-2.19
X6.54Y-2.33
X6.54Y-3.27
X6.5567Y-5.3398
X6.5567Y-5.6398
X6.56Y-4.56
X6.56Y-4.69
X6.58Y-2.5
X6.58Y-2.6
X6.58Y-2.7
X6.58Y-2.795
X6.58Y-3.095
X6.59Y-3.99
X6.59Y-4.29
X6.61Y-3.7
X6.61Y-3.8
X6.61Y-3.9
X6.6189Y-4.415
X6.6382Y-5.7512
X6.65Y-4.9902
X6.65Y-5.0902
X6.65Y-5.1902
X6.6874Y-5.3378
X6.6874Y-5.6378
X6.72Y-2.79
X6.72Y-3.09
X6.72Y-3.99
X6.72Y-4.29
X6.77Y-4.44
X6.775Y-2.5
X6.775Y-2.6
X6.775Y-2.7
X6.81Y-3.7
X6.81Y-3.8
X6.81Y-3.9
X6.83Y-3.4
X6.83Y-3.53
X6.835Y-2.055
X6.84Y-2.19
X6.84Y-2.33
X6.84Y-3.27
X6.85Y-2.79
X6.85Y-3.09
X6.85Y-3.99
X6.85Y-4.29
X6.86Y-4.56
X6.86Y-4.69
X6.874Y-4.9898
X6.874Y-5.0898
X6.874Y-5.1898
X6.9063Y-4.8311
X6.94Y-3.4
X6.99Y-4.03
X6.99Y-4.33
X7.0Y-2.34
X7.0Y-2.44
X7.0Y-2.54
X7.03Y-3.74
X7.03Y-3.84
X7.03Y-3.94
X7.0331Y-3.03
X7.04Y-3.23
X7.07Y-4.44
X7.07Y-4.98
X7.07Y-5.48
X7.1031Y-4.8311
X7.23Y-3.03
X7.44Y-3.4
X7.54Y-3.23
X7.55Y-3.3831
X7.55Y-3.58
T2
X4.03Y-2.68
X4.13Y-2.68
X5.0654Y-2.1657
X5.1654Y-2.1657
X5.2886Y-2.4402
X5.3291Y-2.1673
X5.3886Y-2.4402
X5.4291Y-2.1673
X5.54Y-2.86
X5.64Y-2.86
X6.28Y-2.16
X6.3Y-3.46
X6.3201Y-4.6583
X6.38Y-2.16
X6.4Y-3.46
X6.4201Y-4.6583
T3
X4.42Y-3.64
X4.42Y-3.74
X4.42Y-3.84
X4.42Y-3.94
X4.42Y-4.04
X4.42Y-4.14
X4.42Y-4.24
X4.42Y-4.34
X4.42Y-4.44
X4.42Y-4.54
X4.42Y-4.64
X4.42Y-4.74
X4.42Y-4.84
X4.42Y-4.94
X4.42Y-5.04
X4.42Y-5.14
X4.42Y-5.24
X4.42Y-5.34
X4.42Y-5.44
X4.42Y-5.54
X4.42Y-5.64
X4.42Y-5.74
X5.42Y-3.64
X5.42Y-3.74
X5.42Y-3.84
X5.42Y-3.94
X5.42Y-4.04
X5.42Y-4.14
X5.42Y-4.24
X5.42Y-4.34
X5.42Y-4.44
X5.42Y-4.54
X5.42Y-4.64
X5.42Y-4.74
X5.42Y-4.84
X5.42Y-4.94
X5.42Y-5.04
X5.42Y-5.14
X5.42Y-5.24
X5.42Y-5.34
X5.42Y-5.44
X5.42Y-5.54
X5.42Y-5.64
X5.42Y-5.74
X5.64Y-3.74
X5.64Y-3.84
X5.64Y-3.94
X5.64Y-4.04
T4
X4.06Y-3.56
X4.06Y-3.86
X4.15Y-3.13
X4.15Y-3.23
X4.15Y-3.33
X4.34Y-3.09
X4.34Y-3.39
X4.615Y-2.4543
X4.915Y-2.4543
X7.02Y-2.15
X7.02Y-4.66
X7.04Y-3.63
X7.12Y-2.15
X7.12Y-4.66
X7.14Y-3.63
X7.22Y-2.15
X7.22Y-4.66
X7.24Y-3.63
T5
X4.3803Y-2.0551
X4.3803Y-2.5551
X7.18Y-2.28
X7.18Y-2.88
X7.23Y-3.83
X7.23Y-4.43
X7.27Y-4.85
X7.27Y-5.45
T6
X4.6657Y-2.2197
X4.8657Y-2.2197
X5.6315Y-2.2272
X5.8315Y-2.2272
X6.86Y-5.69
X7.06Y-5.69
X7.26Y-5.69
X7.46Y-5.69
X7.52Y-2.43
X7.52Y-2.63
X7.52Y-2.83
X7.52Y-3.03
X7.54Y-3.76
X7.54Y-3.96
X7.54Y-4.16
X7.54Y-4.36
X7.54Y-4.65
X7.54Y-4.85
X7.54Y-5.05
X7.54Y-5.25
M30
