M48
; DRILL file {KiCad 7.0.11+dfsg-1build4} date Mon 06 Jul 2026 01:27:41 PM CDT
; FORMAT={-:-/ absolute / inch / decimal}
; #@! TF.CreationDate,2026-07-06T13:27:41-05:00
; #@! TF.GenerationSoftware,Kicad,Pcbnew,7.0.11+dfsg-1build4
; #@! TF.FileFunction,Plated,1,2,PTH
FMAT,2
INCH
; #@! TA.AperFunction,Plated,PTH,ComponentDrill
T1C0.0315
; #@! TA.AperFunction,Plated,PTH,ComponentDrill
T2C0.0354
; #@! TA.AperFunction,Plated,PTH,ComponentDrill
T3C0.0394
; #@! TA.AperFunction,Plated,PTH,ComponentDrill
T4C0.0433
; #@! TA.AperFunction,Plated,PTH,ComponentDrill
T5C0.0472
; #@! TA.AperFunction,Plated,PTH,ComponentDrill
T6C0.0598
%
G90
G05
T1
X4.05Y-2.9
X4.12Y-4.99
X4.12Y-5.29
X4.25Y-4.99
X4.25Y-5.29
X4.25Y-5.38
X4.25Y-5.5769
X4.35Y-2.9
X4.53Y-2.66
X4.53Y-2.76
X4.53Y-2.86
X4.6Y-3.2616
X4.6Y-3.36
X4.66Y-2.72
X4.76Y-2.72
X4.8Y-2.86
X4.8Y-3.16
X4.86Y-2.72
X4.93Y-2.86
X4.93Y-3.16
X4.98Y-2.71
X5.02Y-3.41
X5.095Y-2.985
X5.095Y-3.285
X5.225Y-2.83
X5.225Y-3.13
X5.28Y-2.71
X5.32Y-3.41
X5.58Y-5.18
X5.58Y-5.31
X5.58Y-5.44
X5.58Y-5.57
X5.58Y-5.75
X5.6Y-4.53
X5.6016Y-4.24
X5.6031Y-4.37
X5.605Y-3.2816
X5.605Y-3.38
X5.7769Y-5.18
X5.7769Y-5.31
X5.7769Y-5.44
X5.7769Y-5.57
X5.78Y-2.86
X5.7969Y-4.53
X5.7984Y-4.24
X5.8Y-4.37
X5.82Y-4.7
X5.86Y-4.88
X5.87Y-3.465
X5.875Y-3.615
X5.88Y-5.02
X5.88Y-5.17
X5.88Y-5.75
X5.89Y-4.53
X5.9Y-4.37
X6.0535Y-3.9689
X6.08Y-2.03
X6.08Y-2.33
X6.08Y-2.44
X6.08Y-2.54
X6.08Y-2.64
X6.08Y-2.86
X6.1Y-5.35
X6.1Y-5.45
X6.1Y-5.55
X6.12Y-4.7
X6.1535Y-3.9689
X6.16Y-4.88
X6.17Y-3.465
X6.175Y-3.615
X6.18Y-5.02
X6.18Y-5.17
X6.19Y-4.53
X6.2Y-4.37
X6.225Y-2.3531
X6.225Y-2.55
X6.23Y-3.22
X6.2535Y-3.9689
X6.3Y-4.8331
X6.3Y-5.03
X6.31Y-3.6431
X6.31Y-3.84
X6.3189Y-4.415
X6.36Y-2.35
X6.36Y-2.65
X6.4Y-2.75
X6.4Y-2.85
X6.4Y-2.95
X6.41Y-4.04
X6.41Y-4.14
X6.41Y-4.24
X6.42Y-5.26
X6.42Y-5.36
X6.42Y-5.46
X6.43Y-4.86
X6.43Y-5.16
X6.44Y-3.65
X6.44Y-3.95
X6.53Y-3.22
X6.535Y-2.055
X6.54Y-2.19
X6.54Y-2.33
X6.55Y-2.795
X6.55Y-3.095
X6.56Y-4.6
X6.56Y-4.73
X6.57Y-3.405
X6.57Y-3.53
X6.57Y-5.18
X6.57Y-5.48
X6.58Y-2.5
X6.58Y-2.6
X6.58Y-2.7
X6.6189Y-4.415
X6.64Y-3.7
X6.64Y-3.8
X6.64Y-3.9
X6.64Y-4.89
X6.64Y-4.99
X6.64Y-5.09
X6.65Y-3.99
X6.65Y-4.29
X6.68Y-2.795
X6.68Y-3.095
X6.7Y-5.18
X6.7Y-5.48
X6.74Y-3.28
X6.77Y-4.45
X6.775Y-2.5
X6.775Y-2.6
X6.775Y-2.7
X6.78Y-3.99
X6.78Y-4.29
X6.81Y-2.855
X6.81Y-3.155
X6.835Y-2.055
X6.835Y-3.7
X6.835Y-3.8
X6.835Y-3.9
X6.84Y-2.19
X6.84Y-2.33
X6.84Y-4.89
X6.84Y-4.99
X6.84Y-5.09
X6.86Y-4.6
X6.86Y-4.73
X6.87Y-3.405
X6.87Y-3.53
X6.905Y-4.03
X6.905Y-4.33
X6.945Y-2.855
X6.945Y-3.155
X6.96Y-5.18
X6.96Y-5.48
X7.01Y-2.5493
X7.01Y-2.6493
X7.01Y-2.7493
X7.04Y-3.28
X7.04Y-4.03
X7.04Y-4.33
X7.06Y-3.74
X7.06Y-3.84
X7.06Y-3.94
X7.06Y-4.89
X7.06Y-4.99
X7.06Y-5.09
X7.07Y-4.45
X7.09Y-5.18
X7.09Y-5.48
T2
X4.03Y-2.68
X4.13Y-2.68
X5.0654Y-2.1657
X5.1654Y-2.1657
X5.2886Y-2.4402
X5.3291Y-2.1673
X5.3886Y-2.4402
X5.4291Y-2.1673
X5.54Y-2.86
X5.64Y-2.86
X6.28Y-2.16
X6.32Y-4.65
X6.33Y-3.46
X6.38Y-2.16
X6.42Y-4.65
X6.43Y-3.46
T3
X4.42Y-3.64
X4.42Y-3.74
X4.42Y-3.84
X4.42Y-3.94
X4.42Y-4.04
X4.42Y-4.14
X4.42Y-4.24
X4.42Y-4.34
X4.42Y-4.44
X4.42Y-4.54
X4.42Y-4.64
X4.42Y-4.74
X4.42Y-4.84
X4.42Y-4.94
X4.42Y-5.04
X4.42Y-5.14
X4.42Y-5.24
X4.42Y-5.34
X4.42Y-5.44
X4.42Y-5.54
X4.42Y-5.64
X4.42Y-5.74
X5.42Y-3.64
X5.42Y-3.74
X5.42Y-3.84
X5.42Y-3.94
X5.42Y-4.04
X5.42Y-4.14
X5.42Y-4.24
X5.42Y-4.34
X5.42Y-4.44
X5.42Y-4.54
X5.42Y-4.64
X5.42Y-4.74
X5.42Y-4.84
X5.42Y-4.94
X5.42Y-5.04
X5.42Y-5.14
X5.42Y-5.24
X5.42Y-5.34
X5.42Y-5.44
X5.42Y-5.54
X5.42Y-5.64
X5.42Y-5.74
X5.64Y-3.74
X5.64Y-3.84
X5.64Y-3.94
X5.64Y-4.04
T4
X4.06Y-3.56
X4.06Y-3.86
X4.15Y-3.13
X4.15Y-3.23
X4.15Y-3.33
X4.34Y-3.09
X4.34Y-3.39
X4.615Y-2.4543
X4.915Y-2.4543
X7.02Y-4.66
X7.03Y-2.27
X7.04Y-3.58
X7.12Y-4.66
X7.13Y-2.27
X7.14Y-3.58
X7.22Y-4.66
X7.23Y-2.27
X7.24Y-3.58
T5
X4.3803Y-2.0551
X4.3803Y-2.5551
X7.24Y-2.57
X7.24Y-3.17
X7.255Y-3.705
X7.255Y-4.305
X7.26Y-4.79
X7.26Y-5.39
T6
X4.6657Y-2.2197
X4.8657Y-2.2197
X5.6315Y-2.2272
X5.8315Y-2.2272
X6.82Y-5.69
X7.02Y-5.69
X7.22Y-5.69
X7.42Y-5.69
X7.52Y-2.53
X7.52Y-2.73
X7.52Y-2.93
X7.52Y-3.13
X7.53Y-4.74
X7.53Y-4.94
X7.53Y-5.14
X7.53Y-5.34
X7.54Y-3.67
X7.54Y-3.87
X7.54Y-4.07
X7.54Y-4.27
M30
